{
.formatVersion = 3;
DisplayStrings = (
"â‚/one.numr",
"/one.dnom"
);
classes = (
{
code = "slash A J O i j o agrave aacute acircumflex atilde adieresis aring amacron abreve aogonek Scedilla scedilla uni01CE zero.1 two.1 three.1 five.1 six.1 seven.1 eight.1 zero.numr one.numr two.numr three.numr four.numr five.numr six.numr seven.numr eight.numr nine.numr one.tf four.tf nine.tf uni002E.1";
name = aalt;
},
{
code = "fraction ordfeminine J_uni0301 ordmasculine uni01310307 uni02370301 ordmasculine uni0300.1 uni0301 uni0302.1.1 uni0303 uni0308.1 uni030A.1 uni0304.1.1 uni0306.1 uni0328.1.1 uni0218 uni0219 uni030C.1 zero two three five six seven eight zero.dnom one.dnom two.dnom three.dnom four.dnom five.dnom six.dnom seven.dnom eight.dnom nine.dnom one four nine uni002E.2";
name = aalt2;
},
{
code = "gravecomb acutecomb uni0302 tildecomb uni0304 uni0306 uni0307 uni0308 uni030A uni030B uni030C uni0312";
name = ccmp_mkmk;
},
{
code = "zero.dnom one.dnom two.dnom three.dnom four.dnom five.dnom six.dnom seven.dnom eight.dnom nine.dnom";
name = dnom_frac;
},
{
code = "zero one two three four five six seven eight nine";
name = dnom_frac_numr_ordn_sinf_subs_sups_tnum;
},
{
code = "zero.numr one.numr two.numr three.numr four.numr five.numr six.numr seven.numr eight.numr nine.numr";
name = frac_numr;
},
{
code = "zero.1 two.1 three.1 five.1 six.1 seven.1 eight.1 one.tf four.tf nine.tf";
name = pnum;
},
{
code = "zero two three five six seven eight one four nine";
name = pnum2;
},
{
code = "uni2080 uni2081 uni2082 uni2083 uni2084 uni2085 uni2086 uni2087 uni2088 uni2089";
name = sinf_subs;
},
{
code = "a agrave aacute acircumflex atilde adieresis aring amacron abreve aogonek uni01CE";
name = ss01;
},
{
code = "a.ss01 uni0300.1 uni0301 uni0302.1.1 uni0303 uni0308.1 uni030A.1 uni0304.1.1 uni0306.1 uni0328.1.1 uni030C.1";
name = ss012;
},
{
code = "zero I l Igrave Iacute Icircumflex Idieresis Imacron Iogonek Idotaccent IJ lacute uni013C lcaron lslash zero.1";
name = ss02;
},
{

glyphs = (
{
glyphname = .notdef;
layers = (
{
layerId = "7036C340-131A-4170-91E6-36E4B31F78AD";
shapes = (
{
closed = 1;
nodes = (
(190.653,-83.345,l),
(543.853,-83.345,l),
(543.853,712.717,l),
(190.653,712.717,l)
);
},
{
closed = 1;
nodes = (
(99.887,-165.092,l),
(99.887,794.464,l),
(634.619,794.464,l),
(634.619,-165.092,l)
);
},
{
closed = 1;
nodes = (
(154.149,-107.674,l),
(580.357,-107.674,l),
(580.357,-128.111,l),
(154.149,-128.111,l)
);
},
{
closed = 1;
nodes = (
(154.149,757.484,l),
(580.357,757.484,l),
(580.357,739.966,l),
(154.149,739.966,l)
);
}
);
width = 735;
},
{
layerId = "4DDF4BC2-1FF7-4978-B26A-B91C0D95F109";
shapes = (
{
closed = 1;
nodes = (
(177.52,-93.185,l),
(546.242,-93.185,l),
(546.242,718.26,l),
(177.52,718.26,l)
);
},
{
closed = 1;
nodes = (
(100.207,-167.846,l),
(100.207,792.921,l),
(623.555,792.921,l),
(623.555,-167.846,l)
);
},
{
closed = 1;
nodes = (
(147.784,-113.815,l),
(575.978,-113.815,l),
(575.978,-134.445,l),
(147.784,-134.445,l)
);
},
{
closed = 1;
nodes = (
(147.784,759.52,l),
(575.978,759.52,l),
(575.978,741.837,l),
(147.784,741.837,l)
);
}
);
width = 724;
},
{
layerId = "543DA35F-7ABF-43F9-9722-B424E2B2594A";
shapes = (
{
closed = 1;
nodes = (
(100,-170,l),
(100,790,l),
(608,790,l),
(608,-170,l)
);
},
{
closed = 1;
nodes = (
(158,-112,l),
(550,-112,l),
(550,732,l),
(158,732,l)
);
},
{
closed = 1;
nodes = (
(138,-124,l),
(570,-124,l),
(570,-145,l),
(138,-145,l)
);
},
{
closed = 1;
nodes = (
(138,765,l),
(570,765,l),
(570,747,l),
(138,747,l)
);
}
);
width = 708;
},
{
layerId = "E87EDBC8-E77D-435A-ADBF-1646AF857D52";
shapes = (
{
closed = 1;
nodes = (
(115.228,-173.546,l),
(115.228,787.286,l),
(608.676,787.286,l),
(608.676,-173.546,l)
);
},
{
closed = 1;
nodes = (
(153.652,-134.704,l),
(570.251,-134.704,l),
(570.251,748.444,l),
(153.652,748.444,l)
);
},
{
closed = 1;
nodes = (
(143.541,-136.748,l),
(580.363,-136.748,l),
(580.363,-158.213,l),
(143.541,-158.213,l)
);
},
{
closed = 1;
nodes = (
(143.541,771.953,l),
(580.363,771.953,l),
(580.363,753.554,l),
(143.541,753.554,l)
);
}
);
width = 716;
},
{
layerId = "C61358D5-F9AD-4529-B82F-EDAD2AAE1785";
shapes = (
{
closed = 1;
nodes = (
(120.991,-175.301,l),
(120.991,784.642,l),
(607.265,784.642,l),
(607.265,-175.301,l)
);
},
{
closed = 1;
nodes = (
(149.475,-148.406,l),
(578.781,-148.406,l),
(578.781,757.747,l),
(149.475,757.747,l)
);
},
{
closed = 1;
nodes = (
(144.389,-144.268,l),
(583.867,-144.268,l),
(583.867,-165.991,l),
(144.389,-165.991,l)
);
},
{
closed = 1;
nodes = (
(144.389,775.332,l),
(583.867,775.332,l),
(583.867,756.712,l),
(144.389,756.712,l)
);
}
);
width = 716;
}
);
},
{
glyphname = exclam;
layers = (
{
layerId = "7036C340-131A-4170-91E6-36E4B31F78AD";
shapes = (
{
closed = 1;
nodes = (
(89.035,87.935,o),
(111.726,132.701,o),
(166.975,132.701,cs),
(221.238,132.701,o),
(244.916,87.935,o),
(244.916,59.713,cs),
(244.916,31.49,o),
(222.224,-14.249,o),
(166.975,-14.249,cs),
(110.74,-14.249,o),
(89.035,31.49,o),
(89.035,59.713,cs)
);
},
{
closed = 1;
nodes = (
(103.833,204.717,l),
(98.9,706.878,l),
(234.063,706.878,l),
(230.117,204.717,l)
);
}
);
width = 335;
},
{
layerId = "4DDF4BC2-1FF7-4978-B26A-B91C0D95F109";
shapes = (
{
closed = 1;
nodes = (
(89.304,87.573,o),
(115.075,124.903,o),
(160.67,124.903,cs),
(205.273,124.903,o),
(232.035,86.59,o),
(232.035,55.154,cs),
(232.035,23.718,o),
(206.264,-15.577,o),
(160.67,-15.577,cs),
(114.084,-15.577,o),
(89.304,22.736,o),
(89.304,55.154,cs)
);
},
{
closed = 1;
nodes = (
(104.172,205.458,l),
(99.216,704.507,l),
(221.132,704.507,l),
(217.167,205.458,l)
);
}
);
width = 321;
},
{
layerId = "543DA35F-7ABF-43F9-9722-B424E2B2594A";
shapes = (
{
closed = 1;
nodes = (
(104,210,l),
(99,700,l),
(202,700,l),
(198,210,l)
);
},
{
closed = 1;
nodes = (
(125,-15,o),
(89,22,o),
(89,48,qs),
(89,73,o),
(125,110,o),
(151,110,qs),
(176,110,o),
(213,73,o),
(213,48,qs),
(213,22,o),
(176,-15,o),
(151,-15,qs)
);
}
);
width = 302;
},
{
layerId = "E87EDBC8-E77D-435A-ADBF-1646AF857D52";
shapes = (
{
closed = 1;
nodes = (
(120.273,214.875,l),
(115.217,695.291,l),
(199.143,695.291,l),
(195.099,214.875,l)
);
},
{
closed = 1;
nodes = (
(126.34,-15.111,o),
(105.105,11.465,o),
(105.105,39.064,cs),
(105.105,66.662,o),
(127.351,92.216,o),
(157.686,92.216,cs),
(187.009,92.216,o),
(210.266,65.64,o),
(210.266,39.064,cs),
(210.266,11.465,o),
(188.021,-15.111,o),
(157.686,-15.111,cs)
);
}
);
width = 311;
},
{
layerId = "C61358D5-F9AD-4529-B82F-EDAD2AAE1785";
shapes = (
{
closed = 1;
nodes = (
(125.06,217.779,l),
(119.973,691.544,l),
(194.237,691.544,l),
(190.168,217.779,l)
);
},
{
closed = 1;
nodes = (
(126.077,-14.966,o),
(109.8,10.895,o),
(109.8,33.652,cs),
(109.8,56.409,o),
(128.112,81.236,o),
(157.614,81.236,cs),
(187.116,81.236,o),
(205.428,56.409,o),
(205.428,33.652,cs),
(205.428,10.895,o),
(188.133,-14.966,o),
(157.614,-14.966,cs)
);
}
);
width = 311;
}
);
leftKerningGroup = exclam;
unicode = 33;
},
{
glyphname = quotedbl;
layers = (
{
layerId = "7036C340-131A-4170-91E6-36E4B31F78AD";
shapes = (
{
closed = 1;
nodes = (
(69.303,463.583,l),
(60.423,722.449,l),
(184.734,722.449,l),
(175.854,463.583,l)
);
},
{
closed = 1;
nodes = (
(200.303,463.583,l),
(191.423,722.449,l),
(315.734,722.449,l),
(306.854,463.583,l)
);
}
);
width = 376;
},
{
layerId = "4DDF4BC2-1FF7-4978-B26A-B91C0D95F109";
shapes = (
{
closed = 1;
nodes = (
(69.48,466.771,l),
(60.559,720.225,l),
(171.573,720.225,l),
(162.652,466.771,l)
);
},
{
closed = 1;
nodes = (
(200.48,466.771,l),
(191.559,720.225,l),
(302.573,720.225,l),
(293.652,466.771,l)
);
}
);
width = 363;
},
{
layerId = "543DA35F-7ABF-43F9-9722-B424E2B2594A";
shapes = (
{
closed = 1;
nodes = (
(69,476,l),
(60,716,l),
(152,716,l),
(143,476,l)
);
},
{
closed = 1;
nodes = (
(202,476,l),
(193,716,l),
(285,716,l),
(276,476,l)
);
}
);
width = 345;
},
{
layerId = "E87EDBC8-E77D-435A-ADBF-1646AF857D52";
shapes = (
{
closed = 1;
nodes = (
(82.871,486.77,l),
(75.793,711.646,l),
(146.574,711.646,l),
(139.496,486.77,l)
);
},
{
closed = 1;
nodes = (
(217.871,486.77,l),
(210.793,711.646,l),
(281.574,711.646,l),
(274.496,486.77,l)
);
}
);
width = 354;
},
{
layerId = "C61358D5-F9AD-4529-B82F-EDAD2AAE1785";
shapes = (
{
closed = 1;
nodes = (
(88.437,492.935,l),
(81.316,708.095,l),
(142.354,708.095,l),
(135.233,492.935,l)
);
},
{
closed = 1;
nodes = (
(224.437,492.935,l),
(217.316,708.095,l),
(278.354,708.095,l),
(271.233,492.935,l)
);
}
);
width = 355;
}
);
leftKerningGroup = exclam;
unicode = 34;
},
{
glyphname = numbersign;
layers = (
{
layerId = "7036C340-131A-4170-91E6-36E4B31F78AD";
shapes = (
{
closed = 1;
nodes = (
(281.42,285.491,l),
(394.878,285.491,l),
(415.596,412.977,l),
(302.138,412.977,l)
);
},
{
closed = 1;
nodes = (
(109.753,0.349,l),
(137.377,176.494,l),
(10.107,176.494,l),
(20.96,285.491,l),
(155.136,285.491,l),
(175.854,412.977,l),
(45.625,412.977,l),
(58.45,521.974,l),
(192.627,521.974,l),
(222.224,706.878,l),
(348.508,706.878,l),
(318.91,521.974,l),
(432.368,521.974,l),
(461.966,706.878,l),
(588.249,706.878,l),
(558.652,521.974,l),
(667.177,521.974,l),
(654.351,412.977,l),
(541.88,412.977,l),
(521.161,285.491,l),
(628.7,285.491,l),
(617.847,176.494,l),
(503.403,176.494,l),
(475.778,0.349,l),
(349.494,0.349,l),
(377.119,176.494,l),
(263.661,176.494,l),
(236.037,0.349,l)
);
}
);
width = 678;
},
{
layerId = "4DDF4BC2-1FF7-4978-B26A-B91C0D95F109";
shapes = (
{
closed = 1;
nodes = (
(267.718,279.137,l),
(395.582,279.137,l),
(418.379,415.687,l),
(290.515,415.687,l)
);
},
{
closed = 1;
nodes = (
(111.11,-0.841,l),
(138.863,176.969,l),
(10.009,176.969,l),
(20.912,279.137,l),
(154.722,279.137,l),
(177.52,415.687,l),
(46.683,415.687,l),
(58.577,517.855,l),
(192.388,517.855,l),
(222.123,704.507,l),
(335.119,704.507,l),
(305.383,517.855,l),
(433.247,517.855,l),
(462.982,704.507,l),
(575.978,704.507,l),
(546.242,517.855,l),
(655.273,517.855,l),
(643.379,415.687,l),
(531.375,415.687,l),
(508.577,279.137,l),
(617.608,279.137,l),
(606.705,176.969,l),
(492.718,176.969,l),
(464.965,-0.841,l),
(351.969,-0.841,l),
(379.723,176.969,l),
(251.859,176.969,l),
(224.106,-0.841,l)
);
}
);
width = 666;
},
{
layerId = "543DA35F-7ABF-43F9-9722-B424E2B2594A";
shapes = (
{
closed = 1;
nodes = (
(286,510,l),
(435,510,l),
(465,700,l),
(559,700,l),
(529,510,l),
(639,510,l),
(629,424,l),
(516,424,l),
(491,267,l),
(601,267,l),
(592,181,l),
(477,181,l),
(449,0,l),
(355,0,l),
(383,181,l),
(234,181,l),
(206,0,l),
(112,0,l),
(140,181,l),
(10,181,l),
(19,267,l),
(154,267,l),
(179,424,l),
(47,424,l),
(57,510,l),
(192,510,l),
(222,700,l),
(316,700,l)
);
},
{
closed = 1;
nodes = (
(422,424,l),
(273,424,l),
(248,267,l),
(397,267,l)
);
}
);
width = 649;
},
{
layerId = "E87EDBC8-E77D-435A-ADBF-1646AF857D52";
shapes = (
{
closed = 1;
nodes = (
(129.373,0.222,l),
(157.686,185.233,l),
(27.246,185.233,l),
(34.324,252.695,l),
(169.82,252.695,l),
(198.132,433.618,l),
(64.659,433.618,l),
(71.737,501.081,l),
(208.244,501.081,l),
(238.579,695.291,l),
(312.394,695.291,l),
(282.059,501.081,l),
(453.956,501.081,l),
(484.291,695.291,l),
(558.106,695.291,l),
(527.771,501.081,l),
(638.999,501.081,l),
(631.921,433.618,l),
(517.66,433.618,l),
(489.347,252.695,l),
(600.575,252.695,l),
(593.497,185.233,l),
(478.224,185.233,l),
(449.912,0.222,l),
(375.086,0.222,l),
(403.398,185.233,l),
(232.512,185.233,l),
(204.199,0.222,l)
);
},
{
closed = 1;
nodes = (
(243.634,252.695,l),
(415.532,252.695,l),
(443.845,433.618,l),
(271.947,433.618,l)
);
}
);
width = 656;
},
{
layerId = "C61358D5-F9AD-4529-B82F-EDAD2AAE1785";
shapes = (
{
closed = 1;
nodes = (
(136.233,0.551,l),
(164.718,187.781,l),
(32.467,187.781,l),
(38.571,243.64,l),
(174.891,243.64,l),
(204.393,439.145,l),
(70.108,439.145,l),
(77.229,495.004,l),
(213.549,495.004,l),
(244.068,691.544,l),
(309.176,691.544,l),
(278.657,495.004,l),
(460.755,495.004,l),
(491.275,691.544,l),
(556.382,691.544,l),
(525.863,495.004,l),
(637.767,495.004,l),
(630.646,439.145,l),
(516.707,439.145,l),
(487.205,243.64,l),
(599.109,243.64,l),
(593.006,187.781,l),
(477.032,187.781,l),
(448.547,0.551,l),
(383.44,0.551,l),
(411.924,187.781,l),
(229.826,187.781,l),
(201.341,0.551,l)
);
},
{
closed = 1;
nodes = (
(239.999,243.64,l),
(422.097,243.64,l),
(451.599,439.145,l),
(269.501,439.145,l)
);
}
);
width = 656;
}
);
unicode = 35;
},
{
glyphname = dollar;
layers = (
{
layerId = "7036C340-131A-4170-91E6-36E4B31F78AD";
shapes = (
{
closed = 1;
nodes = (
(370.253,142.433,l),
(399.851,157.031,o),
(415.636,179.414,o),
(415.636,207.636,cs),
(415.636,235.858,o),
(398.864,257.268,o),
(370.253,272.839,c)
);
},
{
closed = 1;
nodes = (
(249.889,569.66,l),
(216.345,557.008,o),
(200.559,530.732,o),
(200.559,497.644,cs),
(200.559,464.556,o),
(215.358,443.146,o),
(249.889,429.522,c)
);
},
{
closed = 1;
nodes = (
(249.889,-99.889,l),
(249.889,26.625,l),
(151.23,40.249,o),
(74.276,97.667,o),
(51.584,171.629,c),
(48.625,182.334,l),
(165.042,219.314,l),
(169.975,205.69,l),
(182.801,174.548,o),
(212.399,146.326,o),
(249.889,134.648,c),
(249.889,310.793,l),
(138.404,340.962,o),
(74.276,395.46,o),
(74.276,492.778,cs),
(74.276,581.338,o),
(124.592,662.112,o),
(249.889,680.602,c),
(249.889,784.733,l),
(370.253,784.733,l),
(370.253,678.656,l),
(459.046,661.139,o),
(520.215,604.694,o),
(540.933,538.518,c),
(544.88,527.813,l),
(427.475,488.886,l),
(422.542,502.51,ls),
(413.663,526.84,o),
(395.904,548.25,o),
(370.253,561.874,c),
(370.253,397.407,l),
(471.872,368.211,o),
(543.893,298.142,o),
(543.893,212.502,cs),
(543.893,128.809,o),
(486.671,47.061,o),
(370.253,27.598,c),
(370.253,-99.889,l)
);
}
);
width = 593;
},
{
layerId = "4DDF4BC2-1FF7-4978-B26A-B91C0D95F109";
shapes = (
{
closed = 1;
nodes = (
(355.943,130.797,l),
(392.617,144.551,o),
(415.414,169.11,o),
(415.414,204.476,cs),
(415.414,238.859,o),
(391.626,263.419,o),
(355.943,280.119,c)
);
},
{
closed = 1;
nodes = (
(248.894,577.78,l),
(207.264,565.991,o),
(185.458,536.52,o),
(185.458,497.225,cs),
(185.458,456.947,o),
(207.264,434.353,o),
(248.894,420.599,c)
);
},
{
closed = 1;
nodes = (
(248.894,-102.026,l),
(248.894,24.7,l),
(156.714,36.489,o),
(73.454,89.537,o),
(49.665,169.11,cs),
(47.683,175.987,l),
(151.758,209.388,l),
(154.731,201.529,ls),
(169.599,164.198,o),
(205.282,134.727,o),
(248.894,124.903,c),
(248.894,311.555,l),
(143.828,339.062,o),
(72.463,389.163,o),
(72.463,492.313,cs),
(72.463,590.551,o),
(130.943,663.247,o),
(248.894,677.983,c),
(248.894,783.097,l),
(355.943,783.097,l),
(355.943,677.,l),
(440.194,661.282,o),
(504.621,608.234,o),
(528.41,537.502,c),
(530.392,530.626,l),
(425.326,495.26,l),
(421.361,503.119,l),
(410.458,532.59,o),
(387.661,557.15,o),
(355.943,570.903,c),
(355.943,393.093,l),
(451.097,366.568,o),
(530.392,300.749,o),
(530.392,209.388,cs),
(530.392,117.044,o),
(464.974,42.383,o),
(355.943,26.665,c),
(355.943,-102.026,l)
);
}
);
width = 579;
},
{
layerId = "543DA35F-7ABF-43F9-9722-B424E2B2594A";
shapes = (
{
closed = 1;
nodes = (
(337,-103,l),
(249,-103,l),
(249,25,l),
(206,29,o),
(172,43,qs),
(121,63,o),
(59,129,o),
(48,166,q),
(135,194,l),
(149,159,o),
(186,132,qs),
(213,113,o),
(249,108,q),
(249,315,l),
(226,321,ls),
(182,333,o),
(111,378,o),
(71,446,o),
(71,493,qs),
(71,579,o),
(128,628,qs),
(173,667,o),
(249,675,q),
(249,780,l),
(337,780,l),
(337,674,l),
(369,669,o),
(396,658,q),
(441,638,o),
(499,574,o),
(511,537,q),
(423,507,l),
(409,545,o),
(372,570,qs),
(356,580,o),
(337,586,q),
(337,386,l),
(419,365,o),
(465,316,qs),
(513,265,o),
(513,205,qs),
(513,153,o),
(461,71,o),
(412,47,qs),
(379,31,o),
(337,26,q)
);
},
{
closed = 1;
nodes = (
(249,591,l),
(218,585,o),
(196,568,q),
(165,542,o),
(165,498,qs),
(165,458,o),
(190,437,qs),
(213,418,o),
(249,408,q)
);
},
{
closed = 1;
nodes = (
(337,112,l),
(361,119,o),
(380,132,qs),
(417,158,o),
(417,200,qs),
(417,239,o),
(384,264,qs),
(364,280,o),
(337,291,q)
);
}
);
width = 561;
},
{
layerId = "E87EDBC8-E77D-435A-ADBF-1646AF857D52";
shapes = (
{
closed = 1;
nodes = (
(266.891,-105.061,l),
(266.891,25.776,l),
(185.998,30.886,o),
(100.049,70.751,o),
(67.692,147.413,c),
(66.681,152.524,l),
(135.44,176.033,l),
(137.462,171.945,l),
(163.753,122.881,o),
(211.277,94.26,o),
(266.891,88.127,c),
(266.891,320.158,l),
(259.813,322.202,ls),
(166.786,347.756,o),
(86.904,385.576,o),
(86.904,493.925,cs),
(86.904,602.275,o),
(159.708,663.604,o),
(266.891,669.737,c),
(266.891,777.064,l),
(335.65,777.064,l),
(335.65,669.737,l),
(410.476,658.493,o),
(477.213,620.673,o),
(507.548,550.144,c),
(509.57,545.033,l),
(437.778,521.524,l),
(436.767,525.612,l),
(415.532,567.521,o),
(380.142,590.009,o),
(335.65,603.297,c),
(335.65,376.377,l),
(342.728,374.333,ls),
(426.655,350.823,o),
(513.615,295.626,o),
(513.615,199.543,cs),
(513.615,98.349,o),
(440.811,42.13,o),
(344.751,26.798,c),
(335.65,25.776,l),
(335.65,-105.061,l)
);
},
{
closed = 1;
nodes = (
(266.891,393.754,l),
(266.891,606.363,l),
(204.199,596.142,o),
(161.73,564.455,o),
(161.73,499.036,cs),
(161.73,438.729,o),
(199.143,414.197,o),
(254.757,396.82,c)
);
},
{
closed = 1;
nodes = (
(335.65,91.194,l),
(390.253,108.571,o),
(436.767,132.08,o),
(436.767,194.432,cs),
(436.767,252.695,o),
(388.231,282.338,o),
(335.65,302.781,c)
);
}
);
width = 569;
},
{
layerId = "C61358D5-F9AD-4529-B82F-EDAD2AAE1785";
shapes = (
{
closed = 1;
nodes = (
(273.57,-105.995,l),
(273.57,24.342,l),
(259.328,26.411,l),
(179.977,35.721,o),
(105.714,71.926,o),
(75.194,140.198,c),
(74.177,144.335,l),
(134.198,165.024,l),
(136.233,161.92,l),
(164.718,110.199,o),
(210.497,85.373,o),
(273.57,77.098,c),
(273.57,323.29,l),
(269.501,323.29,o),
(265.432,324.324,o),
(262.38,325.359,cs),
(163.7,349.151,o),
(92.489,397.768,o),
(92.489,493.969,cs),
(92.489,591.205,o),
(148.441,652.236,o),
(259.328,665.683,cs),
(273.57,667.752,l),
(273.57,774.297,l),
(332.574,774.297,l),
(332.574,666.718,l),
(345.799,664.649,l),
(418.028,651.201,o),
(474.998,614.997,o),
(503.482,553.966,c),
(504.5,549.828,l),
(443.461,529.14,l),
(442.444,532.243,l),
(419.045,576.723,o),
(383.44,596.377,o),
(332.574,611.893,c),
(332.574,369.839,l),
(336.643,369.839,o),
(340.713,368.805,o),
(343.764,367.77,cs),
(432.271,346.047,o),
(511.621,280.879,o),
(511.621,196.056,cs),
(511.621,96.752,o),
(440.409,36.755,o),
(332.574,25.377,c),
(332.574,-105.995,l)
);
},
{
closed = 1;
nodes = (
(273.57,614.997,l),
(267.466,613.962,o),
(261.362,612.928,o),
(255.258,611.893,cs),
(191.168,599.48,o),
(157.597,555.,o),
(157.597,499.142,cs),
(157.597,427.766,o),
(204.393,405.009,o),
(273.57,385.355,c)
);
},
{
closed = 1;
nodes = (
(332.574,78.132,l),
(351.903,84.339,ls),
(407.855,101.924,o),
(444.478,138.129,o),
(444.478,190.884,cs),
(444.478,255.018,o),
(393.613,285.016,o),
(332.574,308.808,c)
);
}
);
width = 570;
}
);
unicode = 36;
},
{
glyphname = percent;
layers = (
{
layerId = "7036C340-131A-4170-91E6-36E4B31F78AD";
shapes = (
{
closed = 1;
nodes = (
(90.021,370.157,o),
(46.611,475.261,o),
(46.611,546.303,cs),
(46.611,617.346,o),
(90.021,722.449,o),
(218.278,722.449,cs),
(347.521,722.449,o),
(390.931,618.319,o),
(390.931,546.303,cs),
(390.931,474.288,o),
(346.535,370.157,o),
(218.278,370.157,cs)
);
},
{
closed = 1;
nodes = (
(184.734,480.127,o),
(198.546,471.368,o),
(218.278,471.368,cs),
(258.728,471.368,o),
(277.473,510.296,o),
(277.473,547.276,cs),
(277.473,583.284,o),
(257.742,623.185,o),
(218.278,623.185,cs),
(198.546,623.185,o),
(184.734,614.426,o),
(174.868,598.855,cs),
(164.015,583.284,o),
(160.069,562.847,o),
(160.069,547.276,cs),
(160.069,531.706,o),
(164.015,511.269,o),
(174.868,495.698,cs)
);
},
{
closed = 1;
nodes = (
(480.711,-14.249,o),
(437.301,90.854,o),
(437.301,161.897,cs),
(437.301,232.939,o),
(480.711,338.043,o),
(608.968,338.043,cs),
(738.211,338.043,o),
(781.621,233.912,o),
(781.621,161.897,cs),
(781.621,89.881,o),
(737.225,-14.249,o),
(608.968,-14.249,cs)
);
},
{
closed = 1;
nodes = (
(575.424,95.72,o),
(589.236,86.962,o),
(608.968,86.962,cs),
(649.418,86.962,o),
(668.163,125.889,o),
(668.163,162.87,cs),
(668.163,198.878,o),
(648.431,238.778,o),
(608.968,238.778,cs),
(589.236,238.778,o),
(575.424,230.019,o),
(565.558,214.449,cs),
(554.705,198.878,o),
(550.759,178.441,o),
(550.759,162.87,cs),
(550.759,147.299,o),
(554.705,126.862,o),
(565.558,111.291,cs)
);
},
{
closed = 1;
nodes = (
(83.115,0.349,l),
(592.196,706.878,l),
(733.278,706.878,l),
(221.238,0.349,l)
);
}
);
width = 818;
},
{
layerId = "4DDF4BC2-1FF7-4978-B26A-B91C0D95F109";
shapes = (
{
closed = 1;
nodes = (
(96.233,372.463,o),
(45.683,465.789,o),
(45.683,546.344,cs),
(45.683,626.899,o),
(95.242,720.225,o),
(211.211,720.225,cs),
(327.181,720.225,o),
(377.731,627.881,o),
(377.731,546.344,cs),
(377.731,464.806,o),
(327.181,372.463,o),
(211.211,372.463,cs)
);
},
{
closed = 1;
nodes = (
(256.806,466.771,o),
(277.621,508.031,o),
(277.621,547.326,cs),
(277.621,585.639,o),
(256.806,627.881,o),
(211.211,627.881,cs),
(166.608,627.881,o),
(145.793,585.639,o),
(145.793,547.326,cs),
(145.793,509.013,o),
(166.608,466.771,o),
(211.211,466.771,cs)
);
},
{
closed = 1;
nodes = (
(488.745,-15.577,o),
(438.194,77.749,o),
(438.194,158.304,cs),
(438.194,238.859,o),
(487.753,332.185,o),
(603.723,332.185,cs),
(719.692,332.185,o),
(770.242,239.841,o),
(770.242,158.304,cs),
(770.242,76.767,o),
(719.692,-15.577,o),
(603.723,-15.577,cs)
);
},
{
closed = 1;
nodes = (
(649.317,78.731,o),
(670.132,119.991,o),
(670.132,159.286,cs),
(670.132,197.599,o),
(649.317,239.841,o),
(603.723,239.841,cs),
(559.119,239.841,o),
(538.304,197.599,o),
(538.304,159.286,cs),
(538.304,120.974,o),
(559.119,78.731,o),
(603.723,78.731,cs)
);
},
{
closed = 1;
nodes = (
(86.322,-0.841,l),
(590.837,704.507,l),
(717.709,704.507,l),
(210.22,-0.841,l)
);
}
);
width = 807;
},
{
layerId = "543DA35F-7ABF-43F9-9722-B424E2B2594A";
shapes = (
{
closed = 1;
nodes = (
(633,63,o),
(676,114,o),
(676,154,qs),
(676,193,o),
(633,245,o),
(599,245,qs),
(566,245,o),
(523,193,o),
(523,154,qs),
(523,114,o),
(566,63,o),
(599,63,qs)
);
},
{
closed = 1;
nodes = (
(237,458,o),
(280,509,o),
(280,549,qs),
(280,588,o),
(237,640,o),
(203,640,qs),
(170,640,o),
(127,588,o),
(127,549,qs),
(127,509,o),
(170,458,o),
(203,458,qs)
);
},
{
closed = 1;
nodes = (
(553,-15,o),
(482,28,o),
(442,105,o),
(442,153,qs),
(442,203,o),
(482,278,o),
(553,321,o),
(599,321,qs),
(646,321,o),
(717,278,o),
(757,203,o),
(757,153,qs),
(757,105,o),
(717,28,o),
(646,-15,o),
(599,-15,qs)
);
},
{
closed = 1;
nodes = (
(95,0,l),
(592,700,l),
(696,700,l),
(196,0,l)
);
},
{
closed = 1;
nodes = (
(157,380,o),
(86,423,o),
(46,500,o),
(46,548,qs),
(46,598,o),
(86,673,o),
(157,716,o),
(203,716,qs),
(250,716,o),
(321,673,o),
(361,598,o),
(361,548,qs),
(361,500,o),
(321,423,o),
(250,380,o),
(203,380,qs)
);
}
);
width = 793;
},
{
layerId = "E87EDBC8-E77D-435A-ADBF-1646AF857D52";
shapes = (
{
closed = 1;
nodes = (
(113.206,388.643,o),
(60.625,465.305,o),
(60.625,550.144,cs),
(60.625,636.006,o),
(112.194,711.646,o),
(209.266,711.646,cs),
(306.338,711.646,o),
(358.918,637.028,o),
(358.918,550.144,cs),
(358.918,464.283,o),
(305.327,388.643,o),
(209.266,388.643,cs)
);
},
{
closed = 1;
nodes = (
(266.902,447.928,o),
(297.237,498.014,o),
(297.237,551.166,cs),
(297.237,603.297,o),
(265.891,654.405,o),
(209.266,654.405,cs),
(152.641,654.405,o),
(122.306,602.275,o),
(122.306,551.166,cs),
(122.306,499.036,o),
(151.63,447.928,o),
(209.266,447.928,cs)
);
},
{
closed = 1;
nodes = (
(513.626,-15.111,o),
(461.046,61.551,o),
(461.046,146.391,cs),
(461.046,232.252,o),
(512.615,307.892,o),
(609.687,307.892,cs),
(706.758,307.892,o),
(759.339,233.274,o),
(759.339,146.391,cs),
(759.339,60.529,o),
(705.747,-15.111,o),
(609.687,-15.111,cs)
);
},
{
closed = 1;
nodes = (
(667.323,44.175,o),
(697.658,94.26,o),
(697.658,147.413,cs),
(697.658,199.543,o),
(666.312,250.651,o),
(609.687,250.651,cs),
(553.062,250.651,o),
(522.727,198.521,o),
(522.727,147.413,cs),
(522.727,95.283,o),
(552.05,44.175,o),
(609.687,44.175,cs)
);
},
{
closed = 1;
nodes = (
(120.284,0.222,l),
(607.664,695.291,l),
(687.546,695.291,l),
(197.132,0.222,l)
);
}
);
width = 799;
},
{
layerId = "C61358D5-F9AD-4529-B82F-EDAD2AAE1785";
shapes = (
{
closed = 1;
nodes = (
(109.8,393.631,o),
(66.056,476.384,o),
(66.056,550.863,cs),
(66.056,626.375,o),
(109.8,708.095,o),
(210.514,708.095,cs),
(312.245,708.095,o),
(355.99,626.375,o),
(355.99,550.863,cs),
(355.99,475.35,o),
(311.228,393.631,o),
(210.514,393.631,cs)
);
},
{
closed = 1;
nodes = (
(275.622,441.214,o),
(304.107,500.176,o),
(304.107,551.897,cs),
(304.107,602.584,o),
(274.605,662.58,o),
(210.514,662.58,cs),
(147.441,662.58,o),
(117.939,602.584,o),
(117.939,551.897,cs),
(117.939,501.21,o),
(146.424,441.214,o),
(210.514,441.214,cs)
);
},
{
closed = 1;
nodes = (
(512.655,-14.966,o),
(468.911,67.788,o),
(468.911,142.266,cs),
(468.911,217.779,o),
(512.655,299.498,o),
(613.369,299.498,cs),
(715.1,299.498,o),
(758.845,217.779,o),
(758.845,142.266,cs),
(758.845,66.754,o),
(714.083,-14.966,o),
(613.369,-14.966,cs)
);
},
{
closed = 1;
nodes = (
(678.477,32.618,o),
(706.962,91.58,o),
(706.962,143.301,cs),
(706.962,193.987,o),
(677.46,253.984,o),
(613.369,253.984,cs),
(550.296,253.984,o),
(520.794,193.987,o),
(520.794,143.301,cs),
(520.794,92.614,o),
(549.279,32.618,o),
(613.369,32.618,cs)
);
},
{
closed = 1;
nodes = (
(131.164,0.551,l),
(613.369,691.544,l),
(681.529,691.544,l),
(196.272,0.551,l)
);
}
);
width = 800;
}
);
unicode = 37;
},
{
glyphname = ampersand;
layers = (
{
layerId = "7036C340-131A-4170-91E6-36E4B31F78AD";
shapes = (
{
closed = 1;
nodes = (
(260.701,295.223,o),
(250.835,288.41,o),
(241.956,281.598,cs),
(230.117,271.866,o),
(219.264,263.108,o),
(210.385,253.376,cs),
(193.613,234.885,o),
(182.761,212.502,o),
(182.761,180.387,cs),
(182.761,132.701,o),
(215.318,93.774,o),
(276.487,93.774,cs),
(328.776,93.774,o),
(373.173,108.372,o),
(410.663,134.648,c),
(363.307,190.119,o),
(316.937,245.59,o),
(270.567,302.035,c)
);
},
{
closed = 1;
nodes = (
(484.657,46.088,l),
(426.448,6.188,o),
(351.468,-13.276,o),
(272.54,-13.276,cs),
(128.498,-13.276,o),
(51.544,82.096,o),
(51.544,178.441,cs),
(51.544,273.813,o),
(114.686,331.23,o),
(197.559,387.675,c),
(179.801,409.085,o),
(164.015,430.495,o),
(148.23,451.905,cs),
(125.538,483.047,o),
(109.753,517.108,o),
(109.753,555.062,cs),
(109.753,633.89,o),
(174.868,720.503,o),
(297.205,720.503,cs),
(426.448,720.503,o),
(496.496,639.729,o),
(496.496,552.142,cs),
(496.496,475.261,o),
(434.341,416.87,o),
(368.24,370.157,c),
(407.703,324.418,o),
(447.167,277.705,o),
(485.644,230.993,c),
(494.523,256.295,o),
(498.47,284.518,o),
(498.47,310.793,cs),
(498.47,323.445,l),
(622.78,323.445,l),
(622.78,310.793,ls),
(622.78,247.537,o),
(607.981,187.199,o),
(569.504,130.755,c),
(678.029,0.349,l),
(524.121,0.349,l)
);
},
{
closed = 1;
nodes = (
(303.125,459.69,o),
(309.044,464.556,o),
(315.95,469.422,cs),
(326.803,478.181,o),
(336.669,485.966,o),
(344.561,494.725,cs),
(361.334,511.269,o),
(372.186,529.759,o),
(372.186,553.116,cs),
(372.186,590.096,o),
(345.548,616.372,o),
(300.165,616.372,cs),
(261.688,616.372,o),
(236.037,587.177,o),
(236.037,554.089,cs),
(236.037,538.518,o),
(240.969,524.893,o),
(250.835,511.269,cs),
(265.634,492.778,o),
(280.433,473.315,o),
(296.219,454.824,c)
);
}
);
width = 685;
},
{
layerId = "4DDF4BC2-1FF7-4978-B26A-B91C0D95F109";
shapes = (
{
closed = 1;
nodes = (
(252.841,298.784,o),
(241.938,290.925,o),
(231.035,283.066,cs),
(219.141,273.242,o),
(207.247,264.401,o),
(198.326,254.577,cs),
(180.485,233.947,o),
(168.59,211.352,o),
(168.59,176.969,cs),
(168.59,123.921,o),
(207.247,85.608,o),
(269.692,85.608,cs),
(324.207,85.608,o),
(372.775,100.344,o),
(413.414,129.815,c),
(363.855,188.758,o),
(313.304,247.701,o),
(264.736,306.643,c)
);
},
{
closed = 1;
nodes = (
(479.824,49.26,l),
(420.352,6.035,o),
(343.04,-14.595,o),
(265.727,-14.595,cs),
(136.872,-14.595,o),
(50.639,69.89,o),
(50.639,175.004,cs),
(50.639,273.242,o),
(118.04,330.22,o),
(198.326,386.216,c),
(180.485,407.828,o),
(163.634,429.441,o),
(146.784,453.018,cs),
(124.978,483.472,o),
(109.119,516.872,o),
(109.119,555.185,cs),
(109.119,642.617,o),
(182.467,718.26,o),
(290.507,718.26,cs),
(405.485,718.26,o),
(483.789,648.511,o),
(483.789,552.238,cs),
(483.789,473.648,o),
(417.379,414.705,o),
(353.943,369.516,c),
(396.564,318.432,o),
(439.185,267.348,o),
(481.806,215.282,c),
(494.692,244.753,o),
(499.648,278.154,o),
(499.648,308.608,cs),
(499.648,317.449,l),
(610.661,317.449,l),
(610.661,308.608,ls),
(610.661,243.771,o),
(594.802,182.863,o),
(556.145,125.886,c),
(661.212,-0.841,l),
(522.445,-0.841,l)
);
},
{
closed = 1;
nodes = (
(296.454,453.018,o),
(305.375,458.912,o),
(313.304,464.806,cs),
(324.207,473.648,o),
(335.11,481.507,o),
(344.031,490.348,cs),
(360.881,508.031,o),
(372.775,528.661,o),
(372.775,553.22,cs),
(372.775,594.48,o),
(342.049,621.005,o),
(293.48,621.005,cs),
(250.859,621.005,o),
(222.115,590.551,o),
(222.115,554.203,cs),
(222.115,537.502,o),
(227.071,522.767,o),
(237.974,509.013,cs),
(253.833,488.383,o),
(270.683,466.771,o),
(288.524,447.124,c)
);
}
);
width = 669;
},
{
layerId = "543DA35F-7ABF-43F9-9722-B424E2B2594A";
shapes = (
{
closed = 1;
nodes = (
(279,434,l),
(299,449,o),
(320,464,qs),
(343,482,o),
(376,527,o),
(376,555,qs),
(376,591,o),
(325,633,o),
(286,633,qs),
(252,633,o),
(204,589,o),
(204,556,qs),
(204,528,o),
(239,483,o),
(264,452,qs)
);
},
{
closed = 1;
nodes = (
(390,301,l),
(478,194,l),
(482,201,o),
(485,208,qs),
(504,252,o),
(504,306,q),
(596,306,l),
(596,213,o),
(552,140,qs),
(546,130,o),
(539,120,q),
(638,0,l),
(522,0,l),
(476,55,l),
(456,39,o),
(433,27,qs),
(357,-14,o),
(258,-14,qs),
(198,-14,o),
(105,33,o),
(51,117,o),
(51,170,qs),
(51,213,o),
(84,281,o),
(139,338,o),
(172,361,qs),
(204,383,l),
(189,401,l),
(165,432,o),
(129,482,o),
(110,531,o),
(110,557,qs),
(110,602,o),
(156,673,o),
(235,714,o),
(283,714,qs),
(336,714,o),
(420,674,o),
(468,602,o),
(468,554,qs),
(468,514,o),
(426,445,o),
(389,413,qs),
(364,391,o),
(333,369,q)
);
},
{
closed = 1;
nodes = (
(315,249,l),
(259,317,l),
(231,297,l),
(210,283,o),
(173,248,o),
(150,204,o),
(150,172,qs),
(150,127,o),
(212,70,o),
(262,70,qs),
(311,70,o),
(355,86,qs),
(391,100,o),
(420,123,q)
);
}
);
width = 645;
},
{
layerId = "E87EDBC8-E77D-435A-ADBF-1646AF857D52";
shapes = (
{
closed = 1;
nodes = (
(486.325,60.529,l),
(424.644,8.399,o),
(346.784,-14.089,o),
(264.88,-14.089,cs),
(156.686,-14.089,o),
(65.681,53.374,o),
(65.681,163.767,cs),
(65.681,261.895,o),
(141.518,323.225,o),
(215.333,373.31,cs),
(218.367,375.355,o),
(222.411,377.399,o),
(225.445,379.443,c),
(206.233,402.953,o),
(181.965,430.551,o),
(162.753,460.194,cs),
(141.518,491.881,o),
(125.34,526.635,o),
(125.34,559.344,cs),
(125.34,649.294,o),
(201.177,709.601,o),
(290.159,709.601,cs),
(384.197,709.601,o),
(467.113,655.427,o),
(467.113,556.277,cs),
(467.113,473.482,o),
(387.231,412.153,o),
(325.55,369.222,c),
(381.164,303.803,o),
(434.755,236.341,o),
(488.347,169.9,c),
(510.593,208.742,o),
(521.716,242.474,o),
(523.738,287.449,c),
(523.738,292.56,l),
(596.542,292.56,l),
(596.542,287.449,l),
(593.508,221.008,o),
(574.296,166.834,o),
(535.872,111.637,c),
(626.876,0.222,l),
(536.883,0.222,l)
);
},
{
closed = 1;
nodes = (
(296.226,428.507,o),
(307.349,436.684,o),
(319.483,445.884,cs),
(332.628,456.105,o),
(344.762,465.305,o),
(355.885,476.549,cs),
(378.13,499.036,o),
(394.309,523.568,o),
(394.309,557.299,cs),
(394.309,613.518,o),
(349.818,647.25,o),
(293.193,647.25,cs),
(240.612,647.25,o),
(200.166,608.407,o),
(200.166,558.322,cs),
(200.166,535.834,o),
(206.233,518.457,o),
(220.389,500.058,cs),
(240.612,472.46,o),
(262.858,445.884,o),
(285.103,419.308,c)
);
},
{
closed = 1;
nodes = (
(267.914,328.335,l),
(251.735,317.092,o),
(235.556,304.826,o),
(219.378,292.56,cs),
(172.864,258.828,o),
(145.563,223.053,o),
(145.563,165.812,cs),
(145.563,96.305,o),
(198.143,51.33,o),
(268.925,51.33,cs),
(335.662,51.33,o),
(393.298,71.773,o),
(442.845,114.704,c),
(440.822,117.77,o),
(438.8,119.814,o),
(436.778,122.881,cs),
(418.577,146.391,o),
(399.365,167.856,o),
(380.153,190.344,cs),
(344.762,233.274,o),
(309.371,277.227,o),
(273.981,320.158,c)
);
}
);
width = 658;
},
{
layerId = "C61358D5-F9AD-4529-B82F-EDAD2AAE1785";
shapes = (
{
closed = 1;
nodes = (
(490.275,63.65,l),
(425.167,9.861,o),
(357.007,-13.931,o),
(266.466,-13.931,cs),
(150.493,-13.931,o),
(71.143,60.547,o),
(71.143,159.852,cs),
(71.143,212.607,o),
(92.506,252.949,o),
(124.043,287.085,cs),
(139.302,304.67,o),
(157.614,320.187,o),
(176.943,335.703,cs),
(195.254,349.151,o),
(215.601,362.598,o),
(234.93,377.08,c),
(193.22,424.663,o),
(131.164,498.107,o),
(131.164,560.172,cs),
(131.164,640.857,o),
(197.289,706.026,o),
(291.899,706.026,cs),
(392.613,706.026,o),
(464.842,646.029,o),
(464.842,557.069,cs),
(464.842,475.35,o),
(384.474,415.353,o),
(320.384,368.805,c),
(377.353,298.464,o),
(435.34,228.123,o),
(492.309,156.748,c),
(515.707,199.16,o),
(527.915,231.227,o),
(530.967,279.844,c),
(530.967,283.982,l),
(594.04,283.982,l),
(594.04,279.844,l),
(590.988,218.814,o),
(571.659,157.783,o),
(533.002,107.096,c),
(619.473,0.551,l),
(541.14,0.551,l)
);
},
{
closed = 1;
nodes = (
(298.003,420.526,o),
(311.228,429.835,o),
(324.453,439.145,cs),
(338.695,450.524,o),
(351.92,460.868,o),
(363.111,473.281,cs),
(386.509,497.073,o),
(401.768,523.968,o),
(401.768,558.104,cs),
(401.768,613.962,o),
(360.059,655.339,o),
(294.951,655.339,cs),
(234.93,655.339,o),
(196.272,609.825,o),
(196.272,559.138,cs),
(196.272,536.381,o),
(203.393,515.692,o),
(217.635,496.038,cs),
(238.999,467.074,o),
(262.397,439.145,o),
(285.795,411.216,c)
);
},
{
closed = 1;
nodes = (
(270.535,333.634,l),
(252.224,321.221,o),
(234.93,307.774,o),
(217.635,295.361,cs),
(167.787,257.087,o),
(141.337,220.882,o),
(141.337,161.92,cs),
(141.337,93.649,o),
(190.168,39.859,o),
(270.535,39.859,cs),
(349.886,39.859,o),
(396.682,64.685,o),
(453.651,109.165,c),
(442.461,121.578,l),
(411.942,158.817,o),
(382.44,196.056,o),
(351.92,232.261,cs),
(327.505,262.259,o),
(302.072,292.257,o),
(278.674,323.29,cs)
);
}
);
width = 656;
}
);
unicode = 38;
},
{
glyphname = quotesingle;
layers = (
{
layerId = "7036C340-131A-4170-91E6-36E4B31F78AD";
shapes = (
{
closed = 1;
nodes = (
(69.303,463.583,l),
(60.423,722.449,l),
(184.734,722.449,l),
(175.854,463.583,l)
);
}
);
width = 245;
},
{
layerId = "4DDF4BC2-1FF7-4978-B26A-B91C0D95F109";
shapes = (
{
closed = 1;
nodes = (
(69.48,466.771,l),
(60.559,720.225,l),
(171.573,720.225,l),
(162.652,466.771,l)
);
}
);
width = 232;
},
{
layerId = "543DA35F-7ABF-43F9-9722-B424E2B2594A";
shapes = (
{
closed = 1;
nodes = (
(69,476,l),
(60,716,l),
(152,716,l),
(143,476,l)
);
}
);
width = 212;
},
{
layerId = "E87EDBC8-E77D-435A-ADBF-1646AF857D52";
shapes = (
{
closed = 1;
nodes = (
(82.871,486.77,l),
(75.793,711.646,l),
(146.574,711.646,l),
(139.496,486.77,l)
);
}
);
width = 221;
},
{
layerId = "C61358D5-F9AD-4529-B82F-EDAD2AAE1785";
shapes = (
{
closed = 1;
nodes = (
(88.437,492.935,l),
(81.316,708.095,l),
(142.354,708.095,l),
(135.233,492.935,l)
);
}
);
width = 222;
}
);
leftKerningGroup = exclam;
unicode = 39;
},
{
glyphname = parenleft;
layers = (
{
layerId = "7036C340-131A-4170-91E6-36E4B31F78AD";
shapes = (
{
closed = 1;
nodes = (
(225.184,-96.969,l),
(220.251,-91.13,l),
(116.659,45.115,o),
(54.504,194.985,o),
(54.504,353.613,cs),
(54.504,512.242,o),
(116.659,662.112,o),
(220.251,798.357,c),
(225.184,804.196,l),
(358.374,804.196,l),
(344.561,785.706,ls),
(247.876,652.38,o),
(182.761,505.43,o),
(182.761,353.613,cs),
(182.761,200.824,o),
(247.876,56.793,o),
(344.561,-78.479,cs),
(358.374,-96.969,l)
);
}
);
width = 403;
},
{
layerId = "4DDF4BC2-1FF7-4978-B26A-B91C0D95F109";
shapes = (
{
closed = 1;
nodes = (
(223.106,-99.079,l),
(220.132,-95.15,ls),
(118.04,39.436,o),
(53.612,190.723,o),
(53.612,351.833,cs),
(53.612,512.943,o),
(117.048,664.229,o),
(220.132,798.815,cs),
(223.106,802.745,l),
(341.057,802.745,l),
(332.137,789.974,ls),
(235.991,657.353,o),
(168.59,508.031,o),
(168.59,351.833,cs),
(168.59,194.652,o),
(235.991,48.278,o),
(332.137,-86.308,cs),
(341.057,-99.079,l)
);
}
);
width = 386;
},
{
layerId = "543DA35F-7ABF-43F9-9722-B424E2B2594A";
shapes = (
{
closed = 1;
nodes = (
(220,-100,l),
(174,-39,o),
(98,104,o),
(54,264,o),
(54,350,qs),
(54,437,o),
(98,596,o),
(174,739,o),
(220,800,q),
(316,800,l),
(270,736,o),
(194,590,o),
(150,433,o),
(150,350,qs),
(150,268,o),
(194,110,o),
(270,-35,o),
(316,-100,q)
);
}
);
width = 360;
},
{
layerId = "E87EDBC8-E77D-435A-ADBF-1646AF857D52";
shapes = (
{
closed = 1;
nodes = (
(230.501,-99.95,l),
(133.429,31.909,o),
(68.714,184.211,o),
(68.714,347.756,cs),
(68.714,511.302,o),
(133.429,663.604,o),
(230.501,795.463,c),
(231.512,797.507,l),
(303.304,797.507,l),
(298.248,789.33,l),
(209.266,657.471,o),
(145.563,507.214,o),
(145.563,347.756,cs),
(145.563,188.299,o),
(210.277,38.042,o),
(298.248,-93.817,c),
(303.304,-101.995,l),
(231.512,-101.995,l)
);
}
);
width = 373;
},
{
layerId = "C61358D5-F9AD-4529-B82F-EDAD2AAE1785";
shapes = (
{
closed = 1;
nodes = (
(233.912,-100.822,l),
(135.233,33.652,o),
(74.194,184.678,o),
(74.194,346.047,cs),
(74.194,507.417,o),
(135.233,658.442,o),
(233.912,792.917,c),
(234.93,794.986,l),
(294.951,794.986,l),
(290.882,788.779,ls),
(201.358,654.305,o),
(141.337,502.245,o),
(141.337,346.047,cs),
(141.337,188.815,o),
(201.358,38.824,o),
(290.882,-96.685,cs),
(294.951,-102.891,l),
(234.93,-102.891,l)
);
}
);
width = 372;
}
);
unicode = 40;
},
{
glyphname = parenright;
layers = (
{
layerId = "7036C340-131A-4170-91E6-36E4B31F78AD";
shapes = (
{
closed = 1;
nodes = (
(44.799,-96.969,l),
(58.611,-78.479,ls),
(155.297,53.874,o),
(220.412,201.797,o),
(220.412,353.613,cs),
(220.412,504.456,o),
(156.284,654.326,o),
(58.611,785.706,cs),
(44.799,804.196,l),
(177.989,804.196,l),
(182.922,798.357,l),
(287.5,664.058,o),
(348.669,510.296,o),
(348.669,353.613,cs),
(348.669,196.931,o),
(286.514,43.169,o),
(182.922,-91.13,c),
(177.989,-96.969,l)
);
}
);
width = 403;
},
{
layerId = "4DDF4BC2-1FF7-4978-B26A-B91C0D95F109";
shapes = (
{
closed = 1;
nodes = (
(43.771,-99.079,l),
(52.692,-86.308,ls),
(149.828,46.313,o),
(216.238,196.617,o),
(216.238,351.833,cs),
(216.238,506.066,o),
(149.828,658.335,o),
(53.683,788.991,cs),
(43.771,802.745,l),
(161.722,802.745,l),
(164.696,798.815,ls),
(267.78,666.194,o),
(331.216,510.978,o),
(331.216,351.833,cs),
(331.216,192.687,o),
(267.78,37.471,o),
(164.696,-95.15,cs),
(161.722,-99.079,l)
);
}
);
width = 386;
},
{
layerId = "543DA35F-7ABF-43F9-9722-B424E2B2594A";
shapes = (
{
closed = 1;
nodes = (
(44,-100,l),
(91,-35,o),
(166,110,o),
(210,268,o),
(210,350,qs),
(210,433,o),
(166,590,o),
(91,736,o),
(44,800,q),
(140,800,l),
(187,739,o),
(262,596,o),
(306,437,o),
(306,350,qs),
(306,264,o),
(262,104,o),
(187,-39,o),
(140,-100,q)
);
}
);
width = 360;
},
{
layerId = "E87EDBC8-E77D-435A-ADBF-1646AF857D52";
shapes = (
{
closed = 1;
nodes = (
(72.714,-101.995,l),
(77.77,-93.817,l),
(166.753,37.019,o),
(230.456,189.321,o),
(230.456,347.756,cs),
(230.456,506.191,o),
(167.764,658.493,o),
(77.77,789.33,c),
(72.714,797.507,l),
(145.518,797.507,l),
(146.529,795.463,l),
(243.601,665.649,o),
(307.304,509.258,o),
(307.304,347.756,cs),
(307.304,186.255,o),
(243.601,29.864,o),
(146.529,-99.95,c),
(145.518,-101.995,l)
);
}
);
width = 373;
},
{
layerId = "C61358D5-F9AD-4529-B82F-EDAD2AAE1785";
shapes = (
{
closed = 1;
nodes = (
(82.281,-102.891,l),
(86.35,-96.685,ls),
(175.874,37.79,o),
(235.895,189.85,o),
(235.895,346.047,cs),
(235.895,502.245,o),
(175.874,654.305,o),
(87.368,788.779,cs),
(83.298,794.986,l),
(142.302,794.986,l),
(143.32,792.917,l),
(241.999,660.511,o),
(303.037,505.348,o),
(303.037,346.047,cs),
(303.037,186.746,o),
(241.999,31.583,o),
(143.32,-100.822,c),
(142.302,-102.891,l)
);
}
);
width = 372;
}
);
unicode = 41;
},
{
glyphname = plus;
layers = (
{
layerId = "7036C340-131A-4170-91E6-36E4B31F78AD";
shapes = (
{
closed = 1;
nodes = (
(85.088,250.456,l),
(85.088,354.587,l),
(270.567,354.587,l),
(270.567,537.545,l),
(384.025,537.545,l),
(384.025,354.587,l),
(568.518,354.587,l),
(568.518,250.456,l),
(384.025,250.456,l),
(384.025,68.471,l),
(270.567,68.471,l),
(270.567,250.456,l)
);
}
);
width = 654;
},
{
layerId = "4DDF4BC2-1FF7-4978-B26A-B91C0D95F109";
shapes = (
{
closed = 1;
nodes = (
(85.339,251.63,l),
(85.339,348.886,l),
(271.683,348.886,l),
(271.683,533.573,l),
(371.793,533.573,l),
(371.793,348.886,l),
(557.145,348.886,l),
(557.145,251.63,l),
(371.793,251.63,l),
(371.793,67.925,l),
(271.683,67.925,l),
(271.683,251.63,l)
);
}
);
width = 642;
},
{
layerId = "543DA35F-7ABF-43F9-9722-B424E2B2594A";
shapes = (
{
closed = 1;
nodes = (
(273,257,l),
(85,257,l),
(85,338,l),
(273,338,l),
(273,526,l),
(354,526,l),
(354,338,l),
(541,338,l),
(541,257,l),
(354,257,l),
(354,70,l),
(273,70,l)
);
}
);
width = 626;
},
{
layerId = "E87EDBC8-E77D-435A-ADBF-1646AF857D52";
shapes = (
{
closed = 1;
nodes = (
(291.159,71.773,l),
(291.159,262.917,l),
(101.06,262.917,l),
(101.06,325.269,l),
(291.159,325.269,l),
(291.159,517.435,l),
(352.84,517.435,l),
(352.84,325.269,l),
(541.928,325.269,l),
(541.928,262.917,l),
(352.84,262.917,l),
(352.84,71.773,l)
);
}
);
width = 634;
},
{
layerId = "C61358D5-F9AD-4529-B82F-EDAD2AAE1785";
shapes = (
{
closed = 1;
nodes = (
(295.985,72.96,l),
(295.985,266.397,l),
(104.731,266.397,l),
(104.731,317.083,l),
(295.985,317.083,l),
(295.985,511.555,l),
(347.868,511.555,l),
(347.868,317.083,l),
(538.105,317.083,l),
(538.105,266.397,l),
(347.868,266.397,l),
(347.868,72.96,l)
);
}
);
width = 634;
}
);
unicode = 43;
},
{
glyphname = comma;
layers = (
{
layerId = "D017261F-52B8-49CC-A643-11FE4140B5DB";
name = "#instance";
shapes = (
{
closed = 1;
nodes = (
(62.987,-118.408,l),
(112.835,73.995,l),
(184.047,73.995,l),
(110.8,-118.408,l)
);
}
);
width = 248;
},
{
layerId = "7036C340-131A-4170-91E6-36E4B31F78AD";
shapes = (
{
closed = 1;
nodes = (
(36.785,-111.567,l),
(100.914,125.889,l),
(239.037,125.889,l),
(146.297,-111.567,l)
);
}
);
width = 277;
},
{
layerId = "4DDF4BC2-1FF7-4978-B26A-B91C0D95F109";
shapes = (
{
closed = 1;
nodes = (
(36.789,-113.815,l),
(99.233,118.026,l),
(223.132,118.026,l),
(132.934,-113.815,l)
);
}
);
width = 261;
},
{
layerId = "543DA35F-7ABF-43F9-9722-B424E2B2594A";
shapes = (
{
closed = 1;
nodes = (
(37,-115,l),
(95,103,l),
(198,103,l),
(114,-115,l)
);
}
);
width = 235;
},
{
layerId = "E87EDBC8-E77D-435A-ADBF-1646AF857D52";
shapes = (
{
closed = 1;
nodes = (
(56.569,-117.327,l),
(109.15,85.061,l),
(190.043,85.061,l),
(113.194,-117.327,l)
);
}
);
width = 248;
},
{
layerId = "C61358D5-F9AD-4529-B82F-EDAD2AAE1785";
shapes = (
{
closed = 1;
nodes = (
(62.987,-118.408,l),
(112.835,73.995,l),
(184.047,73.995,l),
(110.8,-118.408,l)
);
}
);
width = 248;
}
);
unicode = 44;
},
{
glyphname = hyphen;
layers = (
{
layerId = "7036C340-131A-4170-91E6-36E4B31F78AD";
shapes = (
{
closed = 1;
nodes = (
(57.464,249.483,l),
(57.464,355.56,l),
(386.985,355.56,l),
(386.985,249.483,l)
);
}
);
width = 444;
},
{
layerId = "4DDF4BC2-1FF7-4978-B26A-B91C0D95F109";
shapes = (
{
closed = 1;
nodes = (
(57.586,250.648,l),
(57.586,349.868,l),
(374.767,349.868,l),
(374.767,250.648,l)
);
}
);
width = 432;
},
{
layerId = "543DA35F-7ABF-43F9-9722-B424E2B2594A";
shapes = (
{
closed = 1;
nodes = (
(57,256,l),
(57,339,l),
(357,339,l),
(357,256,l)
);
}
);
width = 414;
},
{
layerId = "E87EDBC8-E77D-435A-ADBF-1646AF857D52";
shapes = (
{
closed = 1;
nodes = (
(71.748,261.895,l),
(71.748,326.291,l),
(354.874,326.291,l),
(354.874,261.895,l)
);
}
);
width = 423;
},
{
layerId = "C61358D5-F9AD-4529-B82F-EDAD2AAE1785";
shapes = (
{
closed = 1;
nodes = (
(81.316,265.362,l),
(81.316,318.118,l),
(347.851,318.118,l),
(347.851,265.362,l)
);
}
);
width = 423;
}
);
unicode = 45;
},
{
glyphname = period;
layers = (
{
layerId = "7036C340-131A-4170-91E6-36E4B31F78AD";
shapes = (
{
closed = 1;
nodes = (
(47.598,87.935,o),
(70.289,132.701,o),
(125.538,132.701,cs),
(180.787,132.701,o),
(204.466,88.908,o),
(204.466,59.713,cs),
(204.466,30.517,o),
(180.787,-13.276,o),
(125.538,-13.276,cs),
(70.289,-13.276,o),
(47.598,31.49,o),
(47.598,59.713,cs)
);
}
);
width = 252;
},
{
layerId = "4DDF4BC2-1FF7-4978-B26A-B91C0D95F109";
shapes = (
{
closed = 1;
nodes = (
(46.674,86.59,o),
(72.445,124.903,o),
(118.04,124.903,cs),
(164.626,124.903,o),
(190.397,87.573,o),
(190.397,55.154,cs),
(190.397,22.736,o),
(164.626,-14.595,o),
(118.04,-14.595,cs),
(72.445,-14.595,o),
(46.674,23.718,o),
(46.674,55.154,cs)
);
}
);
width = 238;
},
{
layerId = "543DA35F-7ABF-43F9-9722-B424E2B2594A";
shapes = (
{
closed = 1;
nodes = (
(84,-14,o),
(47,22,o),
(47,48,qs),
(47,74,o),
(84,110,o),
(109,110,qs),
(135,110,o),
(172,74,o),
(172,48,qs),
(172,22,o),
(135,-14,o),
(109,-14,qs)
);
}
);
width = 219;
},
{
layerId = "E87EDBC8-E77D-435A-ADBF-1646AF857D52";
shapes = (
{
closed = 1;
nodes = (
(84.882,-14.089,o),
(62.636,11.465,o),
(62.636,39.064,cs),
(62.636,66.662,o),
(84.882,92.216,o),
(115.217,92.216,cs),
(145.552,92.216,o),
(168.808,67.684,o),
(168.808,39.064,cs),
(168.808,10.443,o),
(145.552,-14.089,o),
(115.217,-14.089,cs)
);
}
);
width = 230;
},
{
layerId = "C61358D5-F9AD-4529-B82F-EDAD2AAE1785";
shapes = (
{
closed = 1;
nodes = (
(67.073,56.409,o),
(85.385,81.236,o),
(114.887,81.236,cs),
(145.406,81.236,o),
(163.718,57.444,o),
(163.718,33.652,cs),
(163.718,9.861,o),
(145.406,-13.931,o),
(114.887,-13.931,cs),
(85.385,-13.931,o),
(67.073,10.895,o),
(67.073,33.652,cs)
);
}
);
width = 229;
}
);
unicode = 46;
},
{
glyphname = slash;
layers = (
{
layerId = "7036C340-131A-4170-91E6-36E4B31F78AD";
shapes = (
{
closed = 1;
nodes = (
(15.094,-81.399,l),
(296.272,752.618,l),
(424.529,752.618,l),
(145.324,-81.399,l)
);
}
);
width = 440;
},
{
layerId = "4DDF4BC2-1FF7-4978-B26A-B91C0D95F109";
shapes = (
{
closed = 1;
nodes = (
(14.982,-83.361,l),
(293.507,750.679,l),
(408.485,750.679,l),
(131.943,-83.361,l)
);
}
);
width = 424;
},
{
layerId = "543DA35F-7ABF-43F9-9722-B424E2B2594A";
shapes = (
{
closed = 1;
nodes = (
(15,-84,l),
(291,747,l),
(386,747,l),
(112,-84,l)
);
}
);
width = 401;
},
{
layerId = "E87EDBC8-E77D-435A-ADBF-1646AF857D52";
shapes = (
{
closed = 1;
nodes = (
(36.324,-85.64,l),
(308.327,743.333,l),
(383.153,743.333,l),
(113.172,-85.64,l)
);
}
);
width = 414;
},
{
layerId = "C61358D5-F9AD-4529-B82F-EDAD2AAE1785";
shapes = (
{
closed = 1;
nodes = (
(43.64,-86.341,l),
(312.211,740.162,l),
(376.301,740.162,l),
(109.766,-86.341,l)
);
}
);
width = 412;
}
);
unicode = 47;
},
{
glyphname = zero;
layers = (
{
layerId = "7036C340-131A-4170-91E6-36E4B31F78AD";
shapes = (
{
closed = 1;
nodes = (
(523.134,602.748,o),
(518.201,610.533,o),
(513.268,617.346,cs),
(503.403,632.916,o),
(490.577,647.514,o),
(468.872,663.085,cs),
(458.019,670.87,o),
(447.167,678.656,o),
(435.328,686.441,cs),
(415.596,700.066,o),
(369.226,709.798,o),
(347.521,711.744,cs),
(340.615,712.717,o),
(331.736,714.664,o),
(323.843,715.637,cs),
(314.964,716.61,o),
(305.098,717.583,o),
(297.205,717.583,cs),
(273.527,717.583,o),
(182.761,701.039,o),
(161.056,686.441,cs),
(139.351,672.817,o),
(84.102,627.077,o),
(73.249,602.748,cs),
(57.464,569.66,o),
(42.665,520.027,o),
(42.665,483.047,cs),
(43.651,225.153,l),
(43.651,184.28,o),
(54.504,142.433,o),
(74.236,104.479,cs),
(91.008,73.337,o),
(130.471,41.222,o),
(164.015,21.759,cs),
(197.559,1.322,o),
(258.728,-9.383,o),
(298.192,-9.383,cs),
(380.079,-9.383,o),
(439.274,14.946,o),
(490.577,61.659,cs),
(502.416,73.337,o),
(517.215,89.881,o),
(525.108,105.452,cs),
(544.839,146.326,o),
(552.732,181.36,o),
(552.732,225.153,cs),
(553.719,483.047,l),
(553.719,485.966,l),
(553.719,513.215,o),
(548.786,540.464,o),
(537.933,565.767,cs),
(533.987,576.472,o),
(530.041,585.231,o),
(527.081,593.989,cs)
);
},
{
closed = 1;
nodes = (
(232.09,116.157,o),
(230.117,118.104,o),
(225.184,121.996,cs),
(221.238,124.916,o),
(216.305,129.782,o),
(211.372,134.648,cs),
(202.492,144.379,o),
(194.6,154.111,o),
(190.653,158.977,cs),
(186.707,163.843,o),
(182.761,176.494,o),
(179.801,190.119,cs),
(176.841,203.744,o),
(173.881,217.368,o),
(172.895,226.127,c),
(172.895,483.047,ls),
(172.895,493.752,o),
(182.761,540.464,o),
(188.68,548.25,cs),
(192.627,553.116,o),
(200.519,563.821,o),
(210.385,573.552,cs),
(214.332,578.418,o),
(219.264,582.311,o),
(224.197,586.204,cs),
(229.13,590.096,o),
(231.104,592.043,o),
(232.09,593.016,c),
(252.809,601.775,o),
(279.446,608.587,o),
(300.165,608.587,cs),
(314.964,608.587,o),
(328.776,605.667,o),
(341.602,600.801,cs),
(349.494,597.882,o),
(356.401,595.936,o),
(364.293,592.043,cs),
(370.213,590.096,o),
(378.106,583.284,o),
(386.985,573.552,cs),
(395.864,564.794,o),
(402.77,554.089,o),
(407.703,548.25,cs),
(412.636,542.411,o),
(415.596,530.732,o),
(418.556,517.108,cs),
(420.529,504.456,o),
(422.502,491.805,o),
(423.489,482.073,c),
(422.502,225.153,ls),
(422.502,207.636,o),
(418.556,172.602,o),
(408.69,159.95,cs),
(403.757,153.138,o),
(398.824,147.299,o),
(393.891,140.487,cs),
(386.985,131.728,o),
(373.173,119.077,o),
(366.266,116.157,cs),
(358.374,113.238,o),
(350.481,110.318,o),
(343.575,107.399,cs),
(329.763,102.533,o),
(315.95,99.613,o),
(302.138,99.613,cs),
(280.433,99.613,o),
(253.795,106.425,o),
(233.077,115.184,c)
);
}
);
width = 596;
},
{
layerId = "4DDF4BC2-1FF7-4978-B26A-B91C0D95F109";
shapes = (
{
closed = 1;
nodes = (
(307.357,714.331,o),
(298.436,715.313,o),
(290.507,715.313,cs),
(267.709,715.313,o),
(179.493,697.63,o),
(158.678,684.859,cs),
(137.863,671.106,o),
(83.348,625.917,o),
(72.445,602.339,cs),
(56.586,568.939,o),
(41.718,519.82,o),
(41.718,482.489,cs),
(42.709,222.159,l),
(42.709,181.881,o),
(53.612,138.656,o),
(73.436,102.308,cs),
(81.366,86.59,o),
(94.251,71.855,o),
(107.137,60.066,cs),
(135.881,32.559,o),
(171.564,9.965,o),
(215.176,-0.841,c),
(238.965,-5.753,o),
(266.718,-10.665,o),
(291.498,-10.665,cs),
(367.819,-10.665,o),
(427.291,11.93,o),
(478.833,60.066,cs),
(489.736,69.89,o),
(505.595,87.573,o),
(512.533,102.308,cs),
(533.348,144.551,o),
(540.286,176.969,o),
(540.286,222.159,cs),
(541.278,482.489,l),
(541.278,485.436,l),
(541.278,512.943,o),
(536.322,539.467,o),
(525.419,565.009,cs),
(521.454,575.815,o),
(517.489,585.639,o),
(514.516,593.498,cs),
(510.551,602.339,o),
(505.595,610.198,o),
(501.63,617.075,cs),
(491.718,632.793,o),
(478.833,645.564,o),
(458.018,660.3,cs),
(446.123,669.141,o),
(436.212,677.,o),
(424.317,684.859,cs),
(405.485,697.63,o),
(361.872,706.472,o),
(340.066,709.419,cs),
(332.137,710.401,o),
(324.207,711.384,o),
(316.278,712.366,cs)
);
},
{
closed = 1;
nodes = (
(211.211,112.132,o),
(185.441,141.604,o),
(177.511,153.392,cs),
(173.546,159.286,o),
(168.59,172.057,o),
(165.617,186.793,cs),
(162.643,200.546,o),
(159.67,214.3,o),
(158.678,223.141,c),
(158.678,482.489,ls),
(158.678,493.295,o),
(168.59,541.432,o),
(175.529,550.273,cs),
(183.458,561.079,o),
(210.22,592.516,o),
(222.115,596.445,c),
(242.93,606.269,o),
(270.683,613.146,o),
(293.48,613.146,cs),
(309.339,613.146,o),
(324.207,611.181,o),
(338.084,605.287,cs),
(346.013,602.339,o),
(353.943,599.392,o),
(361.872,596.445,cs),
(368.811,593.498,o),
(377.731,586.621,o),
(386.652,576.798,cs),
(394.582,566.974,o),
(402.511,557.15,o),
(408.458,549.291,cs),
(412.423,543.397,o),
(416.388,531.608,o),
(419.361,517.855,cs),
(421.344,505.084,o),
(423.326,491.331,o),
(424.317,482.489,c),
(423.326,222.159,ls),
(423.326,203.493,o),
(419.361,168.128,o),
(409.449,154.375,cs),
(404.493,147.498,o),
(399.538,141.604,o),
(394.582,134.727,cs),
(386.652,125.886,o),
(372.775,111.15,o),
(363.855,108.203,cs),
(355.925,105.256,o),
(347.996,102.308,o),
(340.066,99.361,cs),
(326.189,93.467,o),
(310.33,91.502,o),
(295.463,91.502,cs),
(271.674,91.502,o),
(244.912,98.379,o),
(223.106,108.203,c)
);
}
);
width = 584;
},
{
layerId = "543DA35F-7ABF-43F9-9722-B424E2B2594A";
shapes = (
{
closed = 1;
nodes = (
(43,218,l),
(43,215,ls),
(43,186,o),
(57,135,o),
(73,99,o),
(73,99,q),
(87,76,o),
(124,41,o),
(158,19,o),
(158,19,q),
(182,6,o),
(238,-7,o),
(284,-10,o),
(284,-10,q),
(287,-10,l),
(287,-10,o),
(333,-7,o),
(389,6,o),
(413,19,q),
(413,19,o),
(447,41,o),
(484,76,o),
(498,99,q),
(498,99,o),
(514,135,o),
(526,186,o),
(525,215,q),
(525,218,l),
(427,218,l),
(427,218,o),
(423,165,o),
(411,144,q),
(411,144,o),
(381,105,o),
(361,94,q),
(361,94,o),
(313,76,o),
(288,76,qs),
(283,76,ls),
(258,76,o),
(210,94,o),
(210,94,q),
(190,105,o),
(160,144,o),
(160,144,q),
(148,165,o),
(140,218,o),
(140,218,q)
);
},
{
closed = 1;
nodes = (
(427,218,l),
(525,218,l),
(526,483,l),
(428,483,l)
);
},
{
closed = 1;
nodes = (
(140,218,l),
(43,218,l),
(42,483,l),
(42,486,ls),
(42,527,o),
(72,602,o),
(72,602,q),
(91,634,o),
(156,682,o),
(156,682,q),
(191,700,o),
(283,711,o),
(283,711,q),
(285,711,l),
(285,711,o),
(378,700,o),
(412,682,q),
(412,682,o),
(478,634,o),
(496,602,q),
(496,602,o),
(526,527,o),
(526,486,qs),
(526,483,l),
(428,483,l),
(428,483,o),
(421,536,o),
(410,556,q),
(410,556,o),
(379,596,o),
(359,607,q),
(359,607,o),
(312,625,o),
(286,625,qs),
(282,625,ls),
(256,625,o),
(209,607,o),
(209,607,q),
(189,596,o),
(158,556,o),
(158,556,q),
(147,536,o),
(140,483,o),
(140,483,q)
);
}
);
width = 568;
},
{
layerId = "E87EDBC8-E77D-435A-ADBF-1646AF857D52";
shapes = (
{
closed = 1;
nodes = (
(145.823,201.411,o),
(144.816,207.482,o),
(144.816,213.553,cs),
(144.816,483.709,ls),
(144.816,498.886,o),
(156.889,549.477,o),
(163.931,562.631,c),
(171.98,574.772,o),
(205.179,608.162,o),
(217.252,615.245,c),
(238.379,625.363,o),
(272.585,632.446,o),
(296.73,632.446,cs),
(365.141,632.446,o),
(425.504,587.926,o),
(438.582,523.17,cs),
(439.588,517.099,o),
(441.601,511.028,o),
(442.607,503.945,cs),
(443.613,497.874,o),
(444.619,491.803,o),
(444.619,485.732,cs),
(444.619,395.68,o),
(443.613,305.629,o),
(443.613,215.577,cs),
(443.613,192.305,o),
(439.588,155.879,o),
(426.51,137.667,cs),
(401.359,101.241,o),
(391.298,90.111,o),
(349.044,74.934,cs),
(332.947,69.875,o),
(315.845,66.839,o),
(298.742,66.839,cs),
(273.591,66.839,o),
(241.397,72.91,o),
(218.258,84.04,cs),
(203.167,92.135,o),
(176.004,121.477,o),
(165.943,137.667,cs),
(161.919,143.737,o),
(159.907,148.797,o),
(157.895,154.867,cs),
(155.883,161.95,o),
(154.877,168.021,o),
(152.865,175.104,cs),
(150.853,181.175,o),
(148.841,188.257,o),
(147.835,194.328,cs)
);
},
{
closed = 1;
nodes = (
(168.962,12.201,o),
(226.306,-10.059,o),
(294.718,-10.059,cs),
(366.147,-10.059,o),
(422.486,10.177,o),
(472.788,58.745,cs),
(484.861,69.875,o),
(496.933,82.016,o),
(503.976,97.194,c),
(525.103,137.667,o),
(532.145,171.057,o),
(532.145,215.577,cs),
(533.151,483.709,ls),
(533.151,525.193,o),
(520.072,564.654,o),
(503.976,602.092,c),
(495.927,618.281,o),
(481.842,633.458,o),
(465.746,646.612,cs),
(450.655,659.765,o),
(433.552,670.895,o),
(420.474,681.013,cs),
(398.341,697.203,o),
(320.875,709.344,o),
(293.712,709.344,cs),
(270.572,709.344,o),
(187.07,692.143,o),
(167.956,680.002,cs),
(148.841,667.86,o),
(97.532,622.328,o),
(87.472,602.092,cs),
(71.375,572.749,o),
(56.284,517.099,o),
(56.284,483.709,cs),
(57.29,215.577,ls),
(57.29,175.104,o),
(67.351,133.619,o),
(87.472,98.206,c),
(95.52,82.016,o),
(106.587,70.886,o),
(119.665,58.745,cs)
);
}
);
width = 584;
},
{
layerId = "C61358D5-F9AD-4529-B82F-EDAD2AAE1785";
shapes = (
{
closed = 1;
nodes = (
(142.354,150.542,o),
(141.337,158.817,o),
(139.302,166.058,cs),
(137.268,172.265,o),
(135.233,179.506,o),
(134.216,186.746,cs),
(132.181,193.987,o),
(131.164,201.228,o),
(131.164,206.4,cs),
(131.164,483.625,ls),
(131.164,502.245,o),
(142.354,552.931,o),
(152.527,568.448,cs),
(164.735,586.033,o),
(192.202,618.1,o),
(210.514,626.375,cs),
(235.947,637.754,o),
(266.466,647.064,o),
(294.951,647.064,cs),
(314.28,647.064,o),
(333.609,643.96,o),
(350.903,636.719,cs),
(394.647,620.169,o),
(407.872,604.652,o),
(433.305,569.482,cs),
(442.461,556.035,o),
(445.513,541.553,o),
(448.565,525.002,cs),
(449.582,518.796,o),
(451.617,512.589,o),
(452.634,505.348,cs),
(453.651,499.142,o),
(454.669,492.935,o),
(454.669,486.728,cs),
(454.669,394.665,o),
(453.651,301.567,o),
(453.651,209.504,cs),
(453.651,182.609,o),
(449.582,144.335,o),
(434.322,122.612,cs),
(420.08,102.958,o),
(397.699,73.995,o),
(376.336,65.719,cs),
(368.197,62.616,o),
(360.059,59.513,o),
(351.92,56.409,cs),
(335.643,50.203,o),
(315.297,46.065,o),
(296.985,46.065,cs),
(268.501,46.065,o),
(237.981,55.375,o),
(211.531,66.754,cs),
(192.202,75.029,o),
(167.787,106.062,o),
(154.562,123.647,cs),
(150.493,129.853,o),
(147.441,137.094,o),
(145.406,144.335,c)
);
},
{
closed = 1;
nodes = (
(166.77,12.964,o),
(225.774,-9.793,o),
(292.916,-9.793,cs),
(363.111,-9.793,o),
(420.08,10.895,o),
(467.894,56.409,cs),
(478.067,66.754,o),
(490.275,80.201,o),
(497.396,93.649,c),
(515.707,135.025,o),
(522.828,166.058,o),
(522.828,209.504,cs),
(523.846,483.625,ls),
(523.846,523.968,o),
(510.621,563.276,o),
(495.361,600.515,c),
(483.153,625.341,o),
(438.392,659.477,o),
(414.994,676.027,cs),
(393.63,691.544,o),
(318.349,702.922,o),
(291.899,702.922,cs),
(270.535,702.922,o),
(188.133,686.372,o),
(170.839,674.993,cs),
(152.527,663.614,o),
(99.627,618.1,o),
(90.471,600.515,cs),
(76.229,570.517,o),
(61.987,515.692,o),
(61.987,483.625,cs),
(63.004,209.504,ls),
(63.004,170.196,o),
(73.177,129.853,o),
(92.506,93.649,cs),
(99.627,80.201,o),
(109.8,67.788,o),
(120.991,56.409,cs)
);
}
);
width = 576;
}
);
unicode = 48;
},
{
glyphname = one;
layers = (
{
layerId = "D017261F-52B8-49CC-A643-11FE4140B5DB";
name = "#instance";
shapes = (
{
closed = 1;
nodes = (
(238.999,0.551,l),
(238.999,623.272,l),
(88.437,527.071,l),
(88.437,597.411,l),
(236.964,691.544,l),
(306.141,691.544,l),
(306.141,0.551,l)
);
}
);
width = 425;
},
{
layerId = "7036C340-131A-4170-91E6-36E4B31F78AD";
shapes = (
{
closed = 1;
nodes = (
(214.332,0.349,l),
(214.332,559.928,l),
(68.316,469.422,l),
(68.316,604.694,l),
(234.063,706.878,l),
(342.588,706.878,l),
(342.588,0.349,l)
);
}
);
width = 447;
},
{
layerId = "4DDF4BC2-1FF7-4978-B26A-B91C0D95F109";
shapes = (
{
closed = 1;
nodes = (
(215.185,-0.841,l),
(215.185,570.903,l),
(68.489,479.542,l),
(68.489,603.322,l),
(231.044,704.507,l),
(330.163,704.507,l),
(330.163,-0.841,l)
);
}
);
width = 434;
},
{
layerId = "543DA35F-7ABF-43F9-9722-B424E2B2594A";
shapes = (
{
closed = 1;
nodes = (
(68,497,l),
(68,602,l),
(225,700,l),
(312,700,l),
(312,0,l),
(216,0,l),
(216,590,l)
);
}
);
width = 416;
},
{
layerId = "E87EDBC8-E77D-435A-ADBF-1646AF857D52";
shapes = (
{
closed = 1;
nodes = (
(232.523,0.222,l),
(232.523,611.474,l),
(82.871,516.413,l),
(82.871,600.23,l),
(234.545,695.291,l),
(309.371,695.291,l),
(309.371,0.222,l)
);
}
);
width = 425;
},
{
layerId = "C61358D5-F9AD-4529-B82F-EDAD2AAE1785";
shapes = (
{
closed = 1;
nodes = (
(238.999,0.551,l),
(238.999,623.272,l),
(88.437,527.071,l),
(88.437,597.411,l),
(236.964,691.544,l),
(306.141,691.544,l),
(306.141,0.551,l)
);
}
);
width = 425;
}
);
leftKerningGroup = one;
unicode = 49;
},
{
glyphname = two;
layers = (
{
layerId = "7036C340-131A-4170-91E6-36E4B31F78AD";
shapes = (
{
closed = 1;
nodes = (
(58.477,0.349,l),
(58.477,89.881,ls),
(58.477,113.238,o),
(64.397,135.621,o),
(73.276,157.031,cs),
(94.981,205.69,o),
(135.431,250.456,o),
(183.774,285.491,cs),
(316.964,382.809,ls),
(361.36,414.924,o),
(396.878,460.663,o),
(396.878,505.43,cs),
(396.878,559.928,o),
(356.427,605.667,o),
(285.393,605.667,cs),
(221.264,605.667,o),
(177.854,563.821,o),
(163.056,514.188,cs),
(159.109,501.537,l),
(26.906,525.866,l),
(29.866,537.545,ls),
(52.557,629.997,o),
(143.324,718.556,o),
(281.446,718.556,cs),
(446.207,718.556,o),
(530.067,617.346,o),
(530.067,505.43,cs),
(530.067,423.682,o),
(478.765,354.587,o),
(404.77,300.088,cs),
(281.446,208.609,ls),
(243.956,180.387,o),
(215.345,148.272,o),
(205.479,111.291,c),
(538.947,111.291,l),
(538.947,0.349,l)
);
}
);
width = 595;
},
{
layerId = "4DDF4BC2-1FF7-4978-B26A-B91C0D95F109";
shapes = (
{
closed = 1;
nodes = (
(57.595,-0.841,l),
(57.595,85.608,ls),
(57.595,108.203,o),
(63.542,130.797,o),
(72.463,151.427,cs),
(83.366,175.987,o),
(98.233,198.582,o),
(115.084,219.212,cs),
(134.908,241.806,o),
(156.714,262.436,o),
(181.493,280.119,cs),
(315.304,378.357,ls),
(358.916,410.775,o),
(397.573,456.947,o),
(397.573,505.084,cs),
(397.573,565.009,o),
(350.987,610.198,o),
(278.63,610.198,cs),
(212.22,610.198,o),
(164.643,568.939,o),
(148.784,514.908,c),
(145.811,507.049,l),
(26.868,528.661,l),
(28.85,537.502,ls),
(53.63,637.705,o),
(149.775,716.295,o),
(274.665,716.295,cs),
(422.352,716.295,o),
(517.507,627.881,o),
(517.507,505.084,cs),
(517.507,421.582,o),
(463.982,352.815,o),
(393.608,300.749,cs),
(269.709,208.405,ls),
(230.062,178.934,o),
(199.335,144.551,o),
(190.414,103.291,c),
(526.427,103.291,l),
(526.427,-0.841,l)
);
}
);
width = 582;
},
{
layerId = "543DA35F-7ABF-43F9-9722-B424E2B2594A";
shapes = (
{
closed = 1;
nodes = (
(56,0,l),
(56,79,ls),
(56,110,o),
(85,177,o),
(140,243,o),
(178,271,qs),
(313,371,ls),
(337,388,o),
(376,433,o),
(399,482,o),
(399,506,qs),
(399,538,o),
(367,591,o),
(309,622,o),
(269,622,qs),
(231,622,o),
(174,593,o),
(136,545,o),
(128,518,q),
(27,537,l),
(38,583,o),
(102,663,o),
(202,712,o),
(265,712,qs),
(337,712,o),
(442,659,o),
(500,566,o),
(500,506,qs),
(500,448,o),
(437,350,o),
(378,304,qs),
(253,210,ls),
(216,182,o),
(173,122,o),
(168,88,q),
(509,88,l),
(509,0,l)
);
}
);
width = 564;
},
{
layerId = "E87EDBC8-E77D-435A-ADBF-1646AF857D52";
shapes = (
{
closed = 1;
nodes = (
(72.737,0.222,l),
(72.737,70.751,ls),
(72.737,92.216,o),
(77.793,113.681,o),
(85.882,133.103,cs),
(103.072,171.945,o),
(132.395,205.676,o),
(166.775,236.341,cs),
(201.154,267.006,o),
(240.59,294.604,o),
(279.014,322.202,cs),
(354.851,378.421,o),
(419.566,432.596,o),
(419.566,507.214,cs),
(419.566,585.92,o),
(357.885,636.006,o),
(278.003,636.006,cs),
(210.255,636.006,o),
(152.619,596.142,o),
(130.373,534.812,c),
(128.351,531.745,l),
(46.447,547.078,l),
(47.458,552.189,l),
(78.804,648.272,o),
(172.842,707.557,o),
(273.958,707.557,cs),
(398.331,707.557,o),
(501.47,636.006,o),
(501.47,507.214,cs),
(501.47,424.418,o),
(445.856,356.956,o),
(382.153,308.914,cs),
(255.757,212.831,ls),
(205.199,175.011,o),
(170.82,131.058,o),
(163.741,69.729,c),
(510.57,69.729,l),
(510.57,0.222,l)
);
}
);
width = 572;
},
{
layerId = "C61358D5-F9AD-4529-B82F-EDAD2AAE1785";
shapes = (
{
closed = 1;
nodes = (
(77.229,0.551,l),
(77.229,65.719,ls),
(77.229,86.408,o),
(82.316,107.096,o),
(90.454,125.716,cs),
(107.748,166.058,o),
(137.25,200.194,o),
(171.839,230.192,cs),
(189.133,245.708,o),
(208.462,261.225,o),
(227.791,274.672,c),
(246.103,289.154,o),
(265.432,303.636,o),
(284.76,317.083,cs),
(361.059,373.977,o),
(426.167,428.801,o),
(426.167,507.417,cs),
(426.167,582.93,o),
(367.163,643.96,o),
(278.657,643.96,cs),
(205.41,643.96,o),
(150.475,600.515,o),
(127.077,542.587,c),
(125.043,538.45,l),
(51.796,552.931,l),
(52.814,557.069,l),
(83.333,642.926,o),
(170.822,703.957,o),
(274.587,703.957,cs),
(409.89,703.957,o),
(498.396,624.306,o),
(498.396,507.417,cs),
(498.396,427.766,o),
(445.496,361.564,o),
(380.388,311.911,cs),
(253.224,214.676,ls),
(204.393,177.437,o),
(168.787,133.991,o),
(160.649,77.098,cs),
(159.631,70.891,o),
(158.614,64.685,o),
(157.597,58.478,c),
(507.552,58.478,l),
(507.552,0.551,l)
);
}
);
width = 573;
}
);
leftKerningGroup = one;
unicode = 50;
},
{
glyphname = three;
layers = (
{
layerId = "7036C340-131A-4170-91E6-36E4B31F78AD";
shapes = (
{
closed = 1;
nodes = (
(36.799,155.084,l),
(173.935,155.084,l),
(178.868,148.272,ls),
(202.546,114.211,o),
(237.077,93.774,o),
(287.393,93.774,cs),
(303.178,93.774,o),
(334.749,102.533,o),
(351.521,109.345,c),
(352.508,110.318,o),
(354.481,112.264,o),
(359.414,116.157,cs),
(364.347,119.077,o),
(368.293,123.943,o),
(373.226,128.809,cs),
(382.106,138.54,o),
(389.998,148.272,o),
(393.945,153.138,cs),
(400.851,161.897,o),
(410.717,207.636,o),
(410.717,219.314,cs),
(410.717,239.751,o),
(401.837,267.,o),
(392.958,287.437,cs),
(388.025,298.142,o),
(362.374,322.472,o),
(348.561,331.23,cs),
(340.669,336.096,o),
(301.205,344.855,o),
(285.42,345.828,c),
(271.607,343.882,o),
(258.782,342.908,o),
(246.943,339.989,cs),
(236.09,338.043,o),
(226.224,334.15,o),
(216.358,328.311,cs),
(201.559,318.579,l),
(191.694,331.23,ls),
(182.814,341.935,o),
(174.922,352.64,o),
(167.029,362.372,cs),
(159.136,373.077,o),
(151.243,382.809,o),
(141.377,391.567,c),
(134.471,399.353,l),
(341.655,602.748,l),
(74.289,602.748,l),
(74.289,707.851,l),
(508.389,707.851,l),
(508.389,606.641,l),
(340.669,447.039,l),
(370.266,440.227,o),
(405.784,430.495,o),
(424.529,421.736,cs),
(440.314,414.924,o),
(460.046,397.407,o),
(469.912,387.675,cs),
(500.496,356.533,o),
(520.228,324.418,o),
(530.094,285.491,cs),
(536.014,264.081,o),
(540.947,238.778,o),
(540.947,216.395,cs),
(540.947,197.904,o),
(538.973,178.441,o),
(534.041,159.95,cs),
(517.268,98.64,o),
(488.657,55.82,o),
(420.583,15.92,cs),
(403.811,6.188,o),
(383.092,-1.598,o),
(364.347,-5.49,cs),
(347.575,-9.383,o),
(300.219,-16.195,o),
(282.46,-15.222,cs),
(256.809,-13.276,o),
(232.144,-11.33,o),
(205.506,-5.49,cs),
(145.324,8.134,o),
(82.182,54.847,o),
(59.49,98.64,cs),
(52.584,112.264,o),
(46.665,125.889,o),
(42.718,139.514,c)
);
}
);
width = 580;
},
{
layerId = "4DDF4BC2-1FF7-4978-B26A-B91C0D95F109";
shapes = (
{
closed = 1;
nodes = (
(36.789,147.498,l),
(161.678,147.498,l),
(164.652,142.586,l),
(189.432,105.256,o),
(228.088,85.608,o),
(279.63,85.608,cs),
(297.471,85.608,o),
(330.181,94.449,o),
(347.031,102.308,c),
(358.925,106.238,o),
(384.696,135.709,o),
(392.626,147.498,cs),
(399.564,157.322,o),
(410.467,203.493,o),
(410.467,216.264,cs),
(410.467,236.894,o),
(401.546,266.366,o),
(392.626,286.013,cs),
(386.678,298.784,o),
(359.916,323.344,o),
(346.04,332.185,c),
(337.119,339.062,o),
(293.507,346.921,o),
(278.639,348.886,c),
(278.639,348.886,o),
(276.656,348.886,o),
(276.656,348.886,c),
(261.789,346.921,o),
(248.903,344.956,o),
(237.009,342.991,cs),
(225.115,340.044,o),
(214.211,336.115,o),
(203.308,329.238,cs),
(195.379,324.326,l),
(189.432,331.203,ls),
(180.511,342.009,o),
(172.582,352.815,o),
(164.652,362.639,cs),
(156.722,373.445,o),
(148.793,383.269,o),
(138.881,393.093,cs),
(133.925,398.005,l),
(347.031,607.251,l),
(72.471,607.251,l),
(72.471,705.489,l),
(494.718,705.489,l),
(494.718,609.216,l),
(322.251,443.194,l),
(352.978,438.282,o),
(391.634,426.494,o),
(413.441,417.652,cs),
(428.308,410.775,o),
(447.141,394.075,o),
(457.053,384.251,cs),
(486.789,353.797,o),
(506.612,322.361,o),
(516.524,283.066,cs),
(522.471,261.454,o),
(527.427,235.912,o),
(527.427,213.317,cs),
(527.427,174.022,o),
(515.533,131.78,o),
(496.701,95.432,cs),
(471.921,50.242,o),
(410.467,7.018,o),
(354.96,-6.736,cs),
(337.119,-10.665,o),
(293.507,-17.542,o),
(274.674,-15.577,c),
(248.903,-14.595,o),
(225.115,-12.63,o),
(199.344,-6.736,cs),
(143.837,6.035,o),
(80.401,50.242,o),
(57.604,96.414,cs),
(50.665,109.185,o),
(44.718,122.938,o),
(39.762,136.692,c)
);
}
);
width = 566;
},
{
layerId = "543DA35F-7ABF-43F9-9722-B424E2B2594A";
shapes = (
{
closed = 1;
nodes = (
(70,701,l),
(476,701,l),
(476,615,l),
(293,437,l),
(329,434,o),
(399,409,o),
(399,409,q),
(422,396,o),
(458,359,o),
(480,327,o),
(480,327,q),
(492,304,o),
(505,252,o),
(509,209,o),
(509,209,q),
(509,180,o),
(495,128,o),
(479,93,o),
(479,93,q),
(465,70,o),
(428,35,o),
(394,13,o),
(394,13,q),
(370,0,o),
(314,-13,o),
(268,-16,o),
(268,-16,q),
(265,-16,l),
(265,-16,o),
(219,-13,o),
(163,0,o),
(139,13,q),
(139,13,o),
(105,35,o),
(68,70,o),
(54,93,q),
(54,93,o),
(42,118,o),
(37,133,q),
(144,133,l),
(164,103,o),
(191,88,q),
(191,88,o),
(239,70,o),
(264,70,qs),
(269,70,ls),
(294,70,o),
(342,88,o),
(342,88,q),
(362,99,o),
(392,138,o),
(392,138,q),
(404,159,o),
(411,212,o),
(411,212,q),
(411,238,o),
(392,286,o),
(392,286,q),
(381,307,o),
(342,337,o),
(342,337,q),
(322,348,o),
(269,355,o),
(269,355,q),
(264,355,l),
(264,355,o),
(211,348,o),
(191,337,q),
(191,337,o),
(186,334,q),
(143,388,l),
(143,388,l),
(135,397,l),
(359,619,l),
(70,619,l)
);
}
);
width = 547;
},
{
layerId = "E87EDBC8-E77D-435A-ADBF-1646AF857D52";
shapes = (
{
closed = 1;
nodes = (
(58.58,115.726,l),
(146.552,115.726,l),
(147.563,113.681,l),
(178.909,70.751,o),
(224.411,51.33,o),
(278.003,51.33,cs),
(298.226,51.33,o),
(336.65,61.551,o),
(355.862,69.729,cs),
(371.03,76.884,o),
(400.354,108.571,o),
(410.465,123.903,cs),
(419.566,139.236,o),
(431.7,188.299,o),
(431.7,206.698,cs),
(431.7,229.186,o),
(421.588,265.984,o),
(412.488,286.427,cs),
(404.398,302.781,o),
(374.063,332.424,o),
(357.885,342.646,cs),
(341.706,353.889,o),
(293.17,363.089,o),
(270.925,363.089,cs),
(249.69,363.089,o),
(219.355,355.934,o),
(200.143,346.734,cs),
(196.099,344.69,l),
(194.076,347.756,l),
(182.954,363.089,o),
(171.831,378.421,o),
(159.697,392.731,c),
(156.663,395.798,l),
(393.275,632.939,l),
(86.893,632.939,l),
(86.893,696.313,l),
(477.202,696.313,l),
(477.202,622.718,l),
(279.014,428.507,l),
(322.494,423.396,o),
(363.952,417.263,o),
(405.409,397.842,cs),
(434.733,384.554,o),
(468.102,343.668,o),
(482.258,318.114,c),
(498.436,291.538,o),
(510.57,234.297,o),
(510.57,203.632,cs),
(510.57,165.812,o),
(499.448,123.903,o),
(481.247,90.172,cs),
(445.856,21.687,o),
(354.851,-16.133,o),
(280.025,-16.133,cs),
(254.746,-16.133,o),
(225.422,-12.044,o),
(201.154,-6.934,c),
(146.552,6.355,o),
(78.804,55.418,o),
(60.603,109.593,cs)
);
}
);
width = 556;
},
{
layerId = "C61358D5-F9AD-4529-B82F-EDAD2AAE1785";
shapes = (
{
closed = 1;
nodes = (
(66.004,105.027,l),
(146.372,105.027,l),
(147.389,102.958,l),
(177.908,61.582,o),
(223.687,39.859,o),
(280.657,39.859,cs),
(304.055,39.859,o),
(339.661,50.203,o),
(361.024,60.547,cs),
(380.353,68.822,o),
(405.786,99.855,o),
(417.994,117.44,cs),
(429.184,133.991,o),
(440.374,183.643,o),
(440.374,203.297,cs),
(440.374,227.089,o),
(430.201,263.294,o),
(419.011,286.051,c),
(410.872,305.705,o),
(382.388,332.6,o),
(363.059,346.047,c),
(347.799,355.357,o),
(301.003,366.736,o),
(281.674,367.77,c),
(280.657,367.77,o),
(278.622,367.77,o),
(276.587,367.77,cs),
(275.57,367.77,o),
(274.553,367.77,o),
(273.535,367.77,c),
(261.328,365.701,o),
(249.12,364.667,o),
(237.93,362.598,cs),
(225.722,360.529,o),
(215.549,357.426,o),
(204.358,352.254,c),
(201.306,351.219,l),
(198.254,354.323,l),
(188.081,365.701,o),
(178.926,379.149,o),
(168.752,391.562,c),
(166.718,393.631,l),
(410.872,640.857,l),
(93.471,640.857,l),
(93.471,692.578,l),
(475.98,692.578,l),
(475.98,626.375,l),
(277.605,422.594,l),
(324.401,418.457,o),
(364.076,412.25,o),
(406.803,392.596,cs),
(433.253,380.183,o),
(469.876,335.703,o),
(482.084,313.98,cs),
(496.326,289.154,o),
(509.552,228.123,o),
(509.552,200.194,cs),
(509.552,162.955,o),
(498.361,121.578,o),
(480.049,87.442,cs),
(447.496,24.342,o),
(360.007,-16,o),
(282.691,-16,cs),
(189.099,-16,o),
(108.731,23.308,o),
(70.073,98.821,c)
);
}
);
width = 558;
}
);
leftKerningGroup = five;
unicode = 51;
},
{
glyphname = four;
layers = (
{
layerId = "7036C340-131A-4170-91E6-36E4B31F78AD";
shapes = (
{
closed = 1;
nodes = (
(51.544,158.004,l),
(51.544,170.655,ls),
(51.544,173.575,o),
(51.544,192.065,o),
(51.544,209.583,cs),
(51.544,219.314,o),
(51.544,228.073,o),
(51.544,234.885,cs),
(51.544,237.805,o),
(51.544,240.724,o),
(51.544,242.671,cs),
(51.544,247.537,o),
(52.531,250.456,o),
(52.531,250.456,c),
(312.004,706.878,l),
(456.046,706.878,l),
(208.412,267.973,l),
(366.266,267.973,l),
(366.266,487.912,l),
(493.537,487.912,l),
(493.537,267.973,l),
(602.062,267.973,l),
(602.062,158.004,l),
(493.537,158.004,l),
(493.537,1.322,l),
(366.266,1.322,l),
(366.266,158.004,l)
);
}
);
width = 616;
},
{
layerId = "4DDF4BC2-1FF7-4978-B26A-B91C0D95F109";
shapes = (
{
closed = 1;
nodes = (
(50.639,158.304,l),
(50.639,167.145,ls),
(50.639,170.093,o),
(50.639,188.758,o),
(50.639,206.441,cs),
(50.639,216.264,o),
(50.639,225.106,o),
(50.639,231.982,cs),
(50.639,234.93,o),
(50.639,237.877,o),
(50.639,239.841,cs),
(50.639,243.771,o),
(51.63,246.718,o),
(51.63,246.718,c),
(310.33,704.507,l),
(440.176,704.507,l),
(191.388,261.454,l),
(366.828,261.454,l),
(366.828,483.472,l),
(480.815,483.472,l),
(480.815,261.454,l),
(589.846,261.454,l),
(589.846,158.304,l),
(480.815,158.304,l),
(480.815,0.141,l),
(366.828,0.141,l),
(366.828,158.304,l)
);
}
);
width = 605;
},
{
layerId = "543DA35F-7ABF-43F9-9722-B424E2B2594A";
shapes = (
{
closed = 1;
nodes = (
(370,1,l),
(370,162,l),
(51,162,l),
(51,239,l),
(309,700,l),
(418,700,l),
(167,249,l),
(370,249,l),
(370,475,l),
(465,475,l),
(465,249,l),
(575,249,l),
(575,162,l),
(465,162,l),
(465,1,l)
);
}
);
width = 589;
},
{
layerId = "E87EDBC8-E77D-435A-ADBF-1646AF857D52";
shapes = (
{
closed = 1;
nodes = (
(65.681,165.812,l),
(65.681,231.23,l),
(322.516,695.291,l),
(408.465,695.291,l),
(154.663,234.297,l),
(388.242,234.297,l),
(388.242,465.305,l),
(464.079,465.305,l),
(464.079,234.297,l),
(575.307,234.297,l),
(575.307,165.812,l),
(464.079,165.812,l),
(464.079,1.244,l),
(388.242,1.244,l),
(388.242,165.812,l)
);
}
);
width = 596;
},
{
layerId = "C61358D5-F9AD-4529-B82F-EDAD2AAE1785";
shapes = (
{
closed = 1;
nodes = (
(71.143,168.127,l),
(71.143,227.089,l),
(327.505,691.544,l),
(402.786,691.544,l),
(147.441,225.02,l),
(395.665,225.02,l),
(395.665,458.799,l),
(461.79,458.799,l),
(461.79,225.02,l),
(573.694,225.02,l),
(573.694,168.127,l),
(461.79,168.127,l),
(461.79,1.585,l),
(395.665,1.585,l),
(395.665,168.127,l)
);
}
);
width = 597;
}
);
leftKerningGroup = six;
unicode = 52;
},
{
glyphname = five;
layers = (
{
layerId = "7036C340-131A-4170-91E6-36E4B31F78AD";
shapes = (
{
closed = 1;
nodes = (
(53.584,161.897,l),
(58.517,146.326,l),
(63.45,132.701,o),
(69.37,118.104,o),
(76.276,104.479,cs),
(100.941,60.686,o),
(161.123,14.946,o),
(222.291,0.349,cs),
(244.983,-4.517,o),
(275.567,-9.383,o),
(300.232,-9.383,cs),
(382.119,-9.383,o),
(442.301,14.946,o),
(492.617,61.659,cs),
(504.456,73.337,o),
(519.255,89.881,o),
(527.148,105.452,cs),
(544.906,142.433,o),
(557.732,181.36,o),
(557.732,222.234,cs),
(557.732,249.483,o),
(544.906,317.606,o),
(527.148,343.882,cs),
(515.309,361.399,o),
(502.483,377.943,o),
(486.698,393.514,cs),
(477.818,402.272,o),
(456.113,421.736,o),
(440.328,427.575,c),
(416.65,438.28,o),
(391.985,446.066,o),
(365.347,451.905,cs),
(344.629,456.771,o),
(323.91,458.717,o),
(302.205,458.717,cs),
(269.648,458.717,o),
(238.077,452.878,o),
(208.479,445.092,c),
(226.238,596.909,l),
(516.295,596.909,l),
(516.295,709.798,l),
(109.82,709.798,l),
(108.833,698.12,ls),
(107.847,684.495,o),
(98.967,593.989,o),
(90.088,506.403,cs),
(86.142,463.583,o),
(82.195,419.79,o),
(78.249,387.675,c),
(77.262,372.104,o),
(75.289,358.479,o),
(74.303,349.721,c),
(74.303,344.855,o),
(73.316,340.962,o),
(73.316,339.016,c),
(73.316,339.016,o),
(75.289,339.016,o),
(76.276,340.962,c),
(73.316,325.391,l),
(94.035,320.525,l),
(90.088,321.498,o),
(88.115,320.525,o),
(88.115,320.525,c),
(91.075,319.552,o),
(94.035,318.579,o),
(98.967,317.606,cs),
(106.86,315.659,o),
(118.699,312.74,o),
(130.538,310.793,c),
(153.23,304.954,o),
(177.895,299.115,o),
(181.841,298.142,cs),
(194.667,296.196,l),
(201.573,304.954,ls),
(209.466,315.659,o),
(225.251,328.311,o),
(238.077,337.069,cs),
(244.983,341.935,o),
(288.393,351.667,o),
(299.245,351.667,cs),
(303.192,351.667,o),
(308.125,350.694,o),
(312.071,350.694,c),
(317.004,349.721,o),
(321.937,348.748,o),
(327.856,348.748,c),
(392.971,339.989,o),
(427.502,277.705,o),
(427.502,225.153,cs),
(427.502,217.368,o),
(425.529,208.609,o),
(424.542,200.824,cs),
(420.596,175.521,o),
(413.69,162.87,o),
(395.931,140.487,cs),
(389.025,131.728,o),
(375.213,119.077,o),
(368.307,116.157,cs),
(360.414,113.238,o),
(352.521,110.318,o),
(345.615,107.399,cs),
(331.803,102.533,o),
(317.991,99.613,o),
(304.178,99.613,cs),
(283.46,99.613,o),
(254.849,106.425,o),
(236.104,115.184,cs),
(223.278,121.023,o),
(204.533,142.433,o),
(194.667,155.084,cs),
(189.734,161.897,l)
);
}
);
width = 609;
},
{
layerId = "4DDF4BC2-1FF7-4978-B26A-B91C0D95F109";
shapes = (
{
closed = 1;
nodes = (
(52.648,154.375,l),
(55.621,143.568,l),
(60.577,129.815,o),
(66.524,115.079,o),
(73.463,101.326,cs),
(98.242,56.137,o),
(158.705,12.912,o),
(215.203,-0.841,c),
(238.991,-5.753,o),
(266.745,-10.665,o),
(291.524,-10.665,cs),
(367.846,-10.665,o),
(427.317,11.93,o),
(478.859,60.066,cs),
(489.762,69.89,o),
(505.621,87.573,o),
(512.56,102.308,cs),
(522.471,121.956,o),
(530.401,142.586,o),
(536.348,164.198,cs),
(541.304,181.881,o),
(543.286,200.546,o),
(543.286,219.212,cs),
(543.286,246.718,o),
(530.401,314.502,o),
(513.551,340.044,cs),
(501.656,357.727,o),
(487.78,374.427,o),
(472.912,390.146,cs),
(463.991,398.987,o),
(443.176,417.652,o),
(428.308,423.546,cs),
(386.678,440.247,o),
(342.075,454.,o),
(293.507,454.,cs),
(258.815,454.,o),
(224.123,447.124,o),
(192.405,436.317,c),
(210.247,601.357,l),
(501.656,601.357,l),
(501.656,707.454,l),
(107.163,707.454,l),
(106.172,699.595,l),
(105.181,685.842,o),
(96.26,594.48,o),
(87.339,506.066,cs),
(83.374,461.859,o),
(79.41,418.635,o),
(75.445,386.216,c),
(74.454,370.498,o),
(72.471,356.745,o),
(71.48,346.921,c),
(71.48,342.991,o),
(70.489,339.062,o),
(70.489,336.115,c),
(70.489,336.115,o),
(71.48,336.115,o),
(72.471,337.097,c),
(70.489,325.308,l),
(82.383,323.344,l),
(81.392,323.344,o),
(81.392,322.361,o),
(80.401,322.361,c),
(83.374,321.379,o),
(87.339,320.397,o),
(91.304,319.414,cs),
(100.225,317.449,o),
(111.128,315.485,o),
(123.022,312.538,cs),
(146.811,306.643,o),
(170.599,301.731,o),
(174.564,300.749,cs),
(182.493,298.784,l),
(185.467,303.696,l),
(194.388,315.485,o),
(211.238,330.22,o),
(224.123,338.079,cs),
(233.044,343.974,o),
(278.639,353.797,o),
(290.533,353.797,cs),
(307.383,353.797,o),
(350.004,346.921,o),
(360.908,339.062,cs),
(395.599,312.538,o),
(402.538,305.661,o),
(417.405,268.33,cs),
(423.352,253.595,o),
(426.326,237.877,o),
(426.326,222.159,cs),
(426.326,214.3,o),
(424.344,205.458,o),
(423.352,196.617,cs),
(419.388,171.075,o),
(412.449,157.322,o),
(394.608,134.727,cs),
(386.678,125.886,o),
(372.802,111.15,o),
(363.881,108.203,cs),
(355.952,105.256,o),
(348.022,102.308,o),
(340.093,99.361,cs),
(326.216,93.467,o),
(310.357,91.502,o),
(295.489,91.502,cs),
(272.692,91.502,o),
(242.956,98.379,o),
(223.132,107.22,cs),
(208.264,114.097,o),
(188.441,135.709,o),
(179.52,149.463,cs),
(176.546,154.375,l)
);
}
);
width = 595;
},
{
layerId = "543DA35F-7ABF-43F9-9722-B424E2B2594A";
shapes = (
{
closed = 1;
nodes = (
(68,331,l),
(67,330,o),
(67,329,q),
(68,329,l),
(68,329,l),
(114,318,l),
(166,306,l),
(177,321,o),
(207,343,o),
(207,343,q),
(227,354,o),
(280,361,o),
(280,361,q),
(281,361,o),
(282,361,qs),
(283,361,o),
(285,361,q),
(285,361,o),
(338,354,o),
(358,343,q),
(358,343,o),
(396,313,o),
(408,292,q),
(408,292,o),
(427,244,o),
(427,218,q),
(427,218,o),
(420,165,o),
(408,144,q),
(408,144,o),
(378,105,o),
(358,94,q),
(358,94,o),
(310,76,o),
(285,76,q),
(285,76,o),
(282,76,qs),
(280,76,o),
(280,76,q),
(255,76,o),
(207,94,o),
(207,94,q),
(180,110,o),
(159,140,q),
(53,140,l),
(58,124,o),
(70,99,o),
(70,99,q),
(84,76,o),
(121,41,o),
(155,19,o),
(155,19,q),
(179,6,o),
(235,-7,o),
(281,-10,o),
(281,-10,q),
(282,-10,o),
(282,-10,q),
(283,-10,o),
(284,-10,q),
(284,-10,o),
(330,-7,o),
(386,6,o),
(410,19,q),
(410,19,o),
(444,41,o),
(481,76,o),
(495,99,q),
(495,99,o),
(511,135,o),
(525,186,o),
(525,215,q),
(525,215,o),
(521,258,o),
(508,311,o),
(496,334,q),
(496,334,o),
(474,365,o),
(438,402,o),
(415,415,q),
(415,415,o),
(372,432,o),
(313,445,o),
(283,445,q),
(283,445,o),
(282,445,q),
(282,445,o),
(282,445,q),
(229,445,o),
(169,423,q),
(190,613,l),
(483,613,l),
(483,703,l),
(104,703,l)
);
}
);
width = 576;
},
{
layerId = "E87EDBC8-E77D-435A-ADBF-1646AF857D52";
shapes = (
{
closed = 1;
nodes = (
(74.759,122.881,l),
(76.781,115.726,l),
(113.183,31.909,o),
(201.154,-10,o),
(290.137,-10,cs),
(360.918,-10,o),
(415.521,9.421,o),
(466.079,57.463,cs),
(477.202,67.684,o),
(490.347,80.972,o),
(497.425,95.283,c),
(505.515,114.704,o),
(514.615,136.169,o),
(520.682,156.612,c),
(524.727,173.989,o),
(526.749,192.388,o),
(526.749,209.765,cs),
(526.749,235.319,o),
(514.615,303.803,o),
(499.448,326.291,cs),
(488.325,343.668,o),
(474.169,359.,o),
(460.012,374.333,cs),
(449.901,384.554,o),
(434.733,397.842,o),
(421.588,403.975,cs),
(383.164,422.374,o),
(335.639,434.64,o),
(292.159,434.64,cs),
(267.891,434.64,o),
(244.634,430.551,o),
(222.389,425.441,cs),
(203.177,420.33,o),
(183.965,414.197,o),
(164.753,407.042,c),
(189.021,626.806,l),
(484.28,626.806,l),
(484.28,698.358,l),
(121.273,698.358,l),
(85.882,336.513,l),
(88.915,333.446,l),
(90.938,332.424,l),
(116.217,327.313,o),
(141.496,320.158,o),
(166.775,315.047,c),
(169.808,315.047,l),
(171.831,317.092,ls),
(182.954,328.335,o),
(196.099,339.579,o),
(210.255,348.779,cs),
(224.411,357.978,o),
(270.925,369.222,o),
(289.126,369.222,cs),
(312.382,369.222,o),
(356.874,361.044,o),
(374.063,348.779,cs),
(393.275,335.49,o),
(419.566,313.003,o),
(427.655,292.56,cs),
(431.7,284.382,o),
(433.722,276.205,o),
(436.755,267.006,cs),
(443.834,249.629,o),
(447.878,232.252,o),
(447.878,212.831,cs),
(447.878,208.742,o),
(447.878,203.632,o),
(446.867,199.543,cs),
(445.856,194.432,o),
(444.845,189.321,o),
(443.834,185.233,cs),
(440.8,169.9,o),
(438.778,156.612,o),
(432.711,142.302,cs),
(408.443,90.172,o),
(353.84,57.463,o),
(294.181,57.463,cs),
(236.545,57.463,o),
(197.11,76.884,o),
(162.73,120.837,c),
(160.708,122.881,l)
);
}
);
width = 586;
},
{
layerId = "C61358D5-F9AD-4529-B82F-EDAD2AAE1785";
shapes = (
{
closed = 1;
nodes = (
(82.298,112.268,l),
(85.35,106.062,ls),
(120.956,32.618,o),
(201.324,-9.793,o),
(291.864,-9.793,cs),
(362.059,-9.793,o),
(419.028,10.895,o),
(466.842,56.409,cs),
(477.015,66.754,o),
(489.223,81.236,o),
(495.326,93.649,cs),
(505.5,113.303,o),
(512.621,133.991,o),
(518.725,154.679,cs),
(522.794,171.23,o),
(524.828,188.815,o),
(524.828,206.4,cs),
(524.828,233.295,o),
(512.621,296.395,o),
(497.361,320.187,cs),
(487.188,336.737,o),
(473.963,355.357,o),
(459.721,369.839,cs),
(452.599,376.045,o),
(431.236,393.631,o),
(422.08,398.803,cs),
(386.474,416.388,o),
(335.609,427.766,o),
(293.899,427.766,cs),
(267.449,427.766,o),
(244.051,423.629,o),
(220.653,417.422,cs),
(200.306,412.25,o),
(180.977,405.009,o),
(160.631,397.768,c),
(185.047,634.651,l),
(482.101,634.651,l),
(482.101,694.647,l),
(125.025,694.647,l),
(91.454,335.703,l),
(95.523,335.703,l),
(106.714,333.634,o),
(118.921,331.565,o),
(131.129,328.462,cs),
(143.337,325.359,o),
(155.545,322.256,o),
(166.735,319.152,c),
(169.787,318.118,l),
(171.822,320.187,l),
(181.995,332.6,o),
(195.22,343.978,o),
(208.445,353.288,cs),
(221.67,361.564,o),
(273.553,373.977,o),
(290.847,373.977,cs),
(315.262,373.977,o),
(361.041,364.667,o),
(379.353,352.254,cs),
(415.976,326.393,o),
(430.219,305.705,o),
(444.461,267.431,cs),
(451.582,247.777,o),
(455.651,229.158,o),
(455.651,209.504,cs),
(455.651,200.194,o),
(453.617,189.85,o),
(451.582,180.54,cs),
(448.53,165.024,o),
(446.496,150.542,o),
(439.374,136.06,cs),
(415.976,83.304,o),
(361.041,46.065,o),
(295.934,46.065,cs),
(267.449,46.065,o),
(235.912,54.341,o),
(210.479,66.754,cs),
(191.151,76.063,o),
(174.874,93.649,o),
(161.649,110.199,c),
(160.631,112.268,l)
);
}
);
width = 586;
}
);
leftKerningGroup = five;
unicode = 53;
},
{
glyphname = six;
layers = (
{
layerId = "7036C340-131A-4170-91E6-36E4B31F78AD";
shapes = (
{
closed = 1;
nodes = (
(217.291,124.916,o),
(213.345,129.782,o),
(208.412,134.648,cs),
(199.533,144.379,o),
(191.64,154.111,o),
(187.694,158.977,cs),
(180.787,167.736,o),
(170.922,213.475,o),
(170.922,225.153,cs),
(170.922,245.59,o),
(179.801,272.839,o),
(188.68,293.276,cs),
(193.613,303.981,o),
(219.264,328.311,o),
(233.077,337.069,cs),
(239.983,341.935,o),
(283.393,351.667,o),
(294.245,351.667,cs),
(298.192,351.667,o),
(302.138,350.694,o),
(306.084,350.694,c),
(311.017,349.721,o),
(316.937,348.748,o),
(321.87,348.748,c),
(347.521,344.855,o),
(356.401,339.016,o),
(377.119,323.445,cs),
(407.703,300.088,o),
(421.516,260.188,o),
(421.516,225.153,cs),
(421.516,212.502,o),
(413.623,168.709,o),
(405.73,159.95,cs),
(400.797,153.138,o),
(395.864,147.299,o),
(390.931,140.487,cs),
(384.025,131.728,o),
(370.213,119.077,o),
(362.32,116.157,cs),
(354.427,112.264,o),
(347.521,110.318,o),
(339.629,107.399,cs),
(326.803,102.533,o),
(312.991,99.613,o),
(298.192,99.613,cs),
(277.473,99.613,o),
(249.849,107.399,o),
(230.117,115.184,c),
(229.13,116.157,o),
(227.157,118.104,o),
(222.224,121.996,cs)
);
},
{
closed = 1;
nodes = (
(58.45,315.659,l),
(49.571,293.276,o),
(40.692,245.59,o),
(40.692,222.234,cs),
(40.692,203.744,o),
(42.665,185.253,o),
(47.598,166.763,cs),
(65.356,104.479,o),
(91.008,61.659,o),
(161.056,21.759,cs),
(177.828,12.027,o),
(198.546,4.241,o),
(217.291,0.349,cs),
(239.983,-4.517,o),
(270.567,-9.383,o),
(295.232,-9.383,cs),
(469.858,-9.383,o),
(551.745,108.372,o),
(551.745,222.234,cs),
(551.745,284.518,o),
(532.014,342.908,o),
(481.698,393.514,cs),
(471.832,403.246,o),
(451.113,420.763,o),
(434.341,428.548,cs),
(410.663,438.28,o),
(386.985,446.066,o),
(360.347,451.905,cs),
(339.629,456.771,o),
(318.91,458.717,o),
(297.205,458.717,cs),
(289.312,458.717,o),
(282.406,458.717,o),
(274.514,457.744,c),
(404.744,709.798,l),
(266.621,709.798,l),
(72.262,344.855,ls),
(67.33,336.096,o),
(62.397,326.364,o),
(74.236,300.088,c)
);
}
);
width = 597;
},
{
layerId = "4DDF4BC2-1FF7-4978-B26A-B91C0D95F109";
shapes = (
{
closed = 1;
nodes = (
(208.238,112.132,o),
(182.467,141.604,o),
(174.537,153.392,cs),
(167.599,163.216,o),
(156.696,210.37,o),
(156.696,222.159,cs),
(156.696,242.789,o),
(165.617,272.26,o),
(174.537,291.908,cs),
(180.485,304.679,o),
(207.247,329.238,o),
(221.123,338.079,cs),
(229.053,343.974,o),
(276.63,353.797,o),
(287.533,353.797,cs),
(292.489,353.797,o),
(296.454,353.797,o),
(301.41,352.815,c),
(306.366,352.815,o),
(311.322,351.833,o),
(316.278,350.85,cs),
(344.031,346.921,o),
(353.943,341.027,o),
(376.74,324.326,cs),
(408.458,299.767,o),
(422.335,259.489,o),
(422.335,222.159,cs),
(422.335,209.388,o),
(413.414,164.198,o),
(406.476,154.375,cs),
(401.52,147.498,o),
(395.573,141.604,o),
(390.617,134.727,cs),
(383.678,125.886,o),
(368.811,111.15,o),
(359.89,108.203,cs),
(351.96,105.256,o),
(344.031,102.308,o),
(336.101,99.361,cs),
(322.225,93.467,o),
(307.357,91.502,o),
(291.498,91.502,cs),
(268.7,91.502,o),
(240.947,98.379,o),
(220.132,108.203,c)
);
},
{
closed = 1;
nodes = (
(50.639,301.731,l),
(53.612,301.731,l),
(46.674,277.172,o),
(39.736,238.859,o),
(39.736,219.212,cs),
(39.736,179.916,o),
(51.63,137.674,o),
(70.463,102.308,cs),
(94.251,56.137,o),
(156.696,11.93,o),
(212.203,-0.841,cs),
(235.991,-5.753,o),
(263.745,-10.665,o),
(288.524,-10.665,cs),
(447.115,-10.665,o),
(539.295,93.467,o),
(539.295,219.212,cs),
(539.295,283.066,o),
(518.48,340.044,o),
(469.912,390.146,cs),
(460.,399.969,o),
(440.176,416.67,o),
(424.317,423.546,cs),
(400.529,433.37,o),
(376.74,441.229,o),
(351.96,447.124,c),
(331.145,451.053,o),
(311.322,454.,o),
(290.507,454.,cs),
(279.604,454.,o),
(268.7,453.018,o),
(257.797,451.053,c),
(388.634,707.454,l),
(264.736,707.454,l),
(71.454,341.027,ls),
(66.498,332.185,o),
(60.551,323.344,o),
(56.586,313.52,c)
);
}
);
width = 585;
},
{
layerId = "543DA35F-7ABF-43F9-9722-B424E2B2594A";
shapes = (
{
closed = 1;
nodes = (
(71,336,l),
(69,334,o),
(69,334,q),
(66,327,o),
(62,320,qs),
(56,308,l),
(57,308,l),
(47,279,o),
(40,215,o),
(40,215,q),
(40,186,o),
(54,135,o),
(70,99,o),
(70,99,q),
(84,76,o),
(121,41,o),
(155,19,o),
(155,19,q),
(179,6,o),
(235,-7,o),
(281,-10,o),
(281,-10,q),
(282,-10,o),
(282,-10,q),
(283,-10,o),
(283,-10,q),
(283,-10,o),
(329,-7,o),
(386,6,o),
(410,19,q),
(410,19,o),
(444,41,o),
(481,76,o),
(494,99,q),
(494,99,o),
(511,135,o),
(524,186,o),
(524,215,q),
(524,215,o),
(521,258,o),
(508,311,o),
(495,334,q),
(495,334,o),
(474,365,o),
(438,402,o),
(414,415,q),
(414,415,o),
(371,432,o),
(313,445,o),
(283,445,q),
(283,445,o),
(282,445,q),
(282,445,o),
(282,445,q),
(259,445,o),
(233,440,q),
(367,703,l),
(263,703,l)
);
},
{
closed = 1;
nodes = (
(280,76,o),
(280,76,q),
(255,76,o),
(207,94,o),
(207,94,q),
(187,105,o),
(157,144,o),
(157,144,q),
(145,165,o),
(138,218,o),
(138,218,q),
(138,244,o),
(157,292,o),
(157,292,q),
(168,313,o),
(207,343,o),
(207,343,q),
(227,354,o),
(280,361,o),
(280,361,q),
(281,361,o),
(282,361,qs),
(283,361,o),
(284,361,q),
(284,361,o),
(337,354,o),
(357,343,q),
(357,343,o),
(396,313,o),
(408,292,q),
(408,292,o),
(426,244,o),
(426,218,q),
(426,218,o),
(419,165,o),
(408,144,q),
(408,144,o),
(377,105,o),
(357,94,q),
(357,94,o),
(310,76,o),
(284,76,q),
(284,76,o),
(282,76,qs)
);
}
);
width = 569;
},
{
layerId = "E87EDBC8-E77D-435A-ADBF-1646AF857D52";
shapes = (
{
closed = 1;
nodes = (
(432.733,147.413,o),
(429.7,138.213,o),
(424.644,131.058,cs),
(399.365,95.283,o),
(386.22,83.017,o),
(344.762,66.662,cs),
(327.572,60.529,o),
(309.371,57.463,o),
(291.17,57.463,cs),
(265.891,57.463,o),
(232.523,65.64,o),
(209.266,75.862,cs),
(194.099,83.017,o),
(164.775,114.704,o),
(154.663,130.036,cs),
(145.563,145.368,o),
(133.429,194.432,o),
(133.429,212.831,cs),
(133.429,235.319,o),
(143.541,271.094,o),
(152.641,292.56,c),
(160.73,308.914,o),
(191.065,338.557,o),
(207.244,348.779,cs),
(220.389,356.956,o),
(269.936,369.222,o),
(287.126,369.222,cs),
(309.371,369.222,o),
(353.862,361.044,o),
(371.052,348.779,cs),
(378.13,343.668,o),
(384.197,338.557,o),
(391.275,333.446,cs),
(403.409,324.247,o),
(420.599,305.848,o),
(425.655,292.56,cs),
(429.7,284.382,o),
(431.722,276.205,o),
(434.755,267.006,cs),
(441.834,249.629,o),
(444.867,232.252,o),
(444.867,212.831,cs),
(444.867,208.742,o),
(444.867,203.632,o),
(443.856,199.543,cs),
(442.845,194.432,o),
(441.834,189.321,o),
(440.822,185.233,cs),
(438.8,176.033,o),
(437.789,165.812,o),
(435.767,156.612,cs)
);
},
{
closed = 1;
nodes = (
(276.003,698.358,l),
(84.893,328.335,l),
(81.86,324.247,o),
(79.837,320.158,o),
(77.815,315.047,c),
(74.781,310.959,o),
(72.759,305.848,o),
(70.737,301.759,cs),
(63.659,280.294,o),
(54.558,232.252,o),
(54.558,209.765,cs),
(54.558,171.945,o),
(65.681,130.036,o),
(83.882,96.305,cs),
(91.971,80.972,o),
(103.094,68.706,o),
(115.228,57.463,cs),
(162.753,11.465,o),
(221.4,-10,o),
(288.137,-10,cs),
(423.633,-10,o),
(523.738,75.862,o),
(523.738,209.765,cs),
(523.738,273.139,o),
(503.515,327.313,o),
(458.012,374.333,cs),
(446.889,385.576,o),
(433.744,397.842,o),
(418.577,403.975,cs),
(379.142,421.352,o),
(334.65,434.64,o),
(290.159,434.64,cs),
(277.014,434.64,o),
(262.858,432.596,o),
(249.713,430.551,cs),
(240.612,428.507,o),
(230.501,427.485,o),
(221.4,425.441,c),
(358.918,698.358,l)
);
}
);
width = 577;
},
{
layerId = "C61358D5-F9AD-4529-B82F-EDAD2AAE1785";
shapes = (
{
closed = 1;
nodes = (
(440.426,140.198,o),
(437.374,130.888,o),
(431.271,122.612,cs),
(406.855,88.476,o),
(391.595,71.926,o),
(348.868,56.409,c),
(331.574,49.169,o),
(312.245,46.065,o),
(292.916,46.065,cs),
(264.432,46.065,o),
(234.93,55.375,o),
(208.479,66.754,cs),
(190.168,75.029,o),
(163.718,106.062,o),
(151.51,123.647,cs),
(140.32,140.198,o),
(129.129,189.85,o),
(129.129,209.504,cs),
(129.129,234.33,o),
(139.302,269.5,o),
(150.493,292.257,c),
(158.631,311.911,o),
(187.116,338.806,o),
(206.445,352.254,cs),
(220.687,361.564,o),
(270.535,373.977,o),
(288.847,373.977,cs),
(313.262,373.977,o),
(358.024,364.667,o),
(376.336,352.254,cs),
(397.699,336.737,o),
(425.167,312.946,o),
(433.305,292.257,cs),
(445.513,262.259,o),
(452.634,240.536,o),
(452.634,209.504,cs),
(452.634,200.194,o),
(450.599,189.85,o),
(448.565,180.54,cs),
(446.53,170.196,o),
(445.513,159.852,o),
(442.461,150.542,c)
);
},
{
closed = 1;
nodes = (
(280.709,694.647,l),
(90.471,324.324,ls),
(86.402,317.083,o),
(82.333,309.843,o),
(78.264,301.567,cs),
(70.125,280.879,o),
(59.952,228.123,o),
(59.952,206.4,cs),
(59.952,168.127,o),
(71.143,127.784,o),
(89.454,93.649,cs),
(96.575,80.201,o),
(106.748,67.788,o),
(117.939,56.409,cs),
(163.718,12.964,o),
(222.722,-9.793,o),
(289.864,-9.793,cs),
(435.34,-9.793,o),
(521.811,85.373,o),
(521.811,206.4,cs),
(521.811,265.362,o),
(502.482,323.29,o),
(457.721,369.839,cs),
(449.582,378.114,o),
(431.271,392.596,o),
(419.063,398.803,cs),
(383.457,415.353,o),
(332.591,427.766,o),
(291.899,427.766,cs),
(276.639,427.766,o),
(261.38,425.698,o),
(247.137,423.629,cs),
(235.947,421.56,o),
(223.739,419.491,o),
(212.549,417.422,c),
(350.903,694.647,l)
);
}
);
width = 577;
}
);
leftKerningGroup = six;
unicode = 54;
},
{
glyphname = seven;
layers = (
{
layerId = "7036C340-131A-4170-91E6-36E4B31F78AD";
shapes = (
{
closed = 1;
nodes = (
(77.195,0.349,l),
(391.918,593.989,l),
(39.705,593.989,l),
(39.705,706.878,l),
(539.906,706.878,l),
(539.906,694.227,ls),
(539.906,691.307,o),
(539.906,672.817,o),
(539.906,654.326,cs),
(539.906,644.595,o),
(539.906,635.836,o),
(539.906,629.024,cs),
(539.906,625.131,o),
(539.906,622.211,o),
(539.906,620.265,cs),
(539.906,615.399,o),
(538.92,612.48,o),
(538.92,612.48,c),
(221.238,0.349,l)
);
}
);
width = 570;
},
{
layerId = "4DDF4BC2-1FF7-4978-B26A-B91C0D95F109";
shapes = (
{
closed = 1;
nodes = (
(79.383,-0.841,l),
(395.573,598.41,l),
(38.744,598.41,l),
(38.744,704.507,l),
(527.401,704.507,l),
(527.401,695.665,ls),
(527.401,692.718,o),
(527.401,674.053,o),
(527.401,655.388,cs),
(527.401,645.564,o),
(527.401,636.723,o),
(527.401,629.846,cs),
(527.401,625.917,o),
(527.401,622.969,o),
(527.401,621.005,cs),
(527.401,617.075,o),
(526.41,615.11,o),
(526.41,615.11,c),
(209.229,-0.841,l)
);
}
);
width = 558;
},
{
layerId = "543DA35F-7ABF-43F9-9722-B424E2B2594A";
shapes = (
{
closed = 1;
nodes = (
(404,610,l),
(39,610,l),
(39,700,l),
(512,700,l),
(512,621,l),
(194,0,l),
(85,0,l)
);
}
);
width = 542;
},
{
layerId = "E87EDBC8-E77D-435A-ADBF-1646AF857D52";
shapes = (
{
closed = 1;
nodes = (
(107.139,0.222,l),
(429.7,623.74,l),
(53.547,623.74,l),
(53.547,695.291,l),
(511.604,695.291,l),
(511.604,690.18,ls),
(511.604,688.136,o),
(511.604,672.804,o),
(511.604,658.493,cs),
(511.604,650.316,o),
(511.604,643.161,o),
(511.604,638.05,cs),
(511.604,634.984,o),
(511.604,632.939,o),
(511.604,630.895,c),
(511.604,630.895,o),
(511.604,629.873,o),
(511.604,629.873,c),
(511.604,627.829,o),
(510.593,626.806,o),
(510.593,626.806,c),
(194.099,0.222,l)
);
}
);
width = 549;
},
{
layerId = "C61358D5-F9AD-4529-B82F-EDAD2AAE1785";
shapes = (
{
closed = 1;
nodes = (
(115.904,0.551,l),
(440.426,631.547,l),
(58.935,631.547,l),
(58.935,691.544,l),
(509.603,691.544,l),
(509.603,687.406,ls),
(509.603,685.337,o),
(509.603,671.89,o),
(509.603,658.442,cs),
(509.603,651.201,o),
(509.603,644.995,o),
(509.603,639.823,cs),
(509.603,637.754,o),
(509.603,635.685,o),
(509.603,633.616,c),
(509.603,633.616,o),
(509.603,632.582,o),
(509.603,632.582,c),
(509.603,630.513,o),
(509.603,629.479,o),
(508.586,629.479,c),
(192.202,0.551,l)
);
}
);
width = 550;
}
);
unicode = 55;
},
{
glyphname = eight;
layers = (
{
layerId = "7036C340-131A-4170-91E6-36E4B31F78AD";
shapes = (
{
closed = 1;
nodes = (
(100.874,407.138,o),
(76.209,462.61,o),
(76.209,521.001,cs),
(76.209,630.97,o),
(165.002,718.556,o),
(319.897,718.556,cs),
(474.791,718.556,o),
(564.571,631.943,o),
(564.571,521.001,cs),
(564.571,463.583,o),
(537.933,406.165,o),
(478.738,369.184,c),
(556.678,329.284,o),
(589.236,255.322,o),
(589.236,190.119,cs),
(589.236,67.498,o),
(478.738,-11.33,o),
(319.897,-11.33,cs),
(161.056,-11.33,o),
(51.544,67.498,o),
(51.544,190.119,cs),
(51.544,255.322,o),
(84.102,329.284,o),
(162.042,369.184,c)
);
},
{
closed = 1;
nodes = (
(184.734,138.54,o),
(238.01,96.694,o),
(319.897,96.694,cs),
(401.784,96.694,o),
(457.033,138.54,o),
(457.033,200.824,cs),
(457.033,264.081,o),
(403.757,307.874,o),
(319.897,307.874,cs),
(236.037,307.874,o),
(184.734,264.081,o),
(184.734,200.824,cs)
);
},
{
closed = 1;
nodes = (
(206.439,457.744,o),
(249.849,417.843,o),
(319.897,417.843,cs),
(390.931,417.843,o),
(435.328,457.744,o),
(435.328,511.269,cs),
(435.328,567.713,o),
(393.891,612.48,o),
(319.897,612.48,cs),
(246.889,612.48,o),
(206.439,566.74,o),
(206.439,511.269,cs)
);
}
);
width = 641;
},
{
layerId = "4DDF4BC2-1FF7-4978-B26A-B91C0D95F109";
shapes = (
{
closed = 1;
nodes = (
(104.163,402.916,o),
(75.419,457.93,o),
(75.419,520.802,cs),
(75.419,640.652,o),
(175.529,716.295,o),
(313.304,716.295,cs),
(452.071,716.295,o),
(552.181,641.635,o),
(552.181,520.802,cs),
(552.181,458.912,o),
(522.445,401.934,o),
(462.974,366.568,c),
(539.295,331.203,o),
(576.96,257.524,o),
(576.96,186.793,cs),
(576.96,55.154,o),
(456.035,-12.63,o),
(313.304,-12.63,cs),
(171.564,-12.63,o),
(50.639,56.137,o),
(50.639,186.793,cs),
(50.639,257.524,o),
(88.304,331.203,o),
(164.626,366.568,c)
);
},
{
closed = 1;
nodes = (
(170.573,128.833,o),
(233.018,88.555,o),
(313.304,88.555,cs),
(393.59,88.555,o),
(458.018,127.85,o),
(458.018,197.599,cs),
(458.018,268.33,o),
(395.573,309.59,o),
(313.304,309.59,cs),
(231.035,309.59,o),
(170.573,268.33,o),
(170.573,197.599,cs)
);
},
{
closed = 1;
nodes = (
(192.379,451.053,o),
(242.93,412.74,o),
(313.304,412.74,cs),
(383.678,412.74,o),
(436.212,451.053,o),
(436.212,510.978,cs),
(436.212,573.85,o),
(387.643,617.075,o),
(313.304,617.075,cs),
(239.956,617.075,o),
(192.379,572.868,o),
(192.379,510.978,cs)
);
}
);
width = 630;
},
{
layerId = "543DA35F-7ABF-43F9-9722-B424E2B2594A";
shapes = (
{
closed = 1;
nodes = (
(365,403,o),
(440,464,o),
(440,512,qs),
(440,564,o),
(365,629,o),
(306,629,qs),
(248,629,o),
(174,564,o),
(174,512,qs),
(174,464,o),
(248,403,o),
(306,403,qs)
);
},
{
closed = 1;
nodes = (
(375,73,o),
(462,140,o),
(462,193,qs),
(462,248,o),
(375,316,o),
(306,316,qs),
(261,316,o),
(191,286,o),
(152,229,o),
(152,193,qs),
(152,158,o),
(191,103,o),
(261,73,o),
(306,73,qs)
);
},
{
closed = 1;
nodes = (
(177,364,l),
(131,387,o),
(104,426,qs),
(76,467,o),
(76,522,qs),
(76,578,o),
(133,664,o),
(237,712,o),
(306,712,qs),
(376,712,o),
(480,664,o),
(537,578,o),
(537,522,qs),
(537,467,o),
(508,426,q),
(482,387,o),
(436,364,q),
(442,362,l),
(499,336,o),
(562,243,o),
(562,182,qs),
(562,124,o),
(499,37,o),
(385,-12,o),
(306,-12,qs),
(228,-12,o),
(114,37,o),
(51,124,o),
(51,182,qs),
(51,243,o),
(114,336,o),
(171,362,q)
);
}
);
width = 614;
},
{
layerId = "E87EDBC8-E77D-435A-ADBF-1646AF857D52";
shapes = (
{
closed = 1;
nodes = (
(204.21,357.978,o),
(206.233,359.,o),
(209.266,360.022,c),
(202.188,364.111,o),
(195.11,367.177,o),
(188.032,371.266,cs),
(125.34,402.953,o),
(90.96,455.083,o),
(90.96,523.568,cs),
(90.96,648.272,o),
(198.143,707.557,o),
(313.416,707.557,cs),
(428.689,707.557,o),
(536.883,648.272,o),
(536.883,523.568,cs),
(536.883,456.105,o),
(500.481,402.953,o),
(439.811,371.266,cs),
(432.733,367.177,o),
(425.655,364.111,o),
(418.577,360.022,c),
(421.61,359.,o),
(423.633,357.978,o),
(426.666,357.978,c),
(433.744,354.912,o),
(440.822,352.867,o),
(446.889,349.801,cs),
(518.682,316.069,o),
(562.162,254.74,o),
(562.162,176.033,cs),
(562.162,41.108,o),
(431.722,-12.044,o),
(313.416,-12.044,cs),
(195.11,-12.044,o),
(65.681,41.108,o),
(65.681,176.033,cs),
(65.681,254.74,o),
(109.161,316.069,o),
(180.954,349.801,cs),
(187.021,352.867,o),
(194.099,354.912,o),
(201.177,357.978,c)
);
},
{
closed = 1;
nodes = (
(169.831,435.662,o),
(236.568,391.709,o),
(313.416,391.709,cs),
(390.264,391.709,o),
(459.023,434.64,o),
(459.023,513.346,cs),
(459.023,594.097,o),
(395.32,643.161,o),
(313.416,643.161,cs),
(232.523,643.161,o),
(169.831,594.097,o),
(169.831,513.346,cs)
);
},
{
closed = 1;
nodes = (
(147.585,98.349,o),
(228.478,54.396,o),
(313.416,54.396,cs),
(398.354,54.396,o),
(481.269,98.349,o),
(481.269,187.277,cs),
(481.269,278.249,o),
(400.376,323.225,o),
(313.416,323.225,cs),
(226.456,323.225,o),
(147.585,277.227,o),
(147.585,187.277,cs)
);
}
);
width = 622;
},
{
layerId = "C61358D5-F9AD-4529-B82F-EDAD2AAE1785";
shapes = (
{
closed = 1;
nodes = (
(405.838,357.426,l),
(411.942,355.357,o),
(417.028,354.323,o),
(422.115,352.254,cs),
(431.271,349.151,o),
(440.426,346.047,o),
(447.547,342.944,cs),
(454.669,339.841,o),
(460.773,336.737,o),
(465.859,333.634,cs),
(471.963,330.531,o),
(478.067,326.393,o),
(484.171,322.256,cs),
(536.054,286.051,o),
(560.469,228.123,o),
(560.469,172.265,cs),
(560.469,47.1,o),
(444.496,-11.862,o),
(315.297,-11.862,cs),
(186.099,-11.862,o),
(71.143,48.134,o),
(71.143,172.265,cs),
(71.143,228.123,o),
(95.558,286.051,o),
(147.441,322.256,cs),
(153.545,326.393,o),
(159.649,330.531,o),
(165.752,333.634,cs),
(170.839,336.737,o),
(176.943,339.841,o),
(184.064,342.944,cs),
(191.185,346.047,o),
(200.341,349.151,o),
(209.497,352.254,cs),
(214.583,354.323,o),
(219.67,355.357,o),
(225.774,357.426,c),
(213.566,363.632,o),
(202.376,369.839,o),
(190.168,375.011,c),
(128.112,409.147,o),
(96.575,459.834,o),
(96.575,523.968,cs),
(96.575,637.754,o),
(190.168,703.957,o),
(315.297,703.957,cs),
(440.426,703.957,o),
(535.036,637.754,o),
(535.036,523.968,cs),
(535.036,460.868,o),
(503.5,408.112,o),
(441.444,375.011,c)
);
},
{
closed = 1;
nodes = (
(165.752,437.076,o),
(227.808,384.321,o),
(315.297,384.321,cs),
(402.786,384.321,o),
(466.876,436.042,o),
(466.876,513.623,cs),
(466.876,592.239,o),
(405.838,651.201,o),
(315.297,651.201,cs),
(224.756,651.201,o),
(165.752,591.205,o),
(165.752,513.623,cs)
);
},
{
closed = 1;
nodes = (
(143.372,96.752,o),
(218.653,42.962,o),
(315.297,42.962,cs),
(412.959,42.962,o),
(489.257,95.717,o),
(489.257,183.643,cs),
(489.257,272.603,o),
(414.994,327.428,o),
(315.297,327.428,cs),
(216.618,327.428,o),
(143.372,271.569,o),
(143.372,183.643,cs)
);
}
);
width = 622;
}
);
leftKerningGroup = five;
unicode = 56;
},
{
glyphname = nine;
layers = (
{
layerId = "7036C340-131A-4170-91E6-36E4B31F78AD";
shapes = (
{
closed = 1;
nodes = (
(244.916,369.184,o),
(236.037,375.023,o),
(215.318,390.594,cs),
(184.734,413.951,o),
(170.922,454.824,o),
(170.922,488.886,cs),
(170.922,496.671,o),
(172.895,505.43,o),
(173.881,513.215,cs),
(177.828,537.545,o),
(184.734,550.196,o),
(202.492,572.579,cs),
(209.399,582.311,o),
(222.224,594.962,o),
(230.117,597.882,cs),
(238.01,600.801,o),
(245.902,603.721,o),
(252.809,606.641,cs),
(266.621,611.506,o),
(280.433,614.426,o),
(294.245,614.426,cs),
(314.964,614.426,o),
(341.602,607.614,o),
(362.32,598.855,c),
(363.307,597.882,o),
(365.28,595.936,o),
(370.213,592.043,cs),
(375.146,588.15,o),
(380.079,584.257,o),
(384.025,579.391,cs),
(393.891,569.66,o),
(401.784,558.955,o),
(405.73,554.089,cs),
(411.65,546.303,o),
(421.516,499.591,o),
(421.516,488.886,cs),
(421.516,468.449,o),
(413.623,439.253,o),
(404.744,419.79,cs),
(400.797,411.031,o),
(371.199,384.755,o),
(359.36,376.97,cs),
(352.454,372.104,o),
(309.044,362.372,o),
(298.192,362.372,cs),
(294.245,362.372,o),
(290.299,363.345,o),
(286.353,363.345,c),
(281.42,364.318,o),
(275.5,365.292,o),
(270.567,365.292,c)
);
},
{
closed = 1;
nodes = (
(187.694,4.241,l),
(326.803,4.241,l),
(521.161,368.211,ls),
(526.094,377.943,o),
(530.041,386.702,o),
(534.973,395.46,cs),
(546.813,413.951,l),
(539.906,413.951,l),
(546.813,439.253,o),
(551.745,471.368,o),
(551.745,491.805,cs),
(551.745,569.66,o),
(517.215,642.648,o),
(432.368,692.28,c),
(415.596,702.985,o),
(393.891,709.798,o),
(375.146,713.69,cs),
(352.454,718.556,o),
(322.856,723.422,o),
(297.205,723.422,cs),
(216.305,723.422,o),
(155.136,699.093,o),
(105.807,651.407,cs),
(94.954,640.702,o),
(78.182,624.158,o),
(71.276,608.587,cs),
(53.517,571.606,o),
(40.692,532.679,o),
(40.692,491.805,cs),
(40.692,428.548,o),
(60.423,371.131,o),
(112.713,319.552,cs),
(120.605,311.767,o),
(142.31,292.303,o),
(158.096,286.464,c),
(181.774,275.759,o),
(206.439,267.973,o),
(233.077,262.134,cs),
(253.795,257.268,o),
(274.514,255.322,o),
(296.219,255.322,cs),
(304.111,255.322,o),
(312.004,255.322,o),
(318.91,256.295,c)
);
}
);
width = 597;
},
{
layerId = "4DDF4BC2-1FF7-4978-B26A-B91C0D95F109";
shapes = (
{
closed = 1;
nodes = (
(272.665,357.727,o),
(267.709,358.709,o),
(262.753,359.692,cs),
(193.37,368.533,o),
(156.696,430.423,o),
(156.696,488.383,cs),
(156.696,496.242,o),
(158.678,505.084,o),
(159.67,513.925,cs),
(163.634,539.467,o),
(171.564,552.238,o),
(188.414,574.833,cs),
(196.344,584.657,o),
(210.22,599.392,o),
(219.141,602.339,cs),
(227.071,605.287,o),
(235.,608.234,o),
(242.93,611.181,cs),
(256.806,617.075,o),
(272.665,619.04,o),
(287.533,619.04,cs),
(310.33,619.04,o),
(338.084,612.163,o),
(358.899,602.339,cs),
(370.793,597.428,o),
(397.555,567.956,o),
(405.485,556.168,cs),
(412.423,547.326,o),
(422.335,500.172,o),
(422.335,488.383,cs),
(422.335,468.736,o),
(413.414,436.317,o),
(405.485,417.652,cs),
(400.529,407.828,o),
(369.802,380.322,o),
(357.908,372.463,cs),
(349.978,366.568,o),
(302.401,356.745,o),
(291.498,356.745,cs),
(286.542,356.745,o),
(282.577,356.745,o),
(277.621,357.727,c)
);
},
{
closed = 1;
nodes = (
(190.397,3.088,l),
(315.286,3.088,l),
(508.568,368.533,ls),
(513.524,377.375,o),
(517.489,387.198,o),
(523.436,396.04,cs),
(531.366,408.811,l),
(525.419,408.811,l),
(533.348,433.37,o),
(539.295,469.718,o),
(539.295,491.331,cs),
(539.295,571.886,o),
(502.621,643.599,o),
(422.335,690.754,cs),
(405.485,700.577,o),
(385.661,706.472,o),
(366.828,711.384,cs),
(344.031,716.295,o),
(315.286,721.207,o),
(290.507,721.207,cs),
(214.185,721.207,o),
(154.714,698.613,o),
(104.163,650.476,cs),
(94.251,640.652,o),
(76.41,621.987,o),
(70.463,608.234,cs),
(52.621,570.903,o),
(39.736,532.59,o),
(39.736,491.331,cs),
(39.736,427.476,o),
(60.551,369.516,o),
(110.11,319.414,c),
(119.031,311.555,o),
(140.837,292.89,o),
(154.714,286.996,cs),
(178.502,277.172,o),
(202.291,269.313,o),
(228.062,263.419,cs),
(247.886,259.489,o),
(268.7,256.542,o),
(289.515,256.542,cs),
(300.419,256.542,o),
(311.322,257.524,o),
(323.216,258.507,c)
);
}
);
width = 585;
},
{
layerId = "543DA35F-7ABF-43F9-9722-B424E2B2594A";
shapes = (
{
closed = 1;
nodes = (
(494,370,ls),
(495,373,o),
(495,373,q),
(499,380,o),
(502,387,q),
(509,399,l),
(507,399,l),
(518,428,o),
(524,492,o),
(524,492,q),
(524,521,o),
(511,572,o),
(494,608,o),
(494,608,q),
(481,630,o),
(444,666,o),
(410,688,o),
(410,688,q),
(386,701,o),
(329,714,o),
(283,717,o),
(283,717,q),
(283,717,o),
(282,717,q),
(282,717,o),
(281,717,q),
(281,717,o),
(235,714,o),
(179,701,o),
(155,688,q),
(155,688,o),
(121,666,o),
(84,630,o),
(70,608,q),
(70,608,o),
(54,572,o),
(40,521,o),
(40,492,q),
(40,492,o),
(43,449,o),
(56,396,o),
(69,373,q),
(69,373,o),
(91,341,o),
(127,305,o),
(150,292,q),
(150,292,o),
(193,275,o),
(252,262,o),
(282,262,q),
(282,262,o),
(282,262,q),
(283,262,o),
(283,262,q),
(306,262,o),
(332,266,q),
(197,4,l),
(302,4,l)
);
},
{
closed = 1;
nodes = (
(284,631,o),
(284,631,q),
(310,631,o),
(357,613,o),
(357,613,q),
(377,602,o),
(408,562,o),
(408,562,q),
(419,542,o),
(426,489,o),
(426,489,q),
(426,463,o),
(408,414,o),
(408,414,q),
(396,394,o),
(357,364,o),
(357,364,q),
(337,353,o),
(284,346,o),
(284,346,q),
(283,346,o),
(282,346,qs),
(281,346,o),
(280,346,q),
(280,346,o),
(227,353,o),
(207,364,q),
(207,364,o),
(168,394,o),
(157,414,q),
(157,414,o),
(138,463,o),
(138,489,q),
(138,489,o),
(145,542,o),
(157,562,q),
(157,562,o),
(187,602,o),
(207,613,q),
(207,613,o),
(255,631,o),
(280,631,q),
(280,631,o),
(282,631,qs)
);
}
);
width = 569;
},
{
layerId = "E87EDBC8-E77D-435A-ADBF-1646AF857D52";
shapes = (
{
closed = 1;
nodes = (
(149.607,417.263,o),
(147.585,425.441,o),
(144.552,434.64,cs),
(137.474,452.017,o),
(133.429,470.416,o),
(133.429,489.837,cs),
(133.429,493.925,o),
(133.429,499.036,o),
(134.44,503.125,cs),
(135.451,508.236,o),
(136.462,513.346,o),
(137.474,517.435,cs),
(143.541,552.189,o),
(148.596,563.432,o),
(169.831,591.031,cs),
(197.132,626.806,o),
(241.623,645.205,o),
(287.126,645.205,cs),
(313.416,645.205,o),
(344.762,638.05,o),
(369.03,626.806,c),
(384.197,618.629,o),
(414.532,586.942,o),
(424.644,571.61,c),
(432.733,557.299,o),
(444.867,507.214,o),
(444.867,489.837,cs),
(444.867,467.349,o),
(435.767,429.529,o),
(426.666,409.086,cs),
(419.588,394.776,o),
(386.22,363.089,o),
(371.052,353.889,cs),
(357.907,344.69,o),
(308.36,333.446,o),
(291.17,333.446,cs),
(268.925,333.446,o),
(224.434,341.623,o),
(207.244,353.889,cs),
(200.166,359.,o),
(194.099,364.111,o),
(187.021,369.222,cs),
(175.898,377.399,o),
(157.697,396.82,o),
(153.652,409.086,c)
);
},
{
closed = 1;
nodes = (
(220.389,4.31,l),
(303.304,4.31,l),
(494.414,373.31,ls),
(512.615,408.064,o),
(523.738,454.061,o),
(523.738,492.903,cs),
(523.738,624.762,o),
(423.633,712.668,o),
(290.159,712.668,cs),
(220.389,712.668,o),
(164.775,692.225,o),
(115.228,644.183,cs),
(105.116,634.984,o),
(90.96,620.673,o),
(84.893,607.385,cs),
(74.781,587.964,o),
(65.681,566.499,o),
(60.625,546.056,cs),
(56.58,528.679,o),
(54.558,510.28,o),
(54.558,492.903,cs),
(54.558,426.463,o),
(74.781,376.377,o),
(121.295,328.335,cs),
(131.407,318.114,o),
(145.563,304.826,o),
(159.719,298.693,cs),
(199.154,281.316,o),
(245.668,268.028,o),
(289.148,268.028,cs),
(312.405,268.028,o),
(335.662,272.116,o),
(357.907,275.183,c)
);
}
);
width = 577;
},
{
layerId = "C61358D5-F9AD-4529-B82F-EDAD2AAE1785";
shapes = (
{
closed = 1;
nodes = (
(185.081,362.598,o),
(157.614,384.321,o),
(149.475,405.009,cs),
(145.406,414.319,o),
(143.372,422.594,o),
(140.32,430.87,cs),
(133.198,450.524,o),
(129.129,470.178,o),
(129.129,489.832,cs),
(129.129,499.142,o),
(131.164,509.486,o),
(133.198,518.796,cs),
(139.302,553.966,o),
(144.389,566.379,o),
(166.77,596.377,cs),
(194.237,632.582,o),
(238.999,653.27,o),
(288.847,653.27,cs),
(317.332,653.27,o),
(347.851,643.96,o),
(373.284,632.582,cs),
(392.613,624.306,o),
(419.063,592.239,o),
(431.271,574.654,cs),
(441.444,559.138,o),
(452.634,508.451,o),
(452.634,489.832,cs),
(452.634,466.04,o),
(442.461,427.766,o),
(432.288,406.044,c),
(425.167,388.459,o),
(393.63,359.495,o),
(375.318,347.082,cs),
(361.076,337.772,o),
(312.245,325.359,o),
(292.916,325.359,cs),
(268.501,325.359,o),
(223.739,334.669,o),
(205.428,347.082,c)
);
},
{
closed = 1;
nodes = (
(229.843,4.688,l),
(302.072,4.688,l),
(492.309,373.977,ls),
(510.621,409.147,o),
(521.811,454.661,o),
(521.811,492.935,cs),
(521.811,611.893,o),
(436.357,709.129,o),
(291.899,709.129,cs),
(222.722,709.129,o),
(164.735,688.441,o),
(117.939,642.926,cs),
(107.766,632.582,o),
(95.558,619.134,o),
(89.454,605.687,cs),
(79.281,586.033,o),
(72.16,565.344,o),
(66.056,544.656,cs),
(61.987,528.105,o),
(59.952,510.52,o),
(59.952,492.935,cs),
(59.952,433.973,o),
(79.281,375.011,o),
(125.06,329.497,cs),
(133.198,322.256,o),
(151.51,305.705,o),
(162.7,300.533,cs),
(200.341,282.948,o),
(248.155,271.569,o),
(290.882,271.569,cs),
(306.141,271.569,o),
(320.384,272.603,o),
(335.643,274.672,cs),
(346.834,276.741,o),
(358.024,278.81,o),
(370.232,279.844,c)
);
}
);
width = 577;
}
);
leftKerningGroup = six;
unicode = 57;
},
{
glyphname = colon;
layers = (
{
layerId = "7036C340-131A-4170-91E6-36E4B31F78AD";
shapes = (
{
closed = 1;
nodes = (
(71.276,101.559,o),
(95.941,145.353,o),
(150.203,145.353,cs),
(204.466,145.353,o),
(228.144,100.586,o),
(228.144,72.364,cs),
(228.144,44.142,o),
(205.452,-1.598,o),
(150.203,-1.598,cs),
(93.967,-1.598,o),
(71.276,43.169,o),
(71.276,72.364,cs)
);
},
{
closed = 1;
nodes = (
(70.289,468.449,o),
(92.981,513.215,o),
(148.23,513.215,cs),
(203.479,513.215,o),
(227.157,469.422,o),
(227.157,440.227,cs),
(227.157,411.031,o),
(203.479,367.238,o),
(148.23,367.238,cs),
(92.981,367.238,o),
(70.289,412.004,o),
(70.289,440.227,cs)
);
}
);
width = 299;
},
{
layerId = "4DDF4BC2-1FF7-4978-B26A-B91C0D95F109";
shapes = (
{
closed = 1;
nodes = (
(71.463,100.344,o),
(98.225,137.674,o),
(143.819,137.674,cs),
(188.423,137.674,o),
(215.185,99.361,o),
(215.185,67.925,cs),
(215.185,36.489,o),
(189.414,-2.806,o),
(143.819,-2.806,cs),
(97.233,-2.806,o),
(71.463,35.507,o),
(71.463,67.925,cs)
);
},
{
closed = 1;
nodes = (
(70.471,470.701,o),
(96.242,509.013,o),
(141.837,509.013,cs),
(188.423,509.013,o),
(214.194,471.683,o),
(214.194,439.264,cs),
(214.194,406.846,o),
(188.423,369.516,o),
(141.837,369.516,cs),
(96.242,369.516,o),
(70.471,407.828,o),
(70.471,439.264,cs)
);
}
);
width = 285;
},
{
layerId = "543DA35F-7ABF-43F9-9722-B424E2B2594A";
shapes = (
{
closed = 1;
nodes = (
(107,377,o),
(70,413,o),
(70,439,qs),
(70,465,o),
(107,501,o),
(132,501,qs),
(158,501,o),
(195,465,o),
(195,439,qs),
(195,413,o),
(158,377,o),
(132,377,qs)
);
},
{
closed = 1;
nodes = (
(108,-2,o),
(71,35,o),
(71,61,qs),
(71,86,o),
(108,123,o),
(134,123,qs),
(159,123,o),
(196,86,o),
(196,61,qs),
(196,35,o),
(159,-2,o),
(134,-2,qs)
);
}
);
width = 266;
},
{
layerId = "E87EDBC8-E77D-435A-ADBF-1646AF857D52";
shapes = (
{
closed = 1;
nodes = (
(107.139,385.576,o),
(84.893,411.13,o),
(84.893,438.729,cs),
(84.893,466.327,o),
(107.139,491.881,o),
(137.474,491.881,cs),
(167.808,491.881,o),
(191.065,467.349,o),
(191.065,438.729,cs),
(191.065,410.108,o),
(167.808,385.576,o),
(137.474,385.576,cs)
);
},
{
closed = 1;
nodes = (
(108.15,-1.823,o),
(85.904,23.731,o),
(85.904,52.352,cs),
(85.904,80.972,o),
(109.161,105.504,o),
(139.496,105.504,cs),
(168.82,105.504,o),
(192.076,78.928,o),
(192.076,52.352,cs),
(192.076,24.753,o),
(169.831,-1.823,o),
(139.496,-1.823,cs)
);
}
);
width = 276;
},
{
layerId = "C61358D5-F9AD-4529-B82F-EDAD2AAE1785";
shapes = (
{
closed = 1;
nodes = (
(89.471,460.868,o),
(107.783,485.694,o),
(137.285,485.694,cs),
(167.804,485.694,o),
(186.116,461.902,o),
(186.116,438.111,cs),
(186.116,414.319,o),
(167.804,390.527,o),
(137.285,390.527,cs),
(107.783,390.527,o),
(89.471,415.353,o),
(89.471,438.111,cs)
);
},
{
closed = 1;
nodes = (
(90.489,69.857,o),
(108.8,94.683,o),
(139.32,94.683,cs),
(168.822,94.683,o),
(187.133,69.857,o),
(187.133,47.1,cs),
(187.133,24.342,o),
(169.839,-1.518,o),
(139.32,-1.518,cs),
(108.8,-1.518,o),
(90.489,24.342,o),
(90.489,47.1,cs)
);
}
);
width = 276;
}
);
unicode = 58;
},
{
glyphname = semicolon;
layers = (
{
layerId = "7036C340-131A-4170-91E6-36E4B31F78AD";
shapes = (
{
closed = 1;
nodes = (
(71.33,468.449,o),
(95.008,512.242,o),
(150.257,512.242,cs),
(205.506,512.242,o),
(228.197,467.476,o),
(228.197,439.253,cs),
(228.197,411.031,o),
(205.506,366.265,o),
(150.257,366.265,cs),
(95.008,366.265,o),
(71.33,410.058,o),
(71.33,439.253,cs)
);
},
{
closed = 1;
nodes = (
(40.745,-111.567,l),
(104.874,125.889,l),
(242.996,125.889,l),
(150.257,-111.567,l)
);
}
);
width = 313;
},
{
layerId = "4DDF4BC2-1FF7-4978-B26A-B91C0D95F109";
shapes = (
{
closed = 1;
nodes = (
(69.498,470.701,o),
(95.269,508.031,o),
(141.855,508.031,cs),
(187.449,508.031,o),
(213.22,469.718,o),
(213.22,438.282,cs),
(213.22,406.846,o),
(187.449,368.533,o),
(141.855,368.533,cs),
(95.269,368.533,o),
(69.498,405.864,o),
(69.498,438.282,cs)
);
},
{
closed = 1;
nodes = (
(39.762,-113.815,l),
(102.207,118.026,l),
(226.106,118.026,l),
(135.908,-113.815,l)
);
}
);
width = 297;
},
{
layerId = "543DA35F-7ABF-43F9-9722-B424E2B2594A";
shapes = (
{
closed = 1;
nodes = (
(40,-115,l),
(98,103,l),
(201,103,l),
(117,-115,l)
);
},
{
closed = 1;
nodes = (
(104,376,o),
(67,412,o),
(67,438,qs),
(67,464,o),
(104,500,o),
(130,500,qs),
(155,500,o),
(192,464,o),
(192,438,qs),
(192,412,o),
(155,376,o),
(130,376,qs)
);
}
);
width = 271;
},
{
layerId = "E87EDBC8-E77D-435A-ADBF-1646AF857D52";
shapes = (
{
closed = 1;
nodes = (
(59.603,-117.327,l),
(112.183,85.061,l),
(193.076,85.061,l),
(116.228,-117.327,l)
);
},
{
closed = 1;
nodes = (
(82.86,466.327,o),
(106.116,490.859,o),
(136.451,490.859,cs),
(166.786,490.859,o),
(189.032,465.305,o),
(189.032,437.707,cs),
(189.032,410.108,o),
(166.786,384.554,o),
(136.451,384.554,cs),
(106.116,384.554,o),
(82.86,409.086,o),
(82.86,437.707,cs)
);
}
);
width = 284;
},
{
layerId = "C61358D5-F9AD-4529-B82F-EDAD2AAE1785";
shapes = (
{
closed = 1;
nodes = (
(66.039,-118.408,l),
(115.887,73.995,l),
(187.099,73.995,l),
(113.852,-118.408,l)
);
},
{
closed = 1;
nodes = (
(88.419,460.868,o),
(106.731,484.66,o),
(137.25,484.66,cs),
(166.752,484.66,o),
(185.064,459.834,o),
(185.064,437.076,cs),
(185.064,414.319,o),
(166.752,389.493,o),
(137.25,389.493,cs),
(106.731,389.493,o),
(88.419,413.285,o),
(88.419,437.076,cs)
);
}
);
width = 284;
}
);
unicode = 59;
},
{
glyphname = less;
layers = (
{
layerId = "7036C340-131A-4170-91E6-36E4B31F78AD";
shapes = (
{
closed = 1;
nodes = (
(133.445,253.376,l),
(133.445,351.667,l),
(513.282,524.893,l),
(513.282,408.112,l),
(276.5,303.008,l),
(513.282,199.851,l),
(513.282,82.096,l)
);
}
);
width = 656;
},
{
layerId = "4DDF4BC2-1FF7-4978-B26A-B91C0D95F109";
shapes = (
{
closed = 1;
nodes = (
(132.916,252.612,l),
(132.916,347.903,l),
(500.648,515.89,l),
(500.648,409.793,l),
(256.815,300.749,l),
(500.648,193.67,l),
(500.648,86.59,l)
);
}
);
width = 643;
},
{
layerId = "543DA35F-7ABF-43F9-9722-B424E2B2594A";
shapes = (
{
closed = 1;
nodes = (
(484,503,l),
(484,414,l),
(133,256,l),
(133,341,l)
);
},
{
closed = 1;
nodes = (
(133,340,l),
(484,184,l),
(484,94,l),
(133,254,l)
);
}
);
width = 626;
},
{
layerId = "E87EDBC8-E77D-435A-ADBF-1646AF857D52";
shapes = (
{
closed = 1;
nodes = (
(148.596,256.784,l),
(148.596,331.402,l),
(483.291,488.815,l),
(483.291,420.33,l),
(208.255,294.604,l),
(483.291,170.923,l),
(483.291,102.438,l)
);
}
);
width = 635;
},
{
layerId = "C61358D5-F9AD-4529-B82F-EDAD2AAE1785";
shapes = (
{
closed = 1;
nodes = (
(153.562,257.087,l),
(153.562,326.393,l),
(480.119,479.488,l),
(480.119,422.594,l),
(195.272,292.257,l),
(480.119,163.989,l),
(480.119,106.062,l)
);
}
);
width = 634;
}
);
unicode = 60;
},
{
glyphname = equal;
layers = (
{
layerId = "7036C340-131A-4170-91E6-36E4B31F78AD";
shapes = (
{
closed = 1;
nodes = (
(113.713,153.138,l),
(113.713,257.268,l),
(541.893,257.268,l),
(541.893,153.138,l)
);
},
{
closed = 1;
nodes = (
(113.713,347.774,l),
(113.713,451.905,l),
(541.893,451.905,l),
(541.893,347.774,l)
);
}
);
width = 655;
},
{
layerId = "4DDF4BC2-1FF7-4978-B26A-B91C0D95F109";
shapes = (
{
closed = 1;
nodes = (
(113.093,153.392,l),
(113.093,250.648,l),
(529.392,250.648,l),
(529.392,153.392,l)
);
},
{
closed = 1;
nodes = (
(113.093,349.868,l),
(113.093,447.124,l),
(529.392,447.124,l),
(529.392,349.868,l)
);
}
);
width = 643;
},
{
layerId = "543DA35F-7ABF-43F9-9722-B424E2B2594A";
shapes = (
{
closed = 1;
nodes = (
(113,357,l),
(113,438,l),
(513,438,l),
(513,357,l)
);
},
{
closed = 1;
nodes = (
(113,157,l),
(113,238,l),
(513,238,l),
(513,157,l)
);
}
);
width = 626;
},
{
layerId = "E87EDBC8-E77D-435A-ADBF-1646AF857D52";
shapes = (
{
closed = 1;
nodes = (
(128.373,365.133,l),
(128.373,427.485,l),
(512.615,427.485,l),
(512.615,365.133,l)
);
},
{
closed = 1;
nodes = (
(128.373,160.701,l),
(128.373,223.053,l),
(512.615,223.053,l),
(512.615,160.701,l)
);
}
);
width = 634;
},
{
layerId = "C61358D5-F9AD-4529-B82F-EDAD2AAE1785";
shapes = (
{
closed = 1;
nodes = (
(134.216,369.839,l),
(134.216,420.526,l),
(510.621,420.526,l),
(510.621,369.839,l)
);
},
{
closed = 1;
nodes = (
(134.216,162.955,l),
(134.216,213.641,l),
(510.621,213.641,l),
(510.621,162.955,l)
);
}
);
width = 635;
}
);
unicode = 61;
},
{
glyphname = greater;
layers = (
{
layerId = "7036C340-131A-4170-91E6-36E4B31F78AD";
shapes = (
{
closed = 1;
nodes = (
(141.337,82.096,l),
(141.337,198.878,l),
(378.119,303.981,l),
(141.337,407.138,l),
(141.337,523.92,l),
(521.175,353.613,l),
(521.175,254.349,l)
);
}
);
width = 656;
},
{
layerId = "4DDF4BC2-1FF7-4978-B26A-B91C0D95F109";
shapes = (
{
closed = 1;
nodes = (
(140.846,86.59,l),
(140.846,192.687,l),
(384.678,301.731,l),
(140.846,408.811,l),
(140.846,514.908,l),
(508.577,349.868,l),
(508.577,253.595,l)
);
}
);
width = 643;
},
{
layerId = "543DA35F-7ABF-43F9-9722-B424E2B2594A";
shapes = (
{
closed = 1;
nodes = (
(141,94,l),
(141,183,l),
(492,341,l),
(492,255,l)
);
},
{
closed = 1;
nodes = (
(492,257,l),
(141,413,l),
(141,502,l),
(492,343,l)
);
}
);
width = 626;
},
{
layerId = "E87EDBC8-E77D-435A-ADBF-1646AF857D52";
shapes = (
{
closed = 1;
nodes = (
(156.686,102.438,l),
(156.686,169.9,l),
(431.722,295.626,l),
(156.686,419.308,l),
(156.686,486.77,l),
(491.381,333.446,l),
(491.381,257.806,l)
);
}
);
width = 635;
},
{
layerId = "C61358D5-F9AD-4529-B82F-EDAD2AAE1785";
shapes = (
{
closed = 1;
nodes = (
(161.7,106.062,l),
(161.7,162.955,l),
(446.547,293.292,l),
(161.7,421.56,l),
(161.7,478.453,l),
(488.257,328.462,l),
(488.257,258.121,l)
);
}
);
width = 635;
}
);
unicode = 62;
},
{
glyphname = question;
layers = (
{
layerId = "7036C340-131A-4170-91E6-36E4B31F78AD";
shapes = (
{
closed = 1;
nodes = (
(157.136,89.881,o),
(179.828,132.701,o),
(236.063,132.701,cs),
(292.299,132.701,o),
(314.004,87.935,o),
(314.004,59.713,cs),
(314.004,31.49,o),
(292.299,-13.276,o),
(236.063,-13.276,cs),
(179.828,-13.276,o),
(157.136,29.544,o),
(157.136,59.713,cs)
);
},
{
closed = 1;
nodes = (
(172.922,187.199,l),
(172.922,340.962,ls),
(172.922,346.801,o),
(174.895,355.56,o),
(175.881,362.372,cs),
(177.854,369.184,o),
(179.828,375.997,o),
(180.814,380.862,cs),
(183.774,392.541,l),
(199.559,391.567,ls),
(213.372,390.594,o),
(230.144,387.675,o),
(244.943,387.675,cs),
(325.843,387.675,o),
(367.28,439.253,o),
(367.28,500.564,cs),
(367.28,557.981,o),
(326.83,608.587,o),
(251.849,608.587,cs),
(205.479,608.587,o),
(164.042,583.284,o),
(151.217,548.25,cs),
(146.284,535.598,l),
(28.879,569.66,l),
(32.826,580.365,l),
(59.464,660.165,o),
(137.404,718.556,o),
(251.849,718.556,cs),
(415.623,718.556,o),
(493.563,606.641,o),
(493.563,500.564,cs),
(493.563,405.192,o),
(434.368,313.713,o),
(299.205,294.249,c),
(299.205,187.199,l)
);
}
);
width = 537;
},
{
layerId = "4DDF4BC2-1FF7-4978-B26A-B91C0D95F109";
shapes = (
{
closed = 1;
nodes = (
(156.714,88.555,o),
(182.485,124.903,o),
(229.071,124.903,cs),
(275.656,124.903,o),
(300.436,87.573,o),
(300.436,55.154,cs),
(300.436,22.736,o),
(275.656,-14.595,o),
(229.071,-14.595,cs),
(182.485,-14.595,o),
(156.714,21.753,o),
(156.714,55.154,cs)
);
},
{
closed = 1;
nodes = (
(172.573,187.775,l),
(172.573,339.062,ls),
(172.573,344.956,o),
(174.555,352.815,o),
(175.546,359.692,cs),
(177.529,366.568,o),
(179.511,373.445,o),
(180.502,378.357,cs),
(182.485,386.216,l),
(191.405,385.234,l),
(206.273,384.251,o),
(223.123,382.286,o),
(237.991,382.286,cs),
(320.26,382.286,o),
(367.837,432.388,o),
(367.837,500.172,cs),
(367.837,564.027,o),
(321.251,613.146,o),
(244.93,613.146,cs),
(197.352,613.146,o),
(151.758,588.586,o),
(137.881,549.291,c),
(133.916,541.432,l),
(28.85,572.868,l),
(30.833,579.745,l),
(59.577,664.229,o),
(140.855,716.295,o),
(244.93,716.295,cs),
(392.617,716.295,o),
(480.833,618.057,o),
(480.833,500.172,cs),
(480.833,395.057,o),
(411.449,311.555,o),
(285.568,295.837,c),
(285.568,187.775,l)
);
}
);
width = 525;
},
{
layerId = "543DA35F-7ABF-43F9-9722-B424E2B2594A";
shapes = (
{
closed = 1;
nodes = (
(172,192,l),
(172,337,l),
(180,376,l),
(228,372,l),
(290,373,o),
(369,441,o),
(369,501,qs),
(369,555,o),
(295,625,o),
(235,625,qs),
(193,625,o),
(128,584,o),
(117,554,q),
(29,580,l),
(49,639,o),
(157,712,o),
(235,712,qs),
(302,712,o),
(405,658,o),
(463,563,o),
(463,501,qs),
(463,445,o),
(414,358,o),
(325,306,o),
(266,300,q),
(266,192,l)
);
},
{
closed = 1;
nodes = (
(192,-14,o),
(156,22,o),
(156,48,qs),
(156,74,o),
(192,110,o),
(219,110,qs),
(245,110,o),
(281,74,o),
(281,48,qs),
(281,22,o),
(245,-14,o),
(219,-14,qs)
);
}
);
width = 506;
},
{
layerId = "E87EDBC8-E77D-435A-ADBF-1646AF857D52";
shapes = (
{
closed = 1;
nodes = (
(191.032,196.477,l),
(191.032,334.468,ls),
(191.032,338.557,o),
(192.043,342.646,o),
(193.054,347.756,cs),
(194.065,351.845,o),
(195.076,355.934,o),
(196.088,359.,cs),
(197.099,363.089,l),
(202.154,363.089,l),
(213.277,361.044,o),
(225.411,360.022,o),
(237.545,360.022,cs),
(326.528,360.022,o),
(390.231,415.219,o),
(390.231,502.103,cs),
(390.231,584.898,o),
(329.561,639.072,o),
(244.623,639.072,cs),
(195.076,639.072,o),
(143.507,615.563,o),
(121.261,572.632,c),
(120.25,568.543,l),
(49.469,590.009,l),
(51.491,595.119,l),
(85.871,671.781,o),
(162.719,707.557,o),
(244.623,707.557,cs),
(371.019,707.557,o),
(465.057,627.829,o),
(465.057,502.103,cs),
(465.057,384.554,o),
(381.13,315.047,o),
(265.858,306.87,c),
(265.858,196.477,l)
);
},
{
closed = 1;
nodes = (
(174.853,68.706,o),
(197.099,92.216,o),
(228.445,92.216,cs),
(259.791,92.216,o),
(281.025,67.684,o),
(281.025,39.064,cs),
(281.025,10.443,o),
(259.791,-14.089,o),
(228.445,-14.089,cs),
(197.099,-14.089,o),
(174.853,9.421,o),
(174.853,39.064,cs)
);
}
);
width = 516;
},
{
layerId = "C61358D5-F9AD-4529-B82F-EDAD2AAE1785";
shapes = (
{
closed = 1;
nodes = (
(196.237,199.16,l),
(196.237,332.6,ls),
(196.237,333.634,o),
(197.254,334.669,o),
(197.254,335.703,cs),
(197.254,337.772,o),
(198.272,340.875,o),
(198.272,342.944,cs),
(198.272,345.013,o),
(199.289,347.082,o),
(199.289,348.116,cs),
(199.289,349.151,o),
(200.306,351.219,o),
(201.324,352.254,cs),
(203.358,354.323,l),
(206.41,354.323,l),
(216.583,353.288,o),
(227.774,352.254,o),
(237.947,352.254,cs),
(337.643,352.254,o),
(396.647,418.457,o),
(396.647,502.245,cs),
(396.647,581.895,o),
(339.678,647.064,o),
(245.068,647.064,cs),
(192.168,647.064,o),
(142.32,621.203,o),
(117.904,579.826,c),
(115.87,576.723,l),
(55.848,595.343,l),
(57.883,599.48,ls),
(90.437,667.752,o),
(161.649,703.957,o),
(245.068,703.957,cs),
(379.353,703.957,o),
(461.755,614.997,o),
(461.755,502.245,cs),
(461.755,398.803,o),
(394.613,325.359,o),
(275.587,310.877,cs),
(261.345,308.808,l),
(261.345,199.16,l)
);
},
{
closed = 1;
nodes = (
(179.96,57.444,o),
(197.254,81.236,o),
(228.791,81.236,cs),
(260.328,81.236,o),
(276.605,56.409,o),
(276.605,33.652,cs),
(276.605,10.895,o),
(260.328,-13.931,o),
(228.791,-13.931,cs),
(197.254,-13.931,o),
(179.96,9.861,o),
(179.96,33.652,cs)
);
}
);
width = 517;
}
);
leftKerningGroup = exclam;
unicode = 63;
},
{
glyphname = at;
layers = (
{
layerId = "7036C340-131A-4170-91E6-36E4B31F78AD";
shapes = (
{
closed = 1;
nodes = (
(724.399,41.222,l),
(787.541,-51.23,l),
(775.702,-58.042,ls),
(719.466,-89.184,o),
(633.633,-115.46,o),
(561.611,-115.46,cs),
(327.789,-115.46,o),
(172.895,10.08,o),
(107.78,167.736,cs),
(82.128,229.046,o),
(72.262,292.303,o),
(72.262,355.56,cs),
(72.262,418.817,o),
(82.128,482.073,o),
(107.78,543.384,cs),
(172.895,701.039,o),
(327.789,825.606,o),
(561.611,825.606,cs),
(626.726,825.606,o),
(686.908,813.928,o),
(744.131,789.599,cs),
(945.395,704.932,o),
(1011.497,513.215,o),
(1011.497,355.56,cs),
(1011.497,278.678,o),
(989.792,175.521,o),
(910.864,115.184,cs),
(879.294,90.854,o),
(841.803,76.257,o),
(795.433,76.257,cs),
(718.479,76.257,o),
(677.042,114.211,o),
(661.257,159.95,c),
(622.78,126.862,o),
(571.477,105.452,o),
(508.336,105.452,cs),
(459.993,105.452,o),
(419.542,117.13,o),
(382.052,139.514,cs),
(297.205,191.092,o),
(268.594,280.625,o),
(268.594,356.533,cs),
(268.594,399.353,o),
(276.487,443.146,o),
(298.192,484.02,cs),
(333.709,549.223,o),
(403.757,606.641,o),
(508.336,606.641,cs),
(564.571,606.641,o),
(611.928,589.123,o),
(649.418,561.874,c),
(649.418,595.936,l),
(782.608,595.936,l),
(782.608,216.395,ls),
(782.608,208.609,o),
(783.594,199.851,o),
(787.541,193.039,cs),
(791.487,187.199,o),
(795.433,185.253,o),
(801.353,185.253,cs),
(829.964,185.253,o),
(852.656,209.583,o),
(867.454,250.456,cs),
(881.267,288.41,o),
(885.213,333.177,o),
(885.213,355.56,cs),
(885.213,405.192,o),
(878.307,454.824,o),
(860.548,501.537,cs),
(818.125,614.426,o),
(722.426,712.717,o),
(561.611,712.717,cs),
(509.322,712.717,o),
(461.966,704.932,o),
(416.583,686.441,cs),
(258.728,626.104,o),
(198.546,485.966,o),
(198.546,355.56,cs),
(198.546,224.18,o),
(258.728,85.015,o),
(416.583,23.705,cs),
(461.966,5.215,o),
(510.309,-2.571,o),
(561.611,-2.571,cs),
(611.928,-2.571,o),
(667.177,11.054,o),
(708.613,33.437,c)
);
},
{
closed = 1;
nodes = (
(582.33,224.18,o),
(616.86,249.483,o),
(635.606,286.464,c),
(644.485,302.035,o),
(651.391,321.498,o),
(651.391,337.069,cs),
(651.391,378.916,ls),
(651.391,390.594,o),
(642.512,413.951,o),
(635.606,426.602,cs),
(615.874,461.637,o),
(578.383,486.939,o),
(530.041,486.939,cs),
(446.18,486.939,o),
(407.703,419.79,o),
(407.703,356.533,cs),
(407.703,293.276,o),
(448.153,224.18,o),
(532.014,224.18,cs)
);
}
);
width = 1084;
},
{
layerId = "4DDF4BC2-1FF7-4978-B26A-B91C0D95F109";
shapes = (
{
closed = 1;
nodes = (
(718.709,29.612,l),
(775.207,-55.855,l),
(768.269,-59.784,ls),
(710.78,-92.203,o),
(626.529,-117.745,o),
(557.145,-117.745,cs),
(241.947,-117.745,o),
(72.454,111.15,o),
(72.454,353.797,cs),
(72.454,596.445,o),
(240.956,824.357,o),
(557.145,824.357,cs),
(620.582,824.357,o),
(680.053,812.569,o),
(736.551,788.991,cs),
(928.842,707.454,o),
(1002.19,521.784,o),
(1002.19,353.797,cs),
(1002.19,306.643,o),
(995.251,257.524,o),
(975.427,212.335,cs),
(947.674,145.533,o),
(889.194,75.784,o),
(792.057,75.784,cs),
(718.709,75.784,o),
(675.097,114.097,o),
(661.22,168.128,c),
(620.582,128.833,o),
(567.057,105.256,o),
(503.621,105.256,cs),
(342.057,105.256,o),
(269.7,239.841,o),
(269.7,354.78,cs),
(269.7,398.005,o),
(277.63,442.212,o),
(299.436,482.489,cs),
(337.101,552.238,o),
(407.476,603.322,o),
(503.621,603.322,cs),
(562.101,603.322,o),
(613.643,582.692,o),
(652.3,549.291,c),
(652.3,592.516,l),
(772.234,592.516,l),
(772.234,213.317,ls),
(772.234,192.687,o),
(779.172,177.952,o),
(798.005,177.952,cs),
(832.696,177.952,o),
(855.494,204.476,o),
(870.361,244.753,cs),
(885.229,283.066,o),
(889.194,328.256,o),
(889.194,353.797,cs),
(889.194,527.679,o),
(786.11,718.26,o),
(557.145,718.26,cs),
(504.612,718.26,o),
(455.053,710.401,o),
(407.476,691.736,cs),
(251.859,631.811,o),
(185.449,494.278,o),
(185.449,353.797,cs),
(185.449,163.216,o),
(315.295,-11.648,o),
(557.145,-11.648,cs),
(608.687,-11.648,o),
(666.176,2.106,o),
(709.789,24.7,cs)
);
},
{
closed = 1;
nodes = (
(578.952,217.247,o),
(617.608,242.789,o),
(638.423,282.084,cs),
(646.353,297.802,o),
(654.282,319.414,o),
(654.282,335.132,cs),
(654.282,377.375,ls),
(654.282,389.163,o),
(645.361,414.705,o),
(638.423,426.494,cs),
(616.617,465.789,o),
(575.978,490.348,o),
(525.427,490.348,cs),
(439.194,490.348,o),
(395.582,424.529,o),
(395.582,354.78,cs),
(395.582,285.031,o),
(441.176,217.247,o),
(527.41,217.247,cs)
);
}
);
width = 1074;
},
{
layerId = "543DA35F-7ABF-43F9-9722-B424E2B2594A";
shapes = (
{
closed = 1;
nodes = (
(659,376,l),
(655,406,o),
(642,430,qs),
(624,462,o),
(592,481,qs),
(560,500,o),
(519,500,qs),
(477,500,o),
(446,481,q),
(414,463,o),
(396,430,qs),
(378,397,o),
(378,353,qs),
(378,310,o),
(397,276,qs),
(415,242,o),
(447,223,qs),
(479,204,o),
(521,204,qs),
(562,204,o),
(593,223,qs),
(625,242,o),
(642,276,qs),
(656,302,o),
(659,333,q)
);
},
{
closed = 1;
nodes = (
(657,586,l),
(758,586,l),
(758,209,ls),
(758,187,o),
(768,175,qs),
(778,164,o),
(794,164,qs),
(823,164,o),
(846,187,qs),
(869,211,o),
(882,253,qs),
(896,296,o),
(896,352,qs),
(896,436,o),
(870,506,qs),
(845,575,o),
(799,626,qs),
(753,677,o),
(690,705,qs),
(627,732,o),
(551,732,qs),
(466,732,o),
(396,704,qs),
(325,677,o),
(273,626,qs),
(222,575,o),
(194,505,qs),
(166,436,o),
(166,268,o),
(194,199,qs),
(222,129,o),
(273,78,qs),
(325,27,o),
(396,-1,qs),
(466,-29,o),
(551,-29,qs),
(588,-29,o),
(632,-19,qs),
(676,-8,o),
(710,10,q),
(758,-62,l),
(709,-90,o),
(652,-104,qs),
(596,-119,o),
(551,-119,qs),
(446,-119,o),
(358,-85,qs),
(270,-50,o),
(206,14,qs),
(142,77,o),
(107,163,qs),
(72,249,o),
(72,455,o),
(107,541,qs),
(142,627,o),
(206,690,qs),
(270,753,o),
(358,788,qs),
(446,822,o),
(551,822,qs),
(647,822,o),
(728,787,qs),
(808,753,o),
(867,690,qs),
(926,627,o),
(958,541,qs),
(990,455,o),
(990,352,qs),
(990,273,o),
(964,211,qs),
(939,150,o),
(893,114,qs),
(847,78,o),
(788,78,qs),
(749,78,o),
(720,93,qs),
(691,109,o),
(675,138,qs),
(665,158,o),
(662,183,q),
(640,157,o),
(612,140,qs),
(562,108,o),
(497,108,qs),
(431,108,o),
(380,140,qs),
(329,171,o),
(300,227,qs),
(271,282,o),
(271,353,qs),
(271,425,o),
(300,479,qs),
(329,534,o),
(380,565,qs),
(431,597,o),
(497,597,qs),
(562,597,o),
(612,565,qs),
(637,550,o),
(657,528,q)
);
}
);
width = 1062;
},
{
layerId = "E87EDBC8-E77D-435A-ADBF-1646AF857D52";
shapes = (
{
closed = 1;
nodes = (
(718.892,-13.066,l),
(755.294,-70.308,l),
(750.238,-72.352,l),
(696.647,-99.95,o),
(622.832,-121.416,o),
(561.151,-121.416,cs),
(277.014,-121.416,o),
(86.915,79.95,o),
(86.915,349.801,cs),
(86.915,619.651,o),
(277.014,819.995,o),
(561.151,819.995,cs),
(838.21,819.995,o),
(994.94,599.208,o),
(994.94,349.801,cs),
(994.94,240.429,o),
(943.371,79.95,o),
(800.797,79.95,cs),
(712.825,79.95,o),
(687.546,132.08,o),
(680.468,201.587,c),
(634.966,146.391,o),
(586.43,110.615,o),
(506.548,110.615,cs),
(365.996,110.615,o),
(288.137,226.119,o),
(288.137,350.823,cs),
(288.137,475.527,o),
(365.996,590.009,o),
(506.548,590.009,cs),
(585.419,590.009,o),
(631.932,555.255,o),
(678.446,503.125,c),
(678.446,578.765,l),
(760.35,578.765,l),
(760.35,203.632,ls),
(760.35,173.989,o),
(773.495,147.413,o),
(806.864,147.413,cs),
(896.857,147.413,o),
(920.114,278.249,o),
(920.114,349.801,cs),
(920.114,559.344,o),
(792.707,748.444,o),
(561.151,748.444,cs),
(320.494,748.444,o),
(161.741,578.765,o),
(161.741,349.801,cs),
(161.741,121.859,o),
(320.494,-49.864,o),
(561.151,-49.864,cs),
(613.731,-49.864,o),
(667.323,-36.576,o),
(714.848,-15.111,c)
);
},
{
closed = 1;
nodes = (
(589.463,188.299,o),
(634.966,216.92,o),
(662.267,267.006,c),
(671.368,285.405,o),
(680.468,309.936,o),
(680.468,330.38,cs),
(680.468,374.333,ls),
(680.468,390.687,o),
(670.356,419.308,o),
(662.267,434.64,cs),
(635.977,482.682,o),
(585.419,511.302,o),
(528.794,511.302,cs),
(433.744,511.302,o),
(376.108,439.751,o),
(376.108,350.823,cs),
(376.108,261.895,o),
(435.767,188.299,o),
(530.816,188.299,cs)
);
}
);
width = 1068;
},
{
layerId = "C61358D5-F9AD-4529-B82F-EDAD2AAE1785";
shapes = (
{
closed = 1;
nodes = (
(721.204,-26.344,l),
(752.741,-74.962,l),
(747.654,-77.031,l),
(695.771,-102.891,o),
(625.577,-122.545,o),
(564.538,-122.545,cs),
(259.345,-122.545,o),
(92.506,101.924,o),
(92.506,348.116,cs),
(92.506,594.308,o),
(259.345,817.743,o),
(564.538,817.743,cs),
(860.576,817.743,o),
(995.878,573.62,o),
(995.878,348.116,cs),
(995.878,252.949,o),
(953.151,81.236,o),
(805.641,81.236,cs),
(708.996,81.236,o),
(694.754,147.438,o),
(687.633,210.538,c),
(643.888,154.679,o),
(598.109,112.268,o),
(509.603,112.268,cs),
(361.076,112.268,o),
(294.951,238.467,o),
(294.951,349.151,cs),
(294.951,459.834,o),
(361.076,584.998,o),
(509.603,584.998,cs),
(597.092,584.998,o),
(641.854,542.587,o),
(687.633,489.832,c),
(687.633,573.62,l),
(759.862,573.62,l),
(759.862,200.194,ls),
(759.862,169.161,o),
(774.104,137.094,o),
(811.745,137.094,cs),
(908.389,137.094,o),
(930.77,280.879,o),
(930.77,348.116,cs),
(930.77,542.587,o),
(815.814,757.747,o),
(564.538,757.747,cs),
(301.055,757.747,o),
(157.614,562.241,o),
(157.614,348.116,cs),
(157.614,133.991,o),
(301.055,-62.549,o),
(564.538,-62.549,cs),
(616.421,-62.549,o),
(670.339,-50.136,o),
(717.135,-28.413,c)
);
},
{
closed = 1;
nodes = (
(598.109,178.471,o),
(644.906,211.573,o),
(671.356,262.259,cs),
(680.512,280.879,o),
(689.667,308.808,o),
(689.667,328.462,cs),
(689.667,372.942,ls),
(689.667,391.562,o),
(679.494,420.526,o),
(670.339,437.076,cs),
(643.888,485.694,o),
(594.04,517.761,o),
(531.984,517.761,cs),
(427.201,517.761,o),
(373.284,433.973,o),
(373.284,349.151,cs),
(373.284,264.328,o),
(428.219,178.471,o),
(534.019,178.471,cs)
);
}
);
width = 1069;
}
);
unicode = 64;
},
{
glyphname = A;
layers = (
{
anchors = (
{
name = b.uni0326_1;
position = "{396, 0}";
},
{
name = m.uni0328_2;
position = "{733, 0}";
}
);
layerId = "7036C340-131A-4170-91E6-36E4B31F78AD";
shapes = (
{
closed = 1;
nodes = (
(43.061,1.081,l),
(329.295,703.515,l),
(459.491,703.515,l),
(745.724,1.081,l),
(608.571,1.081,l),
(535.025,185.568,l),
(253.761,185.568,l),
(180.215,1.081,l)
);
},
{
closed = 1;
nodes = (
(294.509,284.225,l),
(494.276,284.225,l),
(394.89,538.759,l)
);
}
);
width = 769;
},
{
anchors = (
{
name = b.uni0326_1;
position = "{373, 0}";
},
{
name = m.uni0328_2;
position = "{710, 0}";
}
);
layerId = "4DDF4BC2-1FF7-4978-B26A-B91C0D95F109";
shapes = (
{
closed = 1;
nodes = (
(25.026,0.08,l),
(310.147,702.538,l),
(430.355,702.538,l),
(715.476,0.08,l),
(590.301,0.08,l),
(516.785,184.574,l),
(223.717,184.574,l),
(150.201,0.08,l)
);
},
{
closed = 1;
nodes = (
(263.455,283.234,l),
(477.047,283.234,l),
(370.748,552.576,l)
);
}
);
width = 732;
},
{
anchors = (
{
name = b.uni0326_1;
position = "{344, 0}";
},
{
name = m.uni0328_2;
position = "{681, 0}";
}
);
layerId = "543DA35F-7ABF-43F9-9722-B424E2B2594A";
shapes = (
{
closed = 1;
nodes = (
(223,275,l),
(464,275,l),
(344,580,l)
);
},
{
closed = 1;
nodes = (
(499,187,l),
(188,187,l),
(114,0,l),
(9,0,l),
(291,700,l),
(396,700,l),
(678,0,l),
(573,0,l)
);
}
);
width = 687;
},
{
anchors = (
{
name = b.uni0326_1;
position = "{351, 0}";
},
{
name = m.uni0328_2;
position = "{688, 0}";
}
);
layerId = "E87EDBC8-E77D-435A-ADBF-1646AF857D52";
shapes = (
{
closed = 1;
nodes = (
(31.268,0.222,l),
(308.327,695.291,l),
(400.342,695.291,l),
(677.401,0.222,l),
(593.475,0.222,l),
(518.649,191.366,l),
(190.021,191.366,l),
(115.194,0.222,l)
);
},
{
closed = 1;
nodes = (
(217.322,260.873,l),
(491.347,260.873,l),
(354.84,611.474,l)
);
}
);
width = 698;
},
{
anchors = (
{
name = b.uni0326_1;
position = "{358, 0}";
},
{
name = m.uni0328_2;
position = "{695, 0}";
}
);
layerId = "C61358D5-F9AD-4529-B82F-EDAD2AAE1785";
shapes = (
{
closed = 1;
nodes = (
(46.557,0.553,l),
(321.255,691.641,l),
(405.7,691.641,l),
(680.398,0.553,l),
(607.145,0.553,l),
(531.858,194.016,l),
(195.098,194.016,l),
(119.81,0.553,l)
);
},
{
closed = 1;
nodes = (
(218.498,251.952,l),
(508.457,251.952,l),
(363.986,626.463,l)
);
}
);
width = 709;
}
);
unicode = 65;
},
{
glyphname = B;
layers = (
{
layerId = "7036C340-131A-4170-91E6-36E4B31F78AD";
shapes = (
{
closed = 1;
nodes = (
(218.278,413.951,l),
(373.173,413.951,l),
(441.247,413.951,o),
(471.832,454.824,o),
(471.832,507.376,cs),
(471.832,567.713,o),
(432.368,601.775,o),
(353.441,601.775,c),
(218.278,601.775,l)
);
},
{
closed = 1;
nodes = (
(218.278,112.264,l),
(380.079,112.264,l),
(454.073,112.264,o),
(492.55,149.245,o),
(492.55,205.69,cs),
(492.55,270.893,o),
(447.167,306.901,o),
(361.334,306.901,c),
(218.278,306.901,l)
);
},
{
closed = 1;
nodes = (
(89.035,0.349,l),
(89.035,706.878,l),
(357.387,706.878,ls),
(522.148,706.878,o),
(603.048,623.185,o),
(603.048,506.403,cs),
(603.048,453.851,o),
(581.343,402.272,o),
(530.041,364.318,c),
(599.102,324.418,o),
(624.753,264.081,o),
(624.753,200.824,cs),
(624.753,87.935,o),
(548.786,0.349,o),
(385.998,0.349,cs)
);
}
);
width = 668;
},
{
layerId = "4DDF4BC2-1FF7-4978-B26A-B91C0D95F109";
shapes = (
{
closed = 1;
nodes = (
(205.273,408.811,l),
(367.828,408.811,l),
(438.203,408.811,o),
(473.886,449.088,o),
(473.886,507.049,cs),
(473.886,573.85,o),
(426.308,606.269,o),
(348.004,606.269,c),
(205.273,606.269,l)
);
},
{
closed = 1;
nodes = (
(205.273,104.273,l),
(374.767,104.273,l),
(449.106,104.273,o),
(494.701,139.639,o),
(494.701,202.511,cs),
(494.701,275.207,o),
(440.185,308.608,o),
(355.934,308.608,c),
(205.273,308.608,l)
);
},
{
closed = 1;
nodes = (
(89.304,-0.841,l),
(89.304,704.507,l),
(351.969,704.507,ls),
(499.656,704.507,o),
(591.837,633.776,o),
(591.837,506.066,cs),
(591.837,450.071,o),
(567.057,398.005,o),
(515.516,362.639,c),
(583.908,325.308,o),
(613.643,266.366,o),
(613.643,197.599,cs),
(613.643,74.802,o),
(527.41,-0.841,o),
(380.714,-0.841,cs)
);
}
);
width = 657;
},
{
layerId = "543DA35F-7ABF-43F9-9722-B424E2B2594A";
shapes = (
{
closed = 1;
nodes = (
(89,0,l),
(89,700,l),
(344,700,ls),
(416,700,o),
(519,656,o),
(576,570,o),
(576,507,qs),
(576,459,o),
(531,384,o),
(491,360,q),
(543,335,o),
(598,251,o),
(598,193,qs),
(598,132,o),
(543,45,o),
(443,0,o),
(373,0,qs)
);
},
{
closed = 1;
nodes = (
(186,89,l),
(367,89,ls),
(429,89,o),
(498,148,o),
(498,198,qs),
(498,254,o),
(419,315,o),
(348,315,qs),
(186,315,l)
);
},
{
closed = 1;
nodes = (
(186,399,l),
(360,399,ls),
(414,399,o),
(477,457,o),
(477,508,qs),
(477,561,o),
(405,618,o),
(340,618,qs),
(186,618,l)
);
}
);
width = 641;
},
{
layerId = "E87EDBC8-E77D-435A-ADBF-1646AF857D52";
shapes = (
{
closed = 1;
nodes = (
(105.105,0.222,l),
(105.105,695.291,l),
(352.84,695.291,ls),
(477.213,695.291,o),
(577.318,642.139,o),
(577.318,508.236,cs),
(577.318,433.618,o),
(538.894,392.731,o),
(479.236,356.956,c),
(497.436,347.756,ls),
(565.184,313.003,o),
(599.564,262.917,o),
(599.564,187.277,cs),
(599.564,57.463,o),
(505.526,0.222,o),
(382.164,0.222,cs)
);
},
{
closed = 1;
nodes = (
(182.965,387.621,l),
(369.019,387.621,l),
(446.878,387.621,o),
(497.436,433.618,o),
(497.436,509.258,cs),
(497.436,596.142,o),
(432.722,631.917,o),
(348.795,631.917,c),
(182.965,631.917,l)
);
},
{
closed = 1;
nodes = (
(182.965,70.751,l),
(376.097,70.751,l),
(456.99,70.751,o),
(518.671,110.615,o),
(518.671,192.388,cs),
(518.671,285.405,o),
(445.867,322.202,o),
(356.885,322.202,c),
(182.965,322.202,l)
);
}
);
width = 649;
},
{
layerId = "C61358D5-F9AD-4529-B82F-EDAD2AAE1785";
shapes = (
{
closed = 1;
nodes = (
(109.8,0.551,l),
(109.8,691.544,l),
(353.955,691.544,ls),
(488.24,691.544,o),
(574.711,630.513,o),
(574.711,508.451,cs),
(574.711,452.593,o),
(549.279,403.975,o),
(496.378,370.873,cs),
(487.223,364.667,o),
(479.084,359.495,o),
(469.928,354.323,c),
(479.084,350.185,o),
(488.24,346.047,o),
(496.378,341.91,cs),
(566.573,306.739,o),
(597.092,252.949,o),
(597.092,183.643,cs),
(597.092,65.719,o),
(516.725,0.551,o),
(383.457,0.551,cs)
);
},
{
closed = 1;
nodes = (
(177.96,380.183,l),
(370.232,380.183,l),
(457.721,380.183,o),
(504.517,436.042,o),
(504.517,509.486,cs),
(504.517,594.308,o),
(444.496,639.823,o),
(349.886,639.823,c),
(177.96,639.823,l)
);
},
{
closed = 1;
nodes = (
(177.96,59.513,l),
(377.353,59.513,l),
(468.911,59.513,o),
(525.88,109.165,o),
(525.88,188.815,cs),
(525.88,279.844,o),
(458.738,326.393,o),
(358.024,326.393,c),
(177.96,326.393,l)
);
}
);
width = 649;
}
);
unicode = 66;
},
{
glyphname = C;
layers = (
{
anchors = (
{
name = t.uni0302;
position = "{402, 679}";
},
{
name = b.uni0326_1;
position = "{404, 0}";
}
);
layerId = "7036C340-131A-4170-91E6-36E4B31F78AD";
shapes = (
{
closed = 1;
nodes = (
(601.075,224.18,l),
(713.546,159.95,l),
(707.627,150.219,ls),
(651.391,57.766,o),
(548.786,-11.33,o),
(404.744,-11.33,cs),
(250.835,-11.33,o),
(144.284,65.552,o),
(89.035,165.789,cs),
(55.49,225.153,o),
(43.651,290.357,o),
(43.651,353.613,cs),
(43.651,416.87,o),
(55.49,481.1,o),
(89.035,541.437,cs),
(144.284,640.702,o),
(248.862,718.556,o),
(402.77,718.556,cs),
(547.799,718.556,o),
(649.418,650.434,o),
(706.64,557.008,cs),
(712.56,547.276,l),
(599.102,485.966,l),
(591.209,500.564,l),
(554.705,560.901,o),
(490.577,605.667,o),
(402.77,605.667,cs),
(307.071,605.667,o),
(240.969,553.116,o),
(205.452,485.966,cs),
(183.747,444.119,o),
(175.854,399.353,o),
(175.854,353.613,cs),
(175.854,307.874,o),
(183.747,262.134,o),
(206.439,221.261,cs),
(241.956,154.111,o),
(309.044,101.559,o),
(404.744,101.559,cs),
(494.523,101.559,o),
(556.678,147.299,o),
(592.196,209.583,c)
);
}
);
width = 752;
},
{
anchors = (
{
name = t.uni0302;
position = "{395, 679}";
},
{
name = b.uni0326_1;
position = "{397, 0}";
}
);
layerId = "4DDF4BC2-1FF7-4978-B26A-B91C0D95F109";
shapes = (
{
closed = 1;
nodes = (
(598.767,214.3,l),
(700.859,155.357,l),
(696.894,148.48,l),
(636.432,50.242,o),
(532.357,-12.63,o),
(398.546,-12.63,cs),
(156.696,-12.63,o),
(42.709,173.04,o),
(42.709,351.833,cs),
(42.709,415.687,o),
(55.595,480.524,o),
(87.313,539.467,cs),
(146.784,645.564,o),
(252.841,716.295,o),
(396.564,716.295,cs),
(532.357,716.295,o),
(635.441,654.406,o),
(695.903,555.185,cs),
(699.868,548.309,l),
(596.784,493.295,l),
(591.828,501.154,l),
(552.181,567.956,o),
(484.78,610.198,o),
(396.564,610.198,cs),
(235.,610.198,o),
(161.652,475.612,o),
(161.652,351.833,cs),
(161.652,305.661,o),
(170.573,258.507,o),
(192.379,216.264,cs),
(231.035,143.568,o),
(302.401,93.467,o),
(398.546,93.467,cs),
(488.745,93.467,o),
(555.154,137.674,o),
(593.811,205.458,cs)
);
}
);
width = 740;
},
{
anchors = (
{
name = t.uni0302;
position = "{385, 679}";
},
{
name = b.uni0326_1;
position = "{387, 0}";
}
);
layerId = "543DA35F-7ABF-43F9-9722-B424E2B2594A";
shapes = (
{
closed = 1;
nodes = (
(684,147,l),
(641,76,o),
(570,34,qs),
(493,-12,o),
(392,-12,qs),
(290,-12,o),
(132,80,o),
(43,244,o),
(43,350,qs),
(43,456,o),
(132,619,o),
(288,712,o),
(390,712,qs),
(492,712,o),
(570,666,qs),
(640,624,o),
(683,553,q),
(596,506,l),
(566,557,o),
(518,587,qs),
(462,622,o),
(390,622,qs),
(318,622,o),
(206,552,o),
(143,429,o),
(143,350,qs),
(143,270,o),
(207,148,o),
(320,78,o),
(392,78,qs),
(464,78,o),
(519,113,qs),
(568,144,o),
(598,197,q)
);
}
);
width = 722;
},
{
anchors = (
{
name = t.uni0302;
position = "{390, 679}";
},
{
name = b.uni0326_1;
position = "{392, 0}";
}
);
layerId = "E87EDBC8-E77D-435A-ADBF-1646AF857D52";
shapes = (
{
closed = 1;
nodes = (
(611.709,177.055,l),
(681.479,137.191,l),
(678.446,132.08,l),
(616.765,38.042,o),
(515.649,-12.044,o),
(400.376,-12.044,cs),
(184.998,-12.044,o),
(57.592,150.479,o),
(57.592,347.756,cs),
(57.592,544.011,o),
(183.987,707.557,o),
(398.354,707.557,cs),
(514.637,707.557,o),
(613.731,659.516,o),
(677.435,564.455,c),
(680.468,559.344,l),
(609.687,521.524,l),
(607.664,524.59,ls),
(561.151,596.142,o),
(485.314,636.006,o),
(398.354,636.006,cs),
(231.512,636.006,o),
(138.485,499.036,o),
(138.485,347.756,cs),
(138.485,195.454,o),
(233.534,59.507,o),
(400.376,59.507,cs),
(488.347,59.507,o),
(564.184,100.393,o),
(609.687,172.967,c)
);
}
);
width = 731;
},
{
anchors = (
{
name = t.uni0302;
position = "{390, 679}";
},
{
name = b.uni0326_1;
position = "{392, 0}";
}
);
layerId = "C61358D5-F9AD-4529-B82F-EDAD2AAE1785";
shapes = (
{
closed = 1;
nodes = (
(617.438,166.058,l),
(678.477,129.853,l),
(675.425,126.75,l),
(616.421,39.859,o),
(519.777,-11.862,o),
(402.786,-11.862,cs),
(172.874,-11.862,o),
(63.004,168.127,o),
(63.004,346.047,cs),
(63.004,521.899,o),
(172.874,703.957,o),
(400.751,703.957,cs),
(519.777,703.957,o),
(613.369,653.27,o),
(673.39,565.344,c),
(676.442,562.241,l),
(615.404,528.105,l),
(613.369,532.243,l),
(566.573,601.549,o),
(493.326,643.96,o),
(400.751,643.96,cs),
(218.653,643.96,o),
(134.216,487.763,o),
(134.216,346.047,cs),
(134.216,203.297,o),
(220.687,48.134,o),
(402.786,48.134,cs),
(496.378,48.134,o),
(569.625,91.58,o),
(615.404,161.92,c)
);
}
);
width = 731;
}
);
unicode = 67;
},
{
glyphname = D;
layers = (
{
anchors = (
{
name = t.uni0302;
position = "{324, 679}";
}
);
layerId = "7036C340-131A-4170-91E6-36E4B31F78AD";
shapes = (
{
closed = 1;
nodes = (
(219.264,115.184,l),
(358.374,115.184,l),
(461.966,115.184,o),
(533.987,184.28,o),
(563.585,259.215,cs),
(576.41,289.383,o),
(581.343,321.498,o),
(581.343,353.613,cs),
(581.343,385.728,o),
(576.41,417.843,o),
(563.585,448.012,cs),
(533.987,522.947,o),
(461.966,592.043,o),
(358.374,592.043,c),
(219.264,592.043,l)
);
},
{
closed = 1;
nodes = (
(89.035,0.349,l),
(89.035,706.878,l),
(358.374,706.878,ls),
(508.336,706.878,o),
(612.914,633.89,o),
(669.15,535.598,cs),
(701.707,478.181,o),
(713.546,414.924,o),
(713.546,353.613,cs),
(713.546,292.303,o),
(701.707,230.019,o),
(669.15,172.602,cs),
(613.901,74.31,o),
(508.336,0.349,o),
(358.374,0.349,cs)
);
}
);
width = 757;
},
{
anchors = (
{
name = t.uni0302;
position = "{317, 679}";
}
);
layerId = "4DDF4BC2-1FF7-4978-B26A-B91C0D95F109";
shapes = (
{
closed = 1;
nodes = (
(206.264,107.22,l),
(352.96,107.22,l),
(501.639,107.22,o),
(583.908,235.912,o),
(583.908,351.833,cs),
(583.908,467.753,o),
(501.639,596.445,o),
(352.96,596.445,c),
(206.264,596.445,l)
);
},
{
closed = 1;
nodes = (
(89.304,-0.841,l),
(89.304,704.507,l),
(352.96,704.507,ls),
(492.718,704.507,o),
(599.767,638.687,o),
(658.247,534.555,cs),
(689.965,477.577,o),
(702.85,413.723,o),
(702.85,351.833,cs),
(702.85,289.943,o),
(689.965,227.071,o),
(658.247,170.093,cs),
(599.767,66.943,o),
(492.718,-0.841,o),
(352.96,-0.841,cs)
);
}
);
width = 746;
},
{
anchors = (
{
name = t.uni0302;
position = "{307, 679}";
}
);
layerId = "543DA35F-7ABF-43F9-9722-B424E2B2594A";
shapes = (
{
closed = 1;
nodes = (
(89,0,l),
(89,700,l),
(345,700,ls),
(445,700,o),
(600,611,o),
(688,453,o),
(688,350,qs),
(688,248,o),
(600,90,o),
(445,0,o),
(345,0,qs)
);
},
{
closed = 1;
nodes = (
(187,92,l),
(345,92,ls),
(396,92,o),
(484,131,o),
(551,202,o),
(588,296,o),
(588,350,qs),
(588,404,o),
(551,498,o),
(484,569,o),
(396,608,o),
(345,608,qs),
(187,608,l)
);
}
);
width = 731;
},
{
anchors = (
{
name = t.uni0302;
position = "{312, 679}";
}
);
layerId = "E87EDBC8-E77D-435A-ADBF-1646AF857D52";
shapes = (
{
closed = 1;
nodes = (
(105.105,0.222,l),
(105.105,695.291,l),
(353.851,695.291,ls),
(563.162,695.291,o),
(690.569,540.945,o),
(690.569,347.756,cs),
(690.569,155.59,o),
(561.14,0.222,o),
(353.851,0.222,cs)
);
},
{
closed = 1;
nodes = (
(183.976,73.817,l),
(353.851,73.817,l),
(508.559,73.817,o),
(609.676,205.676,o),
(609.676,347.756,cs),
(609.676,489.837,o),
(508.559,621.696,o),
(353.851,621.696,c),
(183.976,621.696,l)
);
}
);
width = 739;
},
{
anchors = (
{
name = t.uni0302;
position = "{312, 679}";
}
);
layerId = "C61358D5-F9AD-4529-B82F-EDAD2AAE1785";
shapes = (
{
closed = 1;
nodes = (
(109.8,0.551,l),
(109.8,691.544,l),
(354.972,691.544,ls),
(577.763,691.544,o),
(688.65,520.864,o),
(688.65,346.047,cs),
(688.65,172.265,o),
(576.746,0.551,o),
(354.972,0.551,cs)
);
},
{
closed = 1;
nodes = (
(178.977,62.616,l),
(354.972,62.616,l),
(523.846,62.616,o),
(617.438,212.607,o),
(617.438,346.047,cs),
(617.438,479.488,o),
(523.846,629.479,o),
(354.972,629.479,c),
(178.977,629.479,l)
);
}
);
width = 739;
}
);
rightKerningGroup = D;
unicode = 68;
},
{
glyphname = E;
layers = (
{
anchors = (
{
name = t.uni0302;
position = "{319, 679}";
},
{
name = b.uni0326_1;
position = "{297, 0}";
},
{
name = m.uni0328_2;
position = "{532, 0}";
}
);
layerId = "7036C340-131A-4170-91E6-36E4B31F78AD";
shapes = (
{
closed = 1;
nodes = (
(89.035,0.349,l),
(89.035,706.878,l),
(587.263,706.878,l),
(587.263,593.989,l),
(219.264,593.989,l),
(219.264,416.87,l),
(555.692,416.87,l),
(555.692,305.928,l),
(219.264,305.928,l),
(219.264,113.238,l),
(589.236,113.238,l),
(589.236,0.349,l)
);
}
);
width = 633;
},
{
anchors = (
{
name = t.uni0302;
position = "{312, 679}";
},
{
name = b.uni0326_1;
position = "{290, 0}";
},
{
name = m.uni0328_2;
position = "{525, 0}";
}
);
layerId = "4DDF4BC2-1FF7-4978-B26A-B91C0D95F109";
shapes = (
{
closed = 1;
nodes = (
(89.304,-0.841,l),
(89.304,704.507,l),
(575.978,704.507,l),
(575.978,598.41,l),
(206.264,598.41,l),
(206.264,411.758,l),
(544.26,411.758,l),
(544.26,307.626,l),
(206.264,307.626,l),
(206.264,105.256,l),
(577.96,105.256,l),
(577.96,-0.841,l)
);
}
);
width = 621;
},
{
anchors = (
{
name = t.uni0302;
position = "{302, 679}";
},
{
name = b.uni0326_1;
position = "{280, 0}";
},
{
name = m.uni0328_2;
position = "{515, 0}";
}
);
layerId = "543DA35F-7ABF-43F9-9722-B424E2B2594A";
shapes = (
{
closed = 1;
nodes = (
(89,0,l),
(89,700,l),
(560,700,l),
(560,610,l),
(187,610,l),
(187,402,l),
(528,402,l),
(528,314,l),
(187,314,l),
(187,90,l),
(562,90,l),
(562,0,l)
);
}
);
width = 605;
},
{
anchors = (
{
name = t.uni0302;
position = "{307, 679}";
},
{
name = b.uni0326_1;
position = "{285, 0}";
},
{
name = m.uni0328_2;
position = "{520, 0}";
}
);
layerId = "E87EDBC8-E77D-435A-ADBF-1646AF857D52";
shapes = (
{
closed = 1;
nodes = (
(105.105,0.222,l),
(105.105,695.291,l),
(561.14,695.291,l),
(561.14,623.74,l),
(183.976,623.74,l),
(183.976,390.687,l),
(528.782,390.687,l),
(528.782,321.18,l),
(183.976,321.18,l),
(183.976,71.773,l),
(563.162,71.773,l),
(563.162,0.222,l)
);
}
);
width = 613;
},
{
anchors = (
{
name = t.uni0302;
position = "{307, 679}";
},
{
name = b.uni0326_1;
position = "{285, 0}";
},
{
name = m.uni0328_2;
position = "{520, 0}";
}
);
layerId = "C61358D5-F9AD-4529-B82F-EDAD2AAE1785";
shapes = (
{
closed = 1;
nodes = (
(109.8,0.551,l),
(109.8,691.544,l),
(558.434,691.544,l),
(558.434,631.547,l),
(178.977,631.547,l),
(178.977,383.286,l),
(525.88,383.286,l),
(525.88,325.359,l),
(178.977,325.359,l),
(178.977,60.547,l),
(560.469,60.547,l),
(560.469,0.551,l)
);
}
);
width = 613;
}
);
unicode = 69;
},
{
glyphname = F;
layers = (
{
layerId = "7036C340-131A-4170-91E6-36E4B31F78AD";
shapes = (
{
closed = 1;
nodes = (
(89.035,0.349,l),
(89.035,706.878,l),
(540.893,706.878,l),
(540.893,593.989,l),
(219.264,593.989,l),
(219.264,405.192,l),
(499.456,405.192,l),
(499.456,292.303,l),
(219.264,292.303,l),
(219.264,0.349,l)
);
}
);
width = 575;
},
{
layerId = "4DDF4BC2-1FF7-4978-B26A-B91C0D95F109";
shapes = (
{
closed = 1;
nodes = (
(89.304,-0.841,l),
(89.304,704.507,l),
(529.392,704.507,l),
(529.392,598.41,l),
(206.264,598.41,l),
(206.264,399.969,l),
(487.762,399.969,l),
(487.762,293.872,l),
(206.264,293.872,l),
(206.264,-0.841,l)
);
}
);
width = 563;
},
{
layerId = "543DA35F-7ABF-43F9-9722-B424E2B2594A";
shapes = (
{
closed = 1;
nodes = (
(89,0,l),
(89,700,l),
(513,700,l),
(513,610,l),
(187,610,l),
(187,390,l),
(471,390,l),
(471,300,l),
(187,300,l),
(187,0,l)
);
}
);
width = 546;
},
{
layerId = "E87EDBC8-E77D-435A-ADBF-1646AF857D52";
shapes = (
{
closed = 1;
nodes = (
(105.105,0.222,l),
(105.105,695.291,l),
(513.615,695.291,l),
(513.615,623.74,l),
(183.976,623.74,l),
(183.976,378.421,l),
(471.146,378.421,l),
(471.146,306.87,l),
(183.976,306.87,l),
(183.976,0.222,l)
);
}
);
width = 554;
},
{
layerId = "C61358D5-F9AD-4529-B82F-EDAD2AAE1785";
shapes = (
{
closed = 1;
nodes = (
(109.8,0.551,l),
(109.8,691.544,l),
(510.621,691.544,l),
(510.621,631.547,l),
(178.977,631.547,l),
(178.977,370.873,l),
(467.894,370.873,l),
(467.894,310.877,l),
(178.977,310.877,l),
(178.977,0.551,l)
);
}
);
width = 555;
}
);
unicode = 70;
},
{
glyphname = G;
layers = (
{
anchors = (
{
name = t.uni0302;
position = "{404, 700}";
},
{
name = b.uni0326_1;
position = "{424, 0}";
}
);
layerId = "7036C340-131A-4170-91E6-36E4B31F78AD";
shapes = (
{
closed = 1;
nodes = (
(415.596,294.249,l),
(351.468,405.192,l),
(757.943,405.192,l),
(758.93,393.514,ls),
(759.916,379.889,o),
(760.903,367.238,o),
(760.903,353.613,cs),
(760.903,247.537,o),
(730.318,96.694,o),
(595.155,30.517,cs),
(536.947,2.295,o),
(472.818,-11.33,o),
(404.744,-11.33,cs),
(250.835,-11.33,o),
(144.284,65.552,o),
(89.035,165.789,cs),
(55.49,225.153,o),
(43.651,290.357,o),
(43.651,353.613,cs),
(43.651,416.87,o),
(55.49,481.1,o),
(89.035,541.437,cs),
(144.284,640.702,o),
(248.862,718.556,o),
(402.77,718.556,cs),
(536.947,718.556,o),
(634.619,660.165,o),
(694.801,574.526,cs),
(707.627,556.035,l),
(543.853,556.035,l),
(538.92,559.928,ls),
(499.456,590.096,o),
(458.019,605.667,o),
(402.77,605.667,cs),
(307.071,605.667,o),
(240.969,553.116,o),
(205.452,485.966,cs),
(183.747,444.119,o),
(175.854,399.353,o),
(175.854,353.613,cs),
(175.854,307.874,o),
(183.747,262.134,o),
(206.439,221.261,cs),
(241.956,154.111,o),
(309.044,101.559,o),
(404.744,101.559,cs),
(448.153,101.559,o),
(489.59,110.318,o),
(526.094,128.809,cs),
(592.196,161.897,o),
(615.874,230.993,o),
(624.753,294.249,c)
);
}
);
width = 804;
},
{
anchors = (
{
name = t.uni0302;
position = "{397, 700}";
},
{
name = b.uni0326_1;
position = "{417, 0}";
}
);
layerId = "4DDF4BC2-1FF7-4978-B26A-B91C0D95F109";
shapes = (
{
closed = 1;
nodes = (
(414.405,295.837,l),
(354.934,399.969,l),
(746.454,399.969,l),
(747.445,392.11,l),
(748.436,378.357,o),
(749.427,365.586,o),
(749.427,351.833,cs),
(749.427,238.859,o),
(714.736,93.467,o),
(585.881,29.612,cs),
(528.392,1.123,o),
(463.965,-12.63,o),
(398.546,-12.63,cs),
(156.696,-12.63,o),
(42.709,173.04,o),
(42.709,351.833,cs),
(42.709,415.687,o),
(55.595,480.524,o),
(87.313,539.467,cs),
(146.784,645.564,o),
(253.833,716.295,o),
(396.564,716.295,cs),
(522.445,716.295,o),
(620.573,663.247,o),
(684.009,572.868,c),
(691.938,560.097,l),
(541.278,560.097,l),
(538.304,563.044,l),
(496.674,594.48,o),
(453.062,610.198,o),
(396.564,610.198,cs),
(235.991,610.198,o),
(161.652,475.612,o),
(161.652,351.833,cs),
(161.652,305.661,o),
(170.573,258.507,o),
(192.379,216.264,cs),
(231.035,143.568,o),
(302.401,93.467,o),
(398.546,93.467,cs),
(443.15,93.467,o),
(486.762,102.308,o),
(524.427,120.974,cs),
(593.811,156.339,o),
(618.59,228.053,o),
(627.511,295.837,c)
);
}
);
width = 793;
},
{
anchors = (
{
name = t.uni0302;
position = "{387, 700}";
},
{
name = b.uni0326_1;
position = "{407, 0}";
}
);
layerId = "543DA35F-7ABF-43F9-9722-B424E2B2594A";
shapes = (
{
closed = 1;
nodes = (
(414,302,l),
(364,390,l),
(734,390,l),
(736,370,o),
(736,350,qs),
(736,244,o),
(658,70,o),
(493,-12,o),
(392,-12,qs),
(290,-12,o),
(132,80,o),
(43,244,o),
(43,350,qs),
(43,456,o),
(132,619,o),
(288,712,o),
(390,712,qs),
(492,712,o),
(570,666,qs),
(631,629,o),
(671,571,q),
(540,571,l),
(518,587,l),
(462,622,o),
(390,622,qs),
(318,622,o),
(206,552,o),
(143,429,o),
(143,350,qs),
(143,270,o),
(207,148,o),
(320,78,o),
(392,78,qs),
(464,78,o),
(584,138,o),
(610,204,qs),
(628,250,o),
(634,302,q)
);
}
);
width = 779;
},
{
anchors = (
{
name = t.uni0302;
position = "{392, 700}";
},
{
name = b.uni0326_1;
position = "{412, 0}";
}
);
layerId = "E87EDBC8-E77D-435A-ADBF-1646AF857D52";
shapes = (
{
closed = 1;
nodes = (
(428.689,308.914,l),
(390.264,378.421,l),
(736.082,378.421,l),
(737.093,374.333,l),
(738.104,365.133,o),
(738.104,356.956,o),
(738.104,347.756,cs),
(738.104,136.169,o),
(633.955,-12.044,o),
(400.376,-12.044,cs),
(184.998,-12.044,o),
(57.592,150.479,o),
(57.592,347.756,cs),
(57.592,544.011,o),
(183.987,707.557,o),
(398.354,707.557,cs),
(500.481,707.557,o),
(591.486,669.737,o),
(656.2,592.053,c),
(662.267,583.876,l),
(553.062,583.876,l),
(552.05,584.898,l),
(505.537,619.651,o),
(457.001,636.006,o),
(398.354,636.006,cs),
(231.512,636.006,o),
(138.485,499.036,o),
(138.485,347.756,cs),
(138.485,195.454,o),
(233.534,59.507,o),
(400.376,59.507,cs),
(447.901,59.507,o),
(496.436,69.729,o),
(538.905,91.194,cs),
(624.854,136.169,o),
(646.089,219.986,o),
(657.211,308.914,c)
);
}
);
width = 786;
},
{
anchors = (
{
name = t.uni0302;
position = "{392, 700}";
},
{
name = b.uni0326_1;
position = "{412, 0}";
}
);
layerId = "C61358D5-F9AD-4529-B82F-EDAD2AAE1785";
shapes = (
{
closed = 1;
nodes = (
(434.322,312.946,l),
(400.751,370.873,l),
(735.446,370.873,l),
(736.464,366.736,ls),
(737.481,360.529,o),
(737.481,353.288,o),
(737.481,346.047,cs),
(737.481,234.33,o),
(704.927,91.58,o),
(582.85,28.48,cs),
(528.932,0.551,o),
(465.859,-11.862,o),
(402.786,-11.862,cs),
(172.874,-11.862,o),
(63.004,168.127,o),
(63.004,346.047,cs),
(63.004,521.899,o),
(172.874,703.957,o),
(400.751,703.957,cs),
(501.465,703.957,o),
(587.936,667.752,o),
(648.975,598.446,cs),
(655.079,591.205,l),
(558.434,591.205,l),
(557.417,592.239,l),
(510.621,626.375,o),
(461.79,643.96,o),
(400.751,643.96,cs),
(218.653,643.96,o),
(134.216,487.763,o),
(134.216,346.047,cs),
(134.216,203.297,o),
(220.687,48.134,o),
(402.786,48.134,cs),
(451.617,48.134,o),
(501.465,59.513,o),
(543.175,81.236,cs),
(633.715,127.784,o),
(659.148,226.054,o),
(666.269,312.946,c)
);
}
);
width = 786;
}
);
unicode = 71;
},
{
glyphname = H;
layers = (
{
layerId = "D017261F-52B8-49CC-A643-11FE4140B5DB";
name = "#instance";
shapes = (
{
closed = 1;
nodes = (
(109.8,0.551,l),
(109.8,691.544,l),
(178.977,691.544,l),
(178.977,386.39,l),
(593.023,386.39,l),
(593.023,691.544,l),
(662.2,691.544,l),
(662.2,0.551,l),
(593.023,0.551,l),
(593.023,326.393,l),
(178.977,326.393,l),
(178.977,0.551,l)
);
}
);
width = 758;
},
{
layerId = "7036C340-131A-4170-91E6-36E4B31F78AD";
shapes = (
{
closed = 1;
nodes = (
(89.035,0.349,l),
(89.035,706.878,l),
(219.264,706.878,l),
(219.264,419.79,l),
(557.665,419.79,l),
(557.665,706.878,l),
(687.895,706.878,l),
(687.895,0.349,l),
(557.665,0.349,l),
(557.665,306.901,l),
(219.264,306.901,l),
(219.264,0.349,l)
);
}
);
width = 778;
},
{
layerId = "4DDF4BC2-1FF7-4978-B26A-B91C0D95F109";
shapes = (
{
closed = 1;
nodes = (
(89.304,-0.841,l),
(89.304,704.507,l),
(206.264,704.507,l),
(206.264,414.705,l),
(560.119,414.705,l),
(560.119,704.507,l),
(677.079,704.507,l),
(677.079,-0.841,l),
(560.119,-0.841,l),
(560.119,308.608,l),
(206.264,308.608,l),
(206.264,-0.841,l)
);
}
);
width = 766;
},
{
layerId = "543DA35F-7ABF-43F9-9722-B424E2B2594A";
shapes = (
{
closed = 1;
nodes = (
(187,315,l),
(187,0,l),
(89,0,l),
(89,700,l),
(187,700,l),
(187,405,l),
(564,405,l),
(564,700,l),
(662,700,l),
(662,0,l),
(564,0,l),
(564,315,l)
);
}
);
width = 751;
},
{
layerId = "E87EDBC8-E77D-435A-ADBF-1646AF857D52";
shapes = (
{
closed = 1;
nodes = (
(105.105,0.222,l),
(105.105,695.291,l),
(183.976,695.291,l),
(183.976,393.754,l),
(585.408,393.754,l),
(585.408,695.291,l),
(664.278,695.291,l),
(664.278,0.222,l),
(585.408,0.222,l),
(585.408,322.202,l),
(183.976,322.202,l),
(183.976,0.222,l)
);
}
);
width = 758;
},
{
layerId = "C61358D5-F9AD-4529-B82F-EDAD2AAE1785";
shapes = (
{
closed = 1;
nodes = (
(109.8,0.551,l),
(109.8,691.544,l),
(178.977,691.544,l),
(178.977,386.39,l),
(593.023,386.39,l),
(593.023,691.544,l),
(662.2,691.544,l),
(662.2,0.551,l),
(593.023,0.551,l),
(593.023,326.393,l),
(178.977,326.393,l),
(178.977,0.551,l)
);
}
);
width = 758;
}
);
unicode = 72;
},
{
glyphname = I;
layers = (
{
anchors = (
{
name = t.uni0302;
position = "{156, 679}";
},
{
name = b.uni0326_1;
position = "{156, 0}";
},
{
name = m.uni0328_2;
position = "{207, 0}";
}
);
layerId = "7036C340-131A-4170-91E6-36E4B31F78AD";
shapes = (
{
closed = 1;
nodes = (
(89.035,0.349,l),
(89.035,706.878,l),
(219.264,706.878,l),
(219.264,0.349,l)
);
}
);
width = 309;
},
{
anchors = (
{
name = t.uni0302;
position = "{149, 679}";
},
{
name = b.uni0326_1;
position = "{149, 0}";
},
{
name = m.uni0328_2;
position = "{200, 0}";
}
);
layerId = "4DDF4BC2-1FF7-4978-B26A-B91C0D95F109";
shapes = (
{
closed = 1;
nodes = (
(89.304,-0.841,l),
(89.304,704.507,l),
(206.264,704.507,l),
(206.264,-0.841,l)
);
}
);
width = 296;
},
{
anchors = (
{
name = t.uni0302;
position = "{139, 679}";
},
{
name = b.uni0326_1;
position = "{139, 0}";
},
{
name = m.uni0328_2;
position = "{190, 0}";
}
);
layerId = "543DA35F-7ABF-43F9-9722-B424E2B2594A";
shapes = (
{
closed = 1;
nodes = (
(89,0,l),
(89,700,l),
(187,700,l),
(187,0,l)
);
}
);
width = 276;
},
{
anchors = (
{
name = t.uni0302;
position = "{144, 679}";
},
{
name = b.uni0326_1;
position = "{144, 0}";
},
{
name = m.uni0328_2;
position = "{195, 0}";
}
);
layerId = "E87EDBC8-E77D-435A-ADBF-1646AF857D52";
shapes = (
{
closed = 1;
nodes = (
(105.105,0.222,l),
(105.105,695.291,l),
(183.976,695.291,l),
(183.976,0.222,l)
);
}
);
width = 286;
},
{
anchors = (
{
name = t.uni0302;
position = "{144, 679}";
},
{
name = b.uni0326_1;
position = "{144, 0}";
},
{
name = m.uni0328_2;
position = "{195, 0}";
}
);
layerId = "C61358D5-F9AD-4529-B82F-EDAD2AAE1785";
shapes = (
{
closed = 1;
nodes = (
(109.8,0.551,l),
(109.8,691.544,l),
(178.977,691.544,l),
(178.977,0.551,l)
);
}
);
width = 286;
}
);
unicode = 73;
},
{
glyphname = J;
layers = (
{
anchors = (
{
name = t.uni0302;
position = "{416, 670}";
}
);
layerId = "7036C340-131A-4170-91E6-36E4B31F78AD";
shapes = (
{
closed = 1;
nodes = (
(7.174,140.487,l),
(112.74,193.039,l),
(120.632,178.441,l),
(140.364,137.567,o),
(171.935,101.559,o),
(224.224,101.559,cs),
(243.956,101.559,o),
(263.688,106.425,o),
(281.446,115.184,cs),
(332.749,140.487,o),
(346.561,201.797,o),
(346.561,252.403,cs),
(346.561,706.878,l),
(476.791,706.878,l),
(476.791,218.341,ls),
(476.791,185.253,o),
(471.858,152.165,o),
(456.073,120.05,cs),
(419.569,43.169,o),
(337.682,-11.33,o),
(224.224,-11.33,cs),
(109.78,-11.33,o),
(39.732,58.74,o),
(11.121,130.755,cs)
);
}
);
width = 556;
},
{
anchors = (
{
name = t.uni0302;
position = "{408, 670}";
}
);
layerId = "4DDF4BC2-1FF7-4978-B26A-B91C0D95F109";
shapes = (
{
closed = 1;
nodes = (
(7.044,134.727,l),
(102.198,181.881,l),
(106.163,173.04,l),
(127.969,129.815,o),
(161.67,93.467,o),
(217.176,93.467,cs),
(238.982,93.467,o),
(259.797,98.379,o),
(278.63,107.22,c),
(332.154,134.727,o),
(347.022,196.617,o),
(347.022,249.665,cs),
(347.022,704.507,l),
(463.982,704.507,l),
(463.982,215.282,ls),
(463.982,91.502,o),
(374.775,-12.63,o),
(217.176,-12.63,cs),
(112.11,-12.63,o),
(40.744,50.242,o),
(10.018,127.85,c)
);
}
);
width = 544;
},
{
anchors = (
{
name = t.uni0302;
position = "{396, 670}";
}
);
layerId = "543DA35F-7ABF-43F9-9722-B424E2B2594A";
shapes = (
{
closed = 1;
nodes = (
(166,-12,o),
(101,12,o),
(51,51,o),
(17,100,o),
(7,125,q),
(86,165,l),
(105,126,o),
(164,78,o),
(207,78,qs),
(242,78,o),
(306,110,o),
(348,185,o),
(348,246,qs),
(348,700,l),
(446,700,l),
(446,211,ls),
(446,156,o),
(407,73,o),
(340,16,o),
(254,-12,o),
(207,-12,qs)
);
}
);
width = 525;
},
{
anchors = (
{
name = t.uni0302;
position = "{402, 670}";
}
);
layerId = "E87EDBC8-E77D-435A-ADBF-1646AF857D52";
shapes = (
{
closed = 1;
nodes = (
(26.223,112.659,l),
(88.915,144.346,l),
(90.938,140.258,l),
(117.228,92.216,o),
(157.674,59.507,o),
(215.311,59.507,cs),
(323.505,59.507,o),
(367.996,146.391,o),
(367.996,241.452,cs),
(367.996,695.291,l),
(446.867,695.291,l),
(446.867,205.676,ls),
(446.867,73.817,o),
(348.784,-12.044,o),
(215.311,-12.044,cs),
(130.373,-12.044,o),
(62.625,34.975,o),
(28.246,108.571,cs)
);
}
);
width = 534;
},
{
anchors = (
{
name = t.uni0302;
position = "{402, 670}";
}
);
layerId = "C61358D5-F9AD-4529-B82F-EDAD2AAE1785";
shapes = (
{
closed = 1;
nodes = (
(33.467,106.062,l),
(87.385,132.957,l),
(89.419,128.819,l),
(115.87,83.304,o),
(157.579,48.134,o),
(216.583,48.134,cs),
(334.591,48.134,o),
(375.284,148.473,o),
(375.284,238.467,cs),
(375.284,691.544,l),
(444.461,691.544,l),
(444.461,202.263,ls),
(444.461,83.304,o),
(360.024,-11.862,o),
(216.583,-11.862,cs),
(130.112,-11.862,o),
(67.039,36.755,o),
(35.502,101.924,cs)
);
}
);
width = 534;
}
);
unicode = 74;
},
{
glyphname = K;
layers = (
{
anchors = (
{
name = t.uni0302;
position = "{330, 700}";
},
{
name = b.uni0326_1;
position = "{330, 0}";
}
);
layerId = "7036C340-131A-4170-91E6-36E4B31F78AD";
shapes = (
{
closed = 1;
nodes = (
(89.035,0.349,l),
(89.035,706.878,l),
(216.305,706.878,l),
(216.305,407.138,l),
(473.805,706.878,l),
(637.579,706.878,l),
(321.87,354.587,l),
(651.391,0.349,l),
(490.577,0.349,l),
(216.305,305.928,l),
(216.305,0.349,l)
);
}
);
width = 668;
},
{
anchors = (
{
name = t.uni0302;
position = "{323, 700}";
},
{
name = b.uni0326_1;
position = "{323, 0}";
}
);
layerId = "4DDF4BC2-1FF7-4978-B26A-B91C0D95F109";
shapes = (
{
closed = 1;
nodes = (
(89.304,-0.841,l),
(89.304,704.507,l),
(203.291,704.507,l),
(203.291,388.181,l),
(472.894,704.507,l),
(621.573,704.507,l),
(308.357,352.815,l),
(635.449,-0.841,l),
(489.745,-0.841,l),
(203.291,320.397,l),
(203.291,-0.841,l)
);
}
);
width = 652;
},
{
anchors = (
{
name = t.uni0302;
position = "{313, 700}";
},
{
name = b.uni0326_1;
position = "{313, 0}";
}
);
layerId = "543DA35F-7ABF-43F9-9722-B424E2B2594A";
shapes = (
{
closed = 1;
nodes = (
(184,343,l),
(184,0,l),
(89,0,l),
(89,700,l),
(184,700,l),
(184,361,l),
(471,700,l),
(596,700,l),
(287,351,l),
(609,0,l),
(488,0,l)
);
}
);
width = 625;
},
{
anchors = (
{
name = t.uni0302;
position = "{318, 700}";
},
{
name = b.uni0326_1;
position = "{318, 0}";
}
);
layerId = "E87EDBC8-E77D-435A-ADBF-1646AF857D52";
shapes = (
{
closed = 1;
nodes = (
(503.503,0.222,l),
(197.121,349.801,l),
(486.314,695.291,l),
(585.408,695.291,l),
(281.048,348.779,l),
(597.542,0.222,l)
);
},
{
closed = 1;
nodes = (
(105.105,0.222,l),
(105.105,695.291,l),
(180.942,695.291,l),
(180.942,0.222,l)
);
}
);
width = 639;
},
{
anchors = (
{
name = t.uni0302;
position = "{318, 700}";
},
{
name = b.uni0326_1;
position = "{318, 0}";
}
);
layerId = "C61358D5-F9AD-4529-B82F-EDAD2AAE1785";
shapes = (
{
closed = 1;
nodes = (
(507.569,0.551,l),
(204.41,348.116,l),
(490.275,691.544,l),
(575.729,691.544,l),
(274.605,347.082,l),
(587.936,0.551,l)
);
},
{
closed = 1;
nodes = (
(109.8,0.551,l),
(109.8,691.544,l),
(175.926,691.544,l),
(175.926,0.551,l)
);
}
);
width = 638;
}
);
unicode = 75;
},
{
glyphname = L;
layers = (
{
layerId = "7036C340-131A-4170-91E6-36E4B31F78AD";
shapes = (
{
closed = 1;
nodes = (
(89.035,0.349,l),
(89.035,706.878,l),
(219.264,706.878,l),
(219.264,113.238,l),
(648.431,113.238,l),
(648.431,0.349,l)
);
}
);
width = 673;
},
{
layerId = "4DDF4BC2-1FF7-4978-B26A-B91C0D95F109";
shapes = (
{
closed = 1;
nodes = (
(89.304,-0.841,l),
(89.304,704.507,l),
(206.264,704.507,l),
(206.264,105.256,l),
(637.432,105.256,l),
(637.432,-0.841,l)
);
}
);
width = 662;
},
{
layerId = "543DA35F-7ABF-43F9-9722-B424E2B2594A";
shapes = (
{
closed = 1;
nodes = (
(89,0,l),
(89,700,l),
(187,700,l),
(187,90,l),
(622,90,l),
(622,0,l)
);
}
);
width = 646;
},
{
layerId = "E87EDBC8-E77D-435A-ADBF-1646AF857D52";
shapes = (
{
closed = 1;
nodes = (
(105.105,0.222,l),
(105.105,695.291,l),
(183.976,695.291,l),
(183.976,71.773,l),
(623.832,71.773,l),
(623.832,0.222,l)
);
}
);
width = 654;
},
{
layerId = "C61358D5-F9AD-4529-B82F-EDAD2AAE1785";
shapes = (
{
closed = 1;
nodes = (
(109.8,0.551,l),
(109.8,691.544,l),
(178.977,691.544,l),
(178.977,60.547,l),
(621.508,60.547,l),
(621.508,0.551,l)
);
}
);
width = 654;
}
);
unicode = 76;
},
{
glyphname = M;
layers = (
{
layerId = "7036C340-131A-4170-91E6-36E4B31F78AD";
shapes = (
{
closed = 1;
nodes = (
(89.035,0.349,l),
(89.035,706.878,l),
(188.68,706.878,l),
(437.301,385.728,l),
(684.935,706.878,l),
(784.581,706.878,l),
(784.581,0.349,l),
(654.351,0.349,l),
(654.351,454.824,l),
(436.314,173.575,l),
(219.264,453.851,l),
(219.264,0.349,l)
);
}
);
width = 874;
},
{
layerId = "4DDF4BC2-1FF7-4978-B26A-B91C0D95F109";
shapes = (
{
closed = 1;
nodes = (
(89.304,-0.841,l),
(89.304,704.507,l),
(177.52,704.507,l),
(432.256,374.427,l),
(686.,704.507,l),
(774.216,704.507,l),
(774.216,-0.841,l),
(657.256,-0.841,l),
(657.256,472.665,l),
(431.264,179.916,l),
(206.264,471.683,l),
(206.264,-0.841,l)
);
}
);
width = 864;
},
{
layerId = "543DA35F-7ABF-43F9-9722-B424E2B2594A";
shapes = (
{
closed = 1;
nodes = (
(89,0,l),
(89,700,l),
(163,700,l),
(425,357,l),
(686,700,l),
(760,700,l),
(760,0,l),
(662,0,l),
(662,502,l),
(424,191,l),
(187,501,l),
(187,0,l)
);
}
);
width = 849;
},
{
layerId = "E87EDBC8-E77D-435A-ADBF-1646AF857D52";
shapes = (
{
closed = 1;
nodes = (
(105.105,0.222,l),
(105.105,695.291,l),
(165.775,695.291,l),
(434.744,337.535,l),
(702.703,695.291,l),
(763.372,695.291,l),
(763.372,0.222,l),
(684.502,0.222,l),
(684.502,533.79,l),
(433.733,202.61,l),
(183.976,532.768,l),
(183.976,0.222,l)
);
}
);
width = 855;
},
{
layerId = "C61358D5-F9AD-4529-B82F-EDAD2AAE1785";
shapes = (
{
closed = 1;
nodes = (
(109.8,0.551,l),
(109.8,691.544,l),
(162.7,691.544,l),
(436.357,327.428,l),
(708.996,691.544,l),
(761.897,691.544,l),
(761.897,0.551,l),
(692.719,0.551,l),
(692.719,549.828,l),
(435.34,207.435,l),
(178.977,548.794,l),
(178.977,0.551,l)
);
}
);
width = 856;
}
);
unicode = 77;
},
{
glyphname = N;
layers = (
{
anchors = (
{
name = t.uni0302;
position = "{400, 673}";
},
{
name = b.uni0326_1;
position = "{405, 0}";
}
);
layerId = "7036C340-131A-4170-91E6-36E4B31F78AD";
shapes = (
{
closed = 1;
nodes = (
(89.035,0.349,l),
(89.035,706.878,l),
(184.734,706.878,l),
(579.37,244.617,l),
(579.37,706.878,l),
(710.587,706.878,l),
(710.587,0.349,l),
(616.86,0.349,l),
(219.264,467.476,l),
(219.264,0.349,l)
);
}
);
width = 800;
},
{
anchors = (
{
name = t.uni0302;
position = "{393, 673}";
},
{
name = b.uni0326_1;
position = "{398, 0}";
}
);
layerId = "4DDF4BC2-1FF7-4978-B26A-B91C0D95F109";
shapes = (
{
closed = 1;
nodes = (
(89.304,-0.841,l),
(89.304,704.507,l),
(174.546,704.507,l),
(581.925,224.123,l),
(581.925,704.507,l),
(699.877,704.507,l),
(699.877,-0.841,l),
(616.617,-0.841,l),
(206.264,483.472,l),
(206.264,-0.841,l)
);
}
);
width = 789;
},
{
anchors = (
{
name = t.uni0302;
position = "{383, 673}";
},
{
name = b.uni0326_1;
position = "{388, 0}";
}
);
layerId = "543DA35F-7ABF-43F9-9722-B424E2B2594A";
shapes = (
{
closed = 1;
nodes = (
(89,0,l),
(89,700,l),
(160,700,l),
(586,194,l),
(586,700,l),
(685,700,l),
(685,0,l),
(616,0,l),
(187,511,l),
(187,0,l)
);
}
);
width = 774;
},
{
anchors = (
{
name = t.uni0302;
position = "{388, 673}";
},
{
name = b.uni0326_1;
position = "{393, 0}";
}
);
layerId = "E87EDBC8-E77D-435A-ADBF-1646AF857D52";
shapes = (
{
closed = 1;
nodes = (
(105.105,0.222,l),
(105.105,695.291,l),
(161.73,695.291,l),
(607.653,159.679,l),
(607.653,695.291,l),
(687.535,695.291,l),
(687.535,0.222,l),
(632.932,0.222,l),
(183.976,540.945,l),
(183.976,0.222,l)
);
}
);
width = 782;
},
{
anchors = (
{
name = t.uni0302;
position = "{388, 673}";
},
{
name = b.uni0326_1;
position = "{393, 0}";
}
);
layerId = "C61358D5-F9AD-4529-B82F-EDAD2AAE1785";
shapes = (
{
closed = 1;
nodes = (
(109.8,0.551,l),
(109.8,691.544,l),
(160.666,691.544,l),
(615.404,141.232,l),
(615.404,691.544,l),
(685.598,691.544,l),
(685.598,0.551,l),
(636.767,0.551,l),
(178.977,556.035,l),
(178.977,0.551,l)
);
}
);
width = 782;
}
);
unicode = 78;
},
{
glyphname = O;
layers = (
{
anchors = (
{
name = t.uni0302;
position = "{407, 679}";
},
{
name = b.uni0326_1;
position = "{409, 0}";
},
{
name = m.uni0328_2;
position = "{669, 10}";
}
);
layerId = "7036C340-131A-4170-91E6-36E4B31F78AD";
shapes = (
{
closed = 1;
nodes = (
(241.956,154.111,o),
(309.044,101.559,o),
(404.744,101.559,cs),
(500.443,101.559,o),
(564.571,154.111,o),
(599.102,221.261,cs),
(620.807,262.134,o),
(628.7,307.874,o),
(628.7,353.613,cs),
(628.7,399.353,o),
(620.807,444.119,o),
(599.102,485.966,cs),
(563.585,553.116,o),
(498.47,605.667,o),
(402.77,605.667,cs),
(307.071,605.667,o),
(240.969,553.116,o),
(205.452,485.966,cs),
(183.747,444.119,o),
(175.854,399.353,o),
(175.854,353.613,cs),
(175.854,307.874,o),
(183.747,262.134,o),
(206.439,221.261,cs)
);
},
{
closed = 1;
nodes = (
(55.49,225.153,o),
(43.651,290.357,o),
(43.651,353.613,cs),
(43.651,416.87,o),
(55.49,482.073,o),
(89.035,541.437,cs),
(144.284,640.702,o),
(248.862,718.556,o),
(402.77,718.556,cs),
(556.678,718.556,o),
(661.257,640.702,o),
(716.506,541.437,cs),
(749.064,481.1,o),
(760.903,416.87,o),
(760.903,353.613,cs),
(760.903,290.357,o),
(749.064,225.153,o),
(716.506,165.789,cs),
(661.257,66.525,o),
(558.652,-11.33,o),
(404.744,-11.33,cs),
(250.835,-11.33,o),
(144.284,65.552,o),
(89.035,165.789,cs)
);
}
);
width = 804;
},
{
anchors = (
{
name = t.uni0302;
position = "{400, 679}";
},
{
name = b.uni0326_1;
position = "{402, 0}";
},
{
name = m.uni0328_2;
position = "{662, 10}";
}
);
layerId = "4DDF4BC2-1FF7-4978-B26A-B91C0D95F109";
shapes = (
{
closed = 1;
nodes = (
(231.035,143.568,o),
(302.401,93.467,o),
(398.546,93.467,cs),
(493.701,93.467,o),
(563.084,143.568,o),
(600.749,216.264,cs),
(622.555,258.507,o),
(630.485,305.661,o),
(630.485,351.833,cs),
(630.485,474.63,o),
(557.137,610.198,o),
(396.564,610.198,cs),
(235.991,610.198,o),
(161.652,475.612,o),
(161.652,351.833,cs),
(161.652,305.661,o),
(170.573,258.507,o),
(192.379,216.264,cs)
);
},
{
closed = 1;
nodes = (
(156.696,-12.63,o),
(42.709,173.04,o),
(42.709,351.833,cs),
(42.709,415.687,o),
(55.595,480.524,o),
(87.313,539.467,cs),
(146.784,645.564,o),
(252.841,716.295,o),
(396.564,716.295,cs),
(539.295,716.295,o),
(646.344,645.564,o),
(704.824,539.467,cs),
(737.533,480.524,o),
(749.427,415.687,o),
(749.427,351.833,cs),
(749.427,175.987,o),
(638.414,-12.63,o),
(398.546,-12.63,cs)
);
}
);
width = 793;
},
{
anchors = (
{
name = t.uni0302;
position = "{390, 679}";
},
{
name = b.uni0326_1;
position = "{392, 0}";
},
{
name = m.uni0328_2;
position = "{652, 10}";
}
);
layerId = "543DA35F-7ABF-43F9-9722-B424E2B2594A";
shapes = (
{
closed = 1;
nodes = (
(290,-12,o),
(132,80,o),
(43,244,o),
(43,350,qs),
(43,456,o),
(132,619,o),
(288,712,o),
(390,712,qs),
(492,712,o),
(648,619,o),
(736,456,o),
(736,350,qs),
(736,244,o),
(648,80,o),
(493,-12,o),
(392,-12,qs)
);
},
{
closed = 1;
nodes = (
(464,78,o),
(574,148,o),
(636,270,o),
(636,350,qs),
(636,429,o),
(573,552,o),
(462,622,o),
(390,622,qs),
(318,622,o),
(206,552,o),
(143,429,o),
(143,350,qs),
(143,270,o),
(207,148,o),
(320,78,o),
(392,78,qs)
);
}
);
width = 779;
},
{
anchors = (
{
name = t.uni0302;
position = "{395, 679}";
},
{
name = b.uni0326_1;
position = "{397, 0}";
},
{
name = m.uni0328_2;
position = "{657, 10}";
}
);
layerId = "E87EDBC8-E77D-435A-ADBF-1646AF857D52";
shapes = (
{
closed = 1;
nodes = (
(184.998,-12.044,o),
(57.592,150.479,o),
(57.592,347.756,cs),
(57.592,544.011,o),
(183.987,707.557,o),
(398.354,707.557,cs),
(612.72,707.557,o),
(738.104,542.989,o),
(738.104,347.756,cs),
(738.104,153.546,o),
(614.743,-12.044,o),
(400.376,-12.044,cs)
);
},
{
closed = 1;
nodes = (
(567.218,59.507,o),
(657.211,197.499,o),
(657.211,347.756,cs),
(657.211,498.014,o),
(564.184,636.006,o),
(398.354,636.006,cs),
(231.512,636.006,o),
(138.485,499.036,o),
(138.485,347.756,cs),
(138.485,195.454,o),
(233.534,59.507,o),
(400.376,59.507,cs)
);
}
);
width = 786;
},
{
anchors = (
{
name = t.uni0302;
position = "{395, 679}";
},
{
name = b.uni0326_1;
position = "{397, 0}";
},
{
name = m.uni0328_2;
position = "{657, 10}";
}
);
layerId = "C61358D5-F9AD-4529-B82F-EDAD2AAE1785";
shapes = (
{
closed = 1;
nodes = (
(172.874,-11.862,o),
(63.004,168.127,o),
(63.004,346.047,cs),
(63.004,521.899,o),
(172.874,703.957,o),
(400.751,703.957,cs),
(629.646,703.957,o),
(737.481,522.933,o),
(737.481,346.047,cs),
(737.481,170.196,o),
(631.681,-11.862,o),
(402.786,-11.862,cs)
);
},
{
closed = 1;
nodes = (
(584.884,48.134,o),
(666.269,205.366,o),
(666.269,346.047,cs),
(666.269,486.728,o),
(581.832,643.96,o),
(400.751,643.96,cs),
(218.653,643.96,o),
(134.216,487.763,o),
(134.216,346.047,cs),
(134.216,203.297,o),
(220.687,48.134,o),
(402.786,48.134,cs)
);
}
);
width = 786;
}
);
unicode = 79;
},
{
glyphname = P;
layers = (
{
layerId = "7036C340-131A-4170-91E6-36E4B31F78AD";
shapes = (
{
closed = 1;
nodes = (
(219.264,357.506,l),
(405.73,357.506,l),
(476.765,357.506,o),
(508.336,419.79,o),
(508.336,475.261,cs),
(508.336,536.571,o),
(467.885,593.989,o),
(386.985,593.989,c),
(219.264,593.989,l)
);
},
{
closed = 1;
nodes = (
(89.035,0.349,l),
(89.035,706.878,l),
(387.971,706.878,ls),
(561.611,706.878,o),
(639.552,586.204,o),
(639.552,475.261,cs),
(639.552,375.023,o),
(574.437,243.644,o),
(406.717,243.644,c),
(219.264,243.644,l),
(219.264,0.349,l)
);
}
);
width = 672;
},
{
layerId = "4DDF4BC2-1FF7-4978-B26A-B91C0D95F109";
shapes = (
{
closed = 1;
nodes = (
(206.264,351.833,l),
(400.538,351.833,l),
(475.868,351.833,o),
(510.56,414.705,o),
(510.56,474.63,cs),
(510.56,542.414,o),
(464.965,598.41,o),
(381.705,598.41,c),
(206.264,598.41,l)
);
},
{
closed = 1;
nodes = (
(89.304,-0.841,l),
(89.304,704.507,l),
(382.696,704.507,ls),
(540.295,704.507,o),
(628.511,597.428,o),
(628.511,474.63,cs),
(628.511,362.639,o),
(554.172,244.753,o),
(401.529,244.753,c),
(206.264,244.753,l),
(206.264,-0.841,l)
);
}
);
width = 661;
},
{
layerId = "543DA35F-7ABF-43F9-9722-B424E2B2594A";
shapes = (
{
closed = 1;
nodes = (
(89,0,l),
(89,700,l),
(375,700,ls),
(445,700,o),
(552,643,o),
(613,542,o),
(613,475,qs),
(613,410,o),
(557,308,o),
(458,250,o),
(394,250,qs),
(187,250,l),
(187,0,l)
);
},
{
closed = 1;
nodes = (
(187,341,l),
(393,341,ls),
(446,341,o),
(514,416,o),
(514,475,qs),
(514,536,o),
(435,610,o),
(374,610,qs),
(187,610,l)
);
}
);
width = 645;
},
{
layerId = "E87EDBC8-E77D-435A-ADBF-1646AF857D52";
shapes = (
{
closed = 1;
nodes = (
(105.105,0.222,l),
(105.105,695.291,l),
(384.186,695.291,ls),
(518.671,695.291,o),
(614.731,606.363,o),
(614.731,475.527,cs),
(614.731,436.684,o),
(606.642,396.82,o),
(587.43,362.067,cs),
(550.017,293.582,o),
(482.269,255.762,o),
(403.398,255.762,c),
(183.976,255.762,l),
(183.976,0.222,l)
);
},
{
closed = 1;
nodes = (
(183.976,328.335,l),
(402.387,328.335,l),
(487.325,328.335,o),
(534.849,397.842,o),
(534.849,475.527,cs),
(534.849,562.41,o),
(474.18,623.74,o),
(383.175,623.74,c),
(183.976,623.74,l)
);
}
);
width = 653;
},
{
layerId = "C61358D5-F9AD-4529-B82F-EDAD2AAE1785";
shapes = (
{
closed = 1;
nodes = (
(109.8,0.551,l),
(109.8,691.544,l),
(385.492,691.544,ls),
(529.95,691.544,o),
(612.352,594.308,o),
(612.352,475.35,cs),
(612.352,437.076,o),
(604.213,398.803,o),
(584.884,363.632,cs),
(550.296,299.498,o),
(488.24,259.156,o),
(404.82,259.156,c),
(178.977,259.156,l),
(178.977,0.551,l)
);
},
{
closed = 1;
nodes = (
(178.977,320.187,l),
(403.803,320.187,l),
(498.413,320.187,o),
(542.157,400.872,o),
(542.157,475.35,cs),
(542.157,559.138,o),
(486.205,631.547,o),
(384.474,631.547,c),
(178.977,631.547,l)
);
}
);
width = 652;
}
);
unicode = 80;
},
{
glyphname = Q;
layers = (
{
layerId = "7036C340-131A-4170-91E6-36E4B31F78AD";
shapes = (
{
closed = 1;
nodes = (
(595.155,38.303,l),
(539.906,5.215,o),
(476.765,-11.33,o),
(404.744,-11.33,cs),
(250.835,-11.33,o),
(144.284,65.552,o),
(89.035,165.789,cs),
(55.49,225.153,o),
(43.651,290.357,o),
(43.651,353.613,cs),
(43.651,402.272,o),
(50.557,451.905,o),
(69.303,499.591,cs),
(114.686,615.399,o),
(224.197,718.556,o),
(401.784,718.556,cs),
(555.692,718.556,o),
(661.257,640.702,o),
(716.506,541.437,cs),
(749.064,481.1,o),
(760.903,416.87,o),
(760.903,353.613,cs),
(760.903,270.893,o),
(740.184,189.146,o),
(683.949,116.157,c),
(763.862,35.383,l),
(680.989,-47.337,l)
);
},
{
closed = 1;
nodes = (
(495.51,303.008,l),
(592.196,207.636,l),
(618.834,253.376,o),
(628.7,302.035,o),
(628.7,353.613,cs),
(628.7,399.353,o),
(620.807,444.119,o),
(599.102,485.966,cs),
(563.585,553.116,o),
(498.47,605.667,o),
(402.77,605.667,cs),
(307.071,605.667,o),
(240.969,553.116,o),
(205.452,485.966,cs),
(183.747,444.119,o),
(175.854,399.353,o),
(175.854,353.613,cs),
(175.854,307.874,o),
(183.747,262.134,o),
(206.439,221.261,cs),
(241.956,154.111,o),
(309.044,101.559,o),
(404.744,101.559,cs),
(446.18,101.559,o),
(484.657,111.291,o),
(516.228,130.755,c),
(499.456,133.674,o),
(410.663,222.234,o),
(410.663,222.234,c)
);
}
);
width = 810;
},
{
layerId = "4DDF4BC2-1FF7-4978-B26A-B91C0D95F109";
shapes = (
{
closed = 1;
nodes = (
(590.837,40.419,l),
(534.339,5.053,o),
(469.912,-12.63,o),
(398.546,-12.63,cs),
(156.696,-12.63,o),
(42.709,173.04,o),
(42.709,351.833,cs),
(42.709,527.679,o),
(155.705,716.295,o),
(395.573,716.295,cs),
(538.304,716.295,o),
(646.344,646.546,o),
(704.824,539.467,cs),
(737.533,480.524,o),
(749.427,415.687,o),
(749.427,351.833,cs),
(749.427,266.366,o),
(727.621,183.846,o),
(671.123,112.132,c),
(751.41,30.595,l),
(676.079,-44.066,l)
);
},
{
closed = 1;
nodes = (
(489.736,292.89,l),
(587.864,194.652,l),
(618.59,242.789,o),
(630.485,295.837,o),
(630.485,351.833,cs),
(630.485,474.63,o),
(557.137,610.198,o),
(396.564,610.198,cs),
(235.991,610.198,o),
(161.652,475.612,o),
(161.652,351.833,cs),
(161.652,305.661,o),
(170.573,258.507,o),
(192.379,216.264,cs),
(231.035,143.568,o),
(302.401,93.467,o),
(398.546,93.467,cs),
(441.167,93.467,o),
(482.797,103.291,o),
(516.498,124.903,c),
(505.595,126.868,o),
(413.414,219.212,o),
(413.414,219.212,c)
);
}
);
width = 798;
},
{
layerId = "543DA35F-7ABF-43F9-9722-B424E2B2594A";
shapes = (
{
closed = 1;
nodes = (
(420,215,l),
(484,277,l),
(585,175,l),
(596,191,o),
(605,209,qs),
(636,270,o),
(636,350,qs),
(636,429,o),
(573,552,o),
(462,622,o),
(390,622,qs),
(318,622,o),
(206,552,o),
(143,429,o),
(143,350,qs),
(143,270,o),
(207,148,o),
(320,78,o),
(392,78,qs),
(464,78,o),
(519,113,q),
(520,113,o),
(520,114,q)
);
},
{
closed = 1;
nodes = (
(735,23,l),
(672,-40,l),
(588,45,l),
(579,39,o),
(570,34,qs),
(493,-12,o),
(392,-12,qs),
(290,-12,o),
(132,80,o),
(43,244,o),
(43,350,qs),
(43,430,o),
(94,562,o),
(186,659,o),
(313,712,o),
(389,712,qs),
(491,712,o),
(648,619,o),
(736,456,o),
(736,350,qs),
(736,244,o),
(692,162,qs),
(675,131,o),
(654,105,q)
);
}
);
width = 782;
},
{
layerId = "E87EDBC8-E77D-435A-ADBF-1646AF857D52";
shapes = (
{
closed = 1;
nodes = (
(600.586,49.285,l),
(544.972,7.377,o),
(469.135,-12.044,o),
(400.376,-12.044,cs),
(184.998,-12.044,o),
(57.592,150.479,o),
(57.592,347.756,cs),
(57.592,542.989,o),
(182.976,707.557,o),
(397.342,707.557,cs),
(612.72,707.557,o),
(738.104,544.011,o),
(738.104,347.756,cs),
(738.104,251.673,o),
(712.825,171.945,o),
(651.144,96.305,c),
(733.049,13.51,l),
(683.502,-36.576,l)
);
},
{
closed = 1;
nodes = (
(442.845,209.765,l),
(493.403,258.828,l),
(596.542,153.546,l),
(639.01,217.942,o),
(657.211,269.05,o),
(657.211,347.756,cs),
(657.211,498.014,o),
(564.184,636.006,o),
(398.354,636.006,cs),
(231.512,636.006,o),
(138.485,499.036,o),
(138.485,347.756,cs),
(138.485,195.454,o),
(233.534,59.507,o),
(400.376,59.507,cs),
(450.934,59.507,o),
(490.369,71.773,o),
(534.861,96.305,c),
(534.861,96.305,o),
(534.861,96.305,o),
(534.861,96.305,c),
(543.961,106.526,l)
);
}
);
width = 789;
},
{
layerId = "C61358D5-F9AD-4529-B82F-EDAD2AAE1785";
shapes = (
{
closed = 1;
nodes = (
(604.213,51.237,l),
(541.14,8.826,o),
(486.205,-11.862,o),
(402.786,-11.862,cs),
(172.874,-11.862,o),
(63.004,168.127,o),
(63.004,346.047,cs),
(63.004,521.899,o),
(170.839,703.957,o),
(399.734,703.957,cs),
(629.646,703.957,o),
(737.481,522.933,o),
(737.481,346.047,cs),
(737.481,245.708,o),
(712.048,174.333,o),
(647.958,91.58,c),
(729.343,7.792,l),
(687.633,-34.62,l)
);
},
{
closed = 1;
nodes = (
(452.634,206.4,l),
(496.378,247.777,l),
(601.161,140.198,l),
(611.335,155.714,ls),
(649.992,216.745,o),
(666.269,275.707,o),
(666.269,346.047,cs),
(666.269,486.728,o),
(581.832,643.96,o),
(400.751,643.96,cs),
(218.653,643.96,o),
(134.216,487.763,o),
(134.216,346.047,cs),
(134.216,203.297,o),
(220.687,48.134,o),
(402.786,48.134,cs),
(456.703,48.134,o),
(495.361,60.547,o),
(540.123,86.408,c),
(540.123,87.442,o),
(541.14,87.442,o),
(541.14,87.442,c),
(555.382,101.924,l)
);
}
);
width = 789;
}
);
unicode = 81;
},
{
glyphname = R;
layers = (
{
anchors = (
{
name = t.uni0302;
position = "{309, 679}";
},
{
name = b.uni0326_1;
position = "{333, 0}";
}
);
layerId = "7036C340-131A-4170-91E6-36E4B31F78AD";
shapes = (
{
closed = 1;
nodes = (
(89.035,0.349,l),
(89.035,706.878,l),
(387.971,706.878,ls),
(556.678,706.878,o),
(639.552,594.962,o),
(639.552,484.02,cs),
(639.552,400.326,o),
(592.196,319.552,o),
(489.59,280.625,c),
(656.324,0.349,l),
(510.309,0.349,l),
(356.401,261.161,l),
(219.264,261.161,l),
(219.264,0.349,l)
);
},
{
closed = 1;
nodes = (
(219.264,374.05,l),
(396.851,374.05,l),
(465.912,374.05,o),
(506.362,430.495,o),
(506.362,484.02,cs),
(506.362,544.357,o),
(463.939,593.989,o),
(385.012,593.989,c),
(219.264,593.989,l)
);
}
);
width = 699;
},
{
anchors = (
{
name = t.uni0302;
position = "{302, 679}";
},
{
name = b.uni0326_1;
position = "{326, 0}";
}
);
layerId = "4DDF4BC2-1FF7-4978-B26A-B91C0D95F109";
shapes = (
{
closed = 1;
nodes = (
(89.304,-0.841,l),
(89.304,704.507,l),
(382.696,704.507,ls),
(534.348,704.507,o),
(628.511,606.269,o),
(628.511,483.472,cs),
(628.511,393.093,o),
(574.987,316.467,o),
(476.859,280.119,c),
(642.388,-0.841,l),
(510.56,-0.841,l),
(355.934,262.436,l),
(206.264,262.436,l),
(206.264,-0.841,l)
);
},
{
closed = 1;
nodes = (
(206.264,368.533,l),
(391.617,368.533,l),
(462.982,368.533,o),
(508.577,424.529,o),
(508.577,483.472,cs),
(508.577,550.273,o),
(459.018,598.41,o),
(379.723,598.41,c),
(206.264,598.41,l)
);
}
);
width = 685;
},
{
anchors = (
{
name = t.uni0302;
position = "{292, 679}";
},
{
name = b.uni0326_1;
position = "{316, 0}";
}
);
layerId = "543DA35F-7ABF-43F9-9722-B424E2B2594A";
shapes = (
{
closed = 1;
nodes = (
(187,358,l),
(384,358,ls),
(420,358,o),
(477,391,o),
(512,448,o),
(512,484,qs),
(512,540,o),
(434,610,o),
(372,610,qs),
(187,610,l)
);
},
{
closed = 1;
nodes = (
(621,0,l),
(510,0,l),
(354,268,l),
(187,268,l),
(187,0,l),
(89,0,l),
(89,700,l),
(375,700,ls),
(445,700,o),
(552,645,o),
(613,548,o),
(613,484,qs),
(613,421,o),
(548,323,o),
(492,296,qs),
(474,287,o),
(456,281,q)
);
}
);
width = 663;
},
{
anchors = (
{
name = t.uni0302;
position = "{297, 679}";
},
{
name = b.uni0326_1;
position = "{321, 0}";
}
);
layerId = "E87EDBC8-E77D-435A-ADBF-1646AF857D52";
shapes = (
{
closed = 1;
nodes = (
(105.105,0.222,l),
(105.105,695.291,l),
(384.186,695.291,ls),
(513.615,695.291,o),
(614.731,614.54,o),
(614.731,484.726,cs),
(614.731,385.576,o),
(555.073,320.158,o),
(463.057,287.449,c),
(450.923,282.338,l),
(614.731,0.222,l),
(526.76,0.222,l),
(369.019,274.161,l),
(183.976,274.161,l),
(183.976,0.222,l)
);
},
{
closed = 1;
nodes = (
(183.976,345.712,l),
(393.287,345.712,l),
(473.169,345.712,o),
(532.827,408.064,o),
(532.827,484.726,cs),
(532.827,570.588,o),
(468.113,623.74,o),
(381.153,623.74,c),
(183.976,623.74,l)
);
}
);
width = 671;
},
{
anchors = (
{
name = t.uni0302;
position = "{297, 679}";
},
{
name = b.uni0326_1;
position = "{321, 0}";
}
);
layerId = "C61358D5-F9AD-4529-B82F-EDAD2AAE1785";
shapes = (
{
closed = 1;
nodes = (
(109.8,0.551,l),
(109.8,691.544,l),
(385.492,691.544,ls),
(524.863,691.544,o),
(612.352,602.584,o),
(612.352,484.66,cs),
(612.352,394.665,o),
(559.452,324.324,o),
(463.824,290.189,cs),
(457.721,288.12,o),
(450.599,286.051,o),
(444.496,283.982,c),
(608.283,0.551,l),
(531.984,0.551,l),
(372.266,277.775,l),
(178.977,277.775,l),
(178.977,0.551,l)
);
},
{
closed = 1;
nodes = (
(178.977,337.772,l),
(394.647,337.772,l),
(484.171,337.772,o),
(540.123,411.216,o),
(540.123,484.66,cs),
(540.123,567.413,o),
(479.084,631.547,o),
(382.44,631.547,c),
(178.977,631.547,l)
);
}
);
width = 670;
}
);
unicode = 82;
},
{
glyphname = S;
layers = (
{
anchors = (
{
name = t.uni0302;
position = "{-188, 679}";
},
{
name = b.uni0326_1;
position = "{-189, 0}";
}
);
layerId = "7036C340-131A-4170-91E6-36E4B31F78AD";
shapes = (
{
closed = 1;
nodes = (
(57.571,133.674,l),
(59.544,131.728,o),
(60.531,128.809,o),
(60.531,125.889,c),
(61.517,121.996,o),
(62.504,118.104,o),
(63.49,115.184,cs),
(65.464,107.399,o),
(69.41,98.64,o),
(76.316,90.854,cs),
(91.115,73.337,l),
(112.82,49.008,o),
(170.042,8.134,o),
(211.479,1.322,cs),
(225.291,-0.625,o),
(239.104,-2.571,o),
(252.916,-4.517,cs),
(278.567,-8.41,o),
(304.219,-11.33,o),
(330.856,-11.33,cs),
(366.374,-11.33,o),
(442.341,-1.598,o),
(474.899,15.92,c),
(494.631,27.598,o),
(512.389,39.276,o),
(530.148,52.9,c),
(572.571,88.908,o),
(593.29,151.192,o),
(593.29,196.931,cs),
(593.29,203.744,o),
(591.316,212.502,o),
(590.33,219.314,cs),
(586.383,249.483,o),
(565.665,299.115,o),
(536.067,324.418,cs),
(491.671,360.426,o),
(443.328,388.648,o),
(379.199,404.219,cs),
(356.508,410.058,o),
(333.816,414.924,o),
(312.111,420.763,cs),
(291.393,426.602,o),
(272.648,432.441,o),
(256.862,439.253,c),
(227.264,453.851,o),
(207.533,474.288,o),
(207.533,512.242,cs),
(207.533,550.196,o),
(229.238,589.123,o),
(272.648,602.748,cs),
(290.406,608.587,o),
(315.071,609.56,o),
(337.763,609.56,cs),
(369.334,609.56,o),
(385.119,602.748,o),
(408.797,584.257,cs),
(416.69,578.418,o),
(422.609,571.606,o),
(425.569,564.794,c),
(428.529,556.035,l),
(566.652,556.035,l),
(562.705,571.606,ls),
(551.853,613.453,o),
(533.108,643.621,o),
(489.698,673.79,cs),
(485.751,676.71,o),
(477.858,681.575,o),
(469.966,686.441,cs),
(466.019,688.388,o),
(462.073,690.334,o),
(458.127,692.28,cs),
(454.18,694.227,o),
(450.234,696.173,o),
(446.288,697.146,cs),
(422.609,703.959,o),
(398.931,708.825,o),
(374.266,713.69,c),
(354.535,716.61,o),
(333.816,718.556,o),
(313.098,718.556,cs),
(281.527,718.556,o),
(237.13,708.825,o),
(209.506,700.066,cs),
(110.847,666.978,o),
(75.33,578.418,o),
(75.33,507.376,cs),
(75.33,484.02,o),
(81.249,437.307,o),
(100.981,413.951,cs),
(119.726,391.567,ls),
(142.418,364.318,o),
(161.163,353.613,o),
(195.694,337.069,cs),
(218.385,325.391,o),
(242.063,317.606,o),
(265.742,310.793,cs),
(289.42,304.954,o),
(313.098,300.088,o),
(336.776,293.276,cs),
(346.642,290.357,o),
(366.374,283.544,o),
(385.119,275.759,cs),
(405.837,267.973,o),
(421.623,260.188,o),
(426.556,255.322,cs),
(447.274,234.885,o),
(459.113,215.422,o),
(459.113,191.092,cs),
(459.113,170.655,o),
(442.341,134.648,o),
(423.596,124.916,cs),
(390.052,106.425,o),
(359.468,98.64,o),
(319.017,98.64,cs),
(292.379,98.64,o),
(231.211,111.291,o),
(219.372,123.943,cs),
(213.452,129.782,o),
(207.533,136.594,o),
(202.6,144.379,cs),
(197.667,151.192,l),
(48.692,151.192,l)
);
}
);
width = 641;
},
{
anchors = (
{
name = t.uni0302;
position = "{-198, 679}";
},
{
name = b.uni0326_1;
position = "{-199, 0}";
}
);
layerId = "4DDF4BC2-1FF7-4978-B26A-B91C0D95F109";
shapes = (
{
closed = 1;
nodes = (
(47.709,143.568,l),
(53.656,131.78,ls),
(54.648,128.833,o),
(55.639,125.886,o),
(56.63,121.956,cs),
(57.621,119.009,o),
(58.612,115.079,o),
(59.604,112.132,cs),
(61.586,104.273,o),
(64.559,96.414,o),
(71.498,88.555,cs),
(86.366,70.872,l),
(108.172,46.313,o),
(164.67,7.018,o),
(203.326,1.123,c),
(217.203,-1.824,o),
(230.088,-3.789,o),
(243.965,-5.753,cs),
(269.736,-9.683,o),
(295.507,-12.63,o),
(321.278,-12.63,cs),
(355.969,-12.63,o),
(430.308,-2.806,o),
(462.027,14.877,cs),
(480.859,25.683,o),
(498.701,37.471,o),
(515.551,51.225,cs),
(557.181,85.608,o),
(577.996,146.515,o),
(577.996,193.67,cs),
(577.996,217.247,o),
(569.075,244.753,o),
(559.163,265.383,cs),
(546.278,294.855,o),
(527.445,314.502,o),
(501.674,336.115,cs),
(465.991,364.604,o),
(414.449,388.181,o),
(367.863,398.987,c),
(330.198,408.811,o),
(295.507,415.687,o),
(258.833,428.458,cs),
(212.247,445.159,o),
(190.441,468.736,o),
(190.441,511.961,cs),
(190.441,553.22,o),
(215.22,593.498,o),
(259.824,608.234,cs),
(279.648,614.128,o),
(305.419,615.11,o),
(328.216,615.11,cs),
(361.916,615.11,o),
(379.758,607.251,o),
(404.538,587.604,c),
(413.458,581.709,o),
(419.405,573.85,o),
(422.379,565.991,c),
(425.352,560.097,l),
(549.251,560.097,l),
(547.269,570.903,l),
(535.375,614.128,o),
(516.542,643.599,o),
(475.903,672.088,cs),
(467.974,677.,o),
(445.176,691.736,o),
(434.273,694.683,cs),
(411.476,701.56,o),
(387.687,706.472,o),
(362.908,710.401,c),
(344.075,714.331,o),
(323.26,716.295,o),
(303.436,716.295,cs),
(272.709,716.295,o),
(231.079,706.472,o),
(202.335,697.63,cs),
(183.502,691.736,o),
(148.811,675.035,o),
(134.934,659.317,cs),
(91.322,611.181,o),
(71.498,568.939,o),
(71.498,507.049,cs),
(71.498,482.489,o),
(77.445,437.3,o),
(96.278,414.705,cs),
(115.11,392.11,ls),
(137.908,364.604,o),
(156.74,354.78,o),
(189.449,338.079,cs),
(212.247,327.273,o),
(236.035,319.414,o),
(258.833,313.52,cs),
(282.621,306.643,o),
(306.41,301.731,o),
(330.198,294.855,cs),
(350.022,288.96,o),
(409.493,267.348,o),
(422.379,254.577,cs),
(434.273,243.771,o),
(443.194,232.965,o),
(449.141,220.194,c),
(455.088,210.37,o),
(457.071,199.564,o),
(457.071,187.775,cs),
(457.071,174.022,o),
(451.123,157.322,o),
(443.194,144.551,cs),
(421.388,105.256,o),
(360.925,90.52,o),
(309.383,90.52,cs),
(282.621,90.52,o),
(217.203,103.291,o),
(203.326,117.044,cs),
(196.388,123.921,o),
(191.432,131.78,o),
(186.476,138.656,c),
(183.502,143.568,l)
);
}
);
width = 627;
},
{
anchors = (
{
name = t.uni0302;
position = "{-213, 679}";
},
{
name = b.uni0326_1;
position = "{-214, 0}";
}
);
layerId = "543DA35F-7ABF-43F9-9722-B424E2B2594A";
shapes = (
{
closed = 1;
nodes = (
(309,-12,o),
(360,-9,o),
(421,3,o),
(445,14,q),
(445,14,o),
(479,34,o),
(517,66,o),
(529,87,q),
(529,87,o),
(545,118,o),
(558,164,o),
(558,189,q),
(558,189,o),
(552,232,o),
(528,286,o),
(504,311,q),
(504,311,o),
(464,344,o),
(396,379,o),
(353,390,qs),
(272,410,l),
(272,410,o),
(213,431,o),
(195,446,q),
(195,446,o),
(179,463,o),
(167,493,o),
(167,513,q),
(167,513,o),
(171,545,o),
(187,582,o),
(203,595,q),
(203,595,o),
(224,612,o),
(263,625,o),
(291,625,q),
(291,625,o),
(325,627,o),
(366,620,o),
(384,609,q),
(384,609,o),
(416,584,o),
(421,571,q),
(527,571,l),
(526,575,o),
(522,586,qs),
(510,621,o),
(495,638,q),
(495,638,o),
(475,658,o),
(442,681,o),
(420,691,q),
(420,691,o),
(378,702,o),
(321,712,o),
(291,712,q),
(291,712,o),
(229,706,o),
(157,682,o),
(129,658,q),
(129,658,o),
(94,617,o),
(67,551,o),
(67,508,q),
(67,508,o),
(69,475,o),
(79,435,o),
(90,419,q),
(90,419,o),
(128,373,o),
(152,358,q),
(152,358,o),
(210,329,o),
(240,321,qs),
(321,300,l),
(321,300,o),
(396,274,o),
(419,257,q),
(419,257,o),
(439,236,o),
(456,203,o),
(456,183,q),
(456,183,o),
(451,152,o),
(432,118,o),
(413,104,q),
(413,104,o),
(381,88,o),
(330,75,o),
(297,75,q),
(297,75,o),
(252,79,o),
(201,93,o),
(182,106,q),
(182,106,o),
(170,120,o),
(164,129,q),
(48,129,l),
(50,125,o),
(52,116,qs),
(57,97,o),
(65,87,q),
(65,87,o),
(96,51,o),
(117,37,q),
(117,37,o),
(163,9,o),
(192,1,q),
(192,1,o),
(274,-12,o),
(309,-12,q)
);
}
);
width = 606;
},
{
anchors = (
{
name = t.uni0302;
position = "{-207, 679}";
},
{
name = b.uni0326_1;
position = "{-208, 0}";
}
);
layerId = "E87EDBC8-E77D-435A-ADBF-1646AF857D52";
shapes = (
{
closed = 1;
nodes = (
(70.726,111.637,l),
(69.714,107.549,ls),
(68.703,103.46,o),
(70.726,99.371,o),
(71.737,95.283,c),
(73.759,92.216,o),
(76.793,88.127,o),
(79.826,85.061,cs),
(84.882,77.906,o),
(90.949,70.751,o),
(93.982,67.684,cs),
(115.217,44.175,o),
(167.797,7.377,o),
(200.154,1.244,c),
(239.59,-4.889,o),
(278.014,-12.044,o),
(317.449,-12.044,cs),
(349.807,-12.044,o),
(422.61,-2.845,o),
(450.923,13.51,cs),
(479.236,29.864,o),
(514.626,53.374,o),
(530.805,84.039,cs),
(547.995,115.726,o),
(559.117,146.391,o),
(559.117,183.188,cs),
(559.117,205.676,o),
(550.017,231.23,o),
(541.928,250.651,cs),
(528.782,279.272,o),
(511.593,296.648,o),
(487.325,317.092,cs),
(449.912,346.734,o),
(405.421,366.155,o),
(358.907,378.421,cs),
(338.684,383.532,o),
(316.438,387.621,o),
(293.181,393.754,cs),
(270.936,399.887,o),
(248.69,407.042,o),
(229.478,416.241,cs),
(191.054,435.662,o),
(163.753,464.283,o),
(163.753,514.369,cs),
(163.753,548.1,o),
(177.909,585.92,o),
(204.199,606.363,cs),
(242.623,637.028,o),
(275.992,640.094,o),
(324.528,640.094,cs),
(366.996,640.094,o),
(412.499,621.696,o),
(435.755,585.92,c),
(436.767,583.876,l),
(524.738,583.876,l),
(522.716,591.031,l),
(509.57,624.762,o),
(492.381,644.183,o),
(463.057,665.649,cs),
(454.968,671.781,o),
(438.789,683.025,o),
(427.666,686.092,cs),
(388.231,698.358,o),
(340.706,707.557,o),
(299.248,707.557,cs),
(257.791,707.557,o),
(172.853,688.136,o),
(142.518,655.427,cs),
(103.083,612.496,o),
(82.86,567.521,o),
(82.86,509.258,cs),
(82.86,487.792,o),
(88.927,442.817,o),
(104.094,424.418,cs),
(110.161,417.263,o),
(117.239,409.086,o),
(123.306,401.931,cs),
(149.596,371.266,o),
(178.92,352.867,o),
(217.344,339.579,cs),
(244.646,329.357,o),
(290.148,318.114,o),
(333.628,305.848,cs),
(378.119,292.56,o),
(417.555,278.249,o),
(436.767,260.873,c),
(459.012,238.385,o),
(476.202,207.72,o),
(476.202,177.055,cs),
(476.202,159.679,o),
(469.124,138.213,o),
(461.035,122.881,c),
(431.711,73.817,o),
(361.941,56.44,o),
(305.315,56.44,cs),
(272.958,56.44,o),
(202.177,70.751,o),
(181.954,91.194,cs),
(178.92,94.26,o),
(176.898,97.327,o),
(173.864,100.393,cs),
(171.842,103.46,o),
(168.808,106.526,o),
(166.786,109.593,c),
(164.764,111.637,l)
);
}
);
width = 615;
},
{
anchors = (
{
name = t.uni0302;
position = "{-207, 679}";
},
{
name = b.uni0326_1;
position = "{-208, 0}";
}
);
layerId = "C61358D5-F9AD-4529-B82F-EDAD2AAE1785";
shapes = (
{
closed = 1;
nodes = (
(76.212,100.89,l),
(77.229,95.717,l),
(79.264,89.511,o),
(82.316,84.339,o),
(86.385,79.167,cs),
(90.454,75.029,o),
(94.523,70.891,o),
(98.593,65.719,cs),
(119.956,41.928,o),
(166.752,8.826,o),
(202.358,1.585,cs),
(239.999,-5.656,o),
(279.674,-11.862,o),
(319.349,-11.862,cs),
(350.886,-11.862,o),
(423.115,-3.587,o),
(450.582,12.964,cs),
(467.876,23.308,o),
(486.188,34.687,o),
(501.448,48.134,cs),
(538.071,79.167,o),
(557.4,137.094,o),
(557.4,179.506,cs),
(557.4,200.194,o),
(548.244,227.089,o),
(541.123,244.674,cs),
(529.932,271.569,o),
(509.586,291.223,o),
(487.205,309.843,cs),
(453.634,338.806,o),
(405.82,360.529,o),
(360.041,371.908,cs),
(336.643,378.114,o),
(312.228,383.286,o),
(288.83,389.493,cs),
(265.432,396.734,o),
(243.051,403.975,o),
(223.722,413.285,cs),
(186.081,432.939,o),
(159.631,462.937,o),
(159.631,514.658,cs),
(159.631,547.759,o),
(174.891,589.136,o),
(201.341,611.893,cs),
(239.999,643.96,o),
(274.587,648.098,o),
(326.47,648.098,cs),
(368.18,648.098,o),
(389.543,637.754,o),
(421.08,613.962,cs),
(429.219,607.756,o),
(436.34,601.549,o),
(441.426,593.274,c),
(442.444,591.205,l),
(520.777,591.205,l),
(518.742,596.377,ls),
(503.482,632.582,o),
(479.067,653.27,o),
(445.496,673.959,cs),
(442.444,676.027,o),
(440.409,678.096,o),
(437.357,679.131,cs),
(434.305,681.2,o),
(431.253,682.234,o),
(428.201,683.268,cs),
(391.578,694.647,o),
(339.695,703.957,o),
(301.037,703.957,cs),
(259.328,703.957,o),
(175.908,684.303,o),
(147.424,654.305,cs),
(106.731,609.825,o),
(88.419,566.379,o),
(88.419,509.486,cs),
(88.419,489.832,o),
(93.506,445.352,o),
(107.748,428.801,cs),
(127.077,405.009,ls),
(152.51,373.977,o),
(186.081,355.357,o),
(222.704,342.944,cs),
(259.328,329.497,o),
(299.003,320.187,o),
(335.626,309.843,cs),
(361.059,302.602,o),
(385.474,293.292,o),
(408.872,281.913,cs),
(421.08,276.741,o),
(432.271,269.5,o),
(441.426,261.225,cs),
(454.651,248.812,o),
(465.842,234.33,o),
(473.98,218.814,cs),
(481.101,204.332,o),
(484.153,189.85,o),
(484.153,173.299,cs),
(484.153,155.714,o),
(477.032,131.922,o),
(467.876,115.371,cs),
(439.392,64.685,o),
(370.215,45.031,o),
(307.141,45.031,cs),
(271.535,45.031,o),
(202.358,59.513,o),
(179.977,82.27,cs),
(173.874,87.442,o),
(169.804,92.614,o),
(165.735,98.821,c),
(164.718,100.89,l)
);
}
);
width = 615;
}
);
unicode = 83;
},
